<svg width="21" height="21" viewBox="0 0 21 21" fill="none" xmlns="http://www.w3.org/2000/svg">
<rect x="0.5" y="0.809814" width="19.8" height="20" rx="9.9" fill="#39364F"/>
<path d="M6.836 14.5778L10.63 10.6578C10.8633 10.4245 11.05 10.2098 11.19 10.0138C11.33 9.81781 11.4327 9.63581 11.498 9.46781C11.5633 9.29048 11.596 9.11315 11.596 8.93581C11.596 8.55315 11.47 8.25448 11.218 8.03981C10.9753 7.81581 10.6533 7.70381 10.252 7.70381C9.86 7.70381 9.50533 7.81115 9.188 8.02581C8.88 8.23115 8.58133 8.57181 8.292 9.04781L6.822 7.77381C7.214 7.11115 7.71333 6.61181 8.32 6.27581C8.92667 5.93981 9.622 5.77181 10.406 5.77181C11.0873 5.77181 11.6753 5.89781 12.17 6.14981C12.674 6.40181 13.0613 6.76115 13.332 7.22781C13.612 7.69448 13.752 8.24048 13.752 8.86581C13.752 9.25781 13.7007 9.62181 13.598 9.95781C13.4953 10.2845 13.3273 10.6111 13.094 10.9378C12.87 11.2551 12.5667 11.6051 12.184 11.9878L9.552 14.6058L6.836 14.5778ZM6.836 15.8098V14.5778L8.698 13.9338H13.948V15.8098H6.836Z" fill="white"/>
</svg>
