<svg width="20" height="21" viewBox="0 0 20 21" fill="none" xmlns="http://www.w3.org/2000/svg">
<rect y="0.809814" width="19.8" height="20" rx="9.9" fill="#39364F"/>
<path d="M9.542 15.9638C8.86067 15.9638 8.23533 15.8471 7.666 15.6138C7.09667 15.3711 6.616 15.0258 6.224 14.5778L7.638 13.1638C7.81533 13.4251 8.072 13.6398 8.408 13.8078C8.75333 13.9665 9.11733 14.0458 9.5 14.0458C9.84533 14.0458 10.144 13.9851 10.396 13.8638C10.648 13.7425 10.844 13.5698 10.984 13.3458C11.1333 13.1218 11.208 12.8558 11.208 12.5478C11.208 12.2398 11.1333 11.9785 10.984 11.7638C10.844 11.5398 10.634 11.3671 10.354 11.2458C10.0833 11.1245 9.75667 11.0638 9.374 11.0638C9.19667 11.0638 9.01 11.0778 8.814 11.1058C8.62733 11.1245 8.46867 11.1571 8.338 11.2038L9.304 9.98581C9.56533 9.91115 9.81267 9.85048 10.046 9.80381C10.2887 9.74781 10.5127 9.71981 10.718 9.71981C11.222 9.71981 11.6747 9.84115 12.076 10.0838C12.4773 10.3171 12.7947 10.6531 13.028 11.0918C13.2707 11.5211 13.392 12.0345 13.392 12.6318C13.392 13.2851 13.2287 13.8638 12.902 14.3678C12.5847 14.8718 12.1367 15.2638 11.558 15.5438C10.9887 15.8238 10.3167 15.9638 9.542 15.9638ZM8.338 11.2038V9.98581L10.746 7.15781L13.21 7.14381L10.704 9.99981L8.338 11.2038ZM6.84 7.78781V5.92581H13.21V7.14381L11.488 7.78781H6.84Z" fill="white"/>
</svg>
