<svg width="50" height="51" viewBox="0 0 50 51" fill="none" xmlns="http://www.w3.org/2000/svg">
<g clip-path="url(#clip0_309_2473)">
<path d="M43.0553 44.8238C43.0553 47.8919 40.5678 50.3794 37.4998 50.3794H6.94423C3.87617 50.3794 1.38867 47.8919 1.38867 44.8238V5.93495C1.38867 2.86689 3.87617 0.379395 6.94423 0.379395H37.4998C40.5678 0.379395 43.0553 2.86689 43.0553 5.93495V44.8238Z" fill="#CCD6DD"/>
<path d="M37.4999 33.7127C37.4999 34.4807 36.8791 35.1016 36.111 35.1016H8.33322C7.56656 35.1016 6.94434 34.4807 6.94434 33.7127C6.94434 32.9446 7.56656 32.3238 8.33322 32.3238H36.111C36.8791 32.3238 37.4999 32.9446 37.4999 33.7127ZM15.2777 39.2682C15.2777 40.0363 14.6554 40.6571 13.8888 40.6571H8.33322C7.56656 40.6571 6.94434 40.0363 6.94434 39.2682C6.94434 38.5002 7.56656 37.8793 8.33322 37.8793H13.8888C14.6554 37.8793 15.2777 38.5002 15.2777 39.2682ZM37.4999 11.4905C37.4999 12.2571 36.8791 12.8793 36.111 12.8793H8.33322C7.56656 12.8793 6.94434 12.2571 6.94434 11.4905C6.94434 10.7238 7.56656 10.1016 8.33322 10.1016H36.111C36.8791 10.1016 37.4999 10.7238 37.4999 11.4905ZM37.4999 17.046C37.4999 17.8141 36.8791 18.4349 36.111 18.4349H8.33322C7.56656 18.4349 6.94434 17.8141 6.94434 17.046C6.94434 16.278 7.56656 15.6571 8.33322 15.6571H36.111C36.8791 15.6571 37.4999 16.278 37.4999 17.046ZM37.4999 22.6016C37.4999 23.3696 36.8791 23.9905 36.111 23.9905H8.33322C7.56656 23.9905 6.94434 23.3696 6.94434 22.6016C6.94434 21.8335 7.56656 21.2127 8.33322 21.2127H36.111C36.8791 21.2127 37.4999 21.8335 37.4999 22.6016ZM37.4999 28.1571C37.4999 28.9252 36.8791 29.546 36.111 29.546H8.33322C7.56656 29.546 6.94434 28.9252 6.94434 28.1571C6.94434 27.3891 7.56656 26.7682 8.33322 26.7682H36.111C36.8791 26.7682 37.4999 27.3891 37.4999 28.1571Z" fill="#99AAB5"/>
<path d="M43.0552 9.0906C41.9066 8.34754 40.5038 8.28643 39.5538 9.05865L38.4538 9.95587L36.3927 11.6378L36.2538 11.7489L32.9538 14.4406L16.4566 27.8934C15.8496 28.3892 15.3552 29.5864 14.8274 30.7739C14.3024 31.9545 13.4816 34.735 12.8233 36.8725C12.6177 37.2198 11.3441 39.4364 12.058 40.2795C12.7802 41.1337 15.2885 40.2934 15.6246 40.1739C17.883 39.9323 20.8066 39.6559 22.0802 39.3684C23.3635 39.0753 24.6552 38.8198 25.2621 38.3239C25.2733 38.3156 25.276 38.2989 25.2858 38.292L41.7552 24.867L42.8552 23.9698L43.0552 23.8059V9.0906Z" fill="#66757F"/>
<path d="M25.201 31.6653C25.201 31.6653 23.4316 29.0528 22.2608 28.1195C21.3274 26.9486 18.7205 25.1806 18.7205 25.1806C18.0983 24.5611 17.0663 24.5139 16.458 25.1208C15.851 25.7292 15.3566 27.0181 14.8288 28.3028C14.1733 29.8945 13.0566 34.0722 12.3733 36.2917C12.258 36.6695 13.0913 35.6667 13.0719 36C13.058 36.2597 13.1094 36.5472 13.1746 36.807L12.9719 37.0278L13.2608 37.1209C13.2955 37.2347 13.3302 37.3347 13.3552 37.4125L13.576 37.2097C13.8358 37.275 14.1233 37.3264 14.3816 37.3125C14.7149 37.2931 13.7108 38.1278 14.0899 38.0111C16.3094 37.3264 20.4885 36.2111 22.0788 35.5556C23.3621 35.0264 24.6538 34.5333 25.2608 33.925C25.8705 33.3209 25.8246 32.2889 25.201 31.6653Z" fill="#D99E82"/>
<path d="M35.1557 6.4223C33.939 7.63758 33.939 9.60702 35.1557 10.8223L39.5543 15.2223C40.7709 16.4362 42.7404 16.4362 43.9543 15.2223L48.3557 10.8223C49.5696 9.60702 49.5696 7.63758 48.3557 6.4223L43.9543 2.0223C42.7404 0.80702 40.7709 0.80702 39.5543 2.0223L35.1557 6.4223Z" fill="#DF5145"/>
<path d="M16.457 25.1226L20.8598 29.5254L25.2556 33.9226L41.757 17.424L32.9556 8.62402L16.457 25.1226Z" fill="#F7BF22"/>
<path d="M15.6913 37.5212C15.6913 37.5212 12.8301 39.0948 12.0579 38.3212C11.2843 37.5462 12.8649 34.6948 12.8649 34.6948C12.8649 34.6948 15.5746 34.7448 15.6913 37.5212Z" fill="#39364F"/>
<path d="M32.9551 8.62256L38.4551 3.12256L47.2551 11.9239L41.7551 17.4239L32.9551 8.62256Z" fill="#CCD6DD"/>
<path d="M36.2543 5.32119L37.3543 4.22119L46.1543 13.0198L45.0543 14.1198L36.2543 5.32119ZM34.0557 7.52119L35.1543 6.42258L43.9543 15.2212L42.8543 16.3212L34.0557 7.52119Z" fill="#99AAB5"/>
</g>
<defs>
<clipPath id="clip0_309_2473">
<rect width="50" height="50" fill="white" transform="translate(0 0.379395)"/>
</clipPath>
</defs>
</svg>
