<svg width="21" height="21" viewBox="0 0 21 21" fill="none" xmlns="http://www.w3.org/2000/svg">
<g clip-path="url(#clip0_309_2014)">
<path d="M20.4778 8.86361L14.5255 2.73745C14.4405 2.64895 14.3385 2.57853 14.2256 2.53042C14.1127 2.48232 13.9913 2.45752 13.8685 2.45752C13.7458 2.45752 13.6244 2.48232 13.5115 2.53042C13.3986 2.57853 13.2966 2.64895 13.2116 2.73745C13.0367 2.91942 12.9391 3.162 12.9391 3.41438C12.9391 3.66675 13.0367 3.90933 13.2116 4.0913L17.5747 8.58361H1.67931C1.42932 8.58766 1.19112 8.69066 1.01694 8.87003C0.842754 9.04941 0.746791 9.29052 0.750082 9.54053C0.750082 10.0698 1.16547 10.4975 1.67931 10.4975H17.5747L13.2116 14.9898C13.0367 15.1717 12.9391 15.4143 12.9391 15.6667C12.9391 15.9191 13.0367 16.1616 13.2116 16.3436C13.2968 16.4317 13.3989 16.5018 13.5118 16.5497C13.6246 16.5975 13.746 16.6222 13.8685 16.6222C13.9911 16.6222 14.1125 16.5975 14.2253 16.5497C14.3382 16.5018 14.4403 16.4317 14.5255 16.3436L20.4778 10.2175C20.6526 10.0355 20.7503 9.7929 20.7503 9.54053C20.7503 9.28816 20.6526 9.04557 20.4778 8.86361Z" fill="#2176FF"/>
</g>
<defs>
<clipPath id="clip0_309_2014">
<rect width="20" height="20" fill="white" transform="translate(0.75 0.149902)"/>
</clipPath>
</defs>
</svg>
