<svg width="15" height="12" viewBox="0 0 15 12" fill="none" xmlns="http://www.w3.org/2000/svg">
<g clip-path="url(#clip0_309_2275)">
<path d="M14.0567 5.05633L9.89153 0.775682C9.83205 0.713837 9.76068 0.664631 9.68168 0.631018C9.60269 0.597405 9.51771 0.580078 9.43184 0.580078C9.34597 0.580078 9.26099 0.597405 9.18199 0.631018C9.103 0.664631 9.03162 0.713837 8.97215 0.775682C8.84978 0.902832 8.78143 1.07234 8.78143 1.24868C8.78143 1.42503 8.84978 1.59453 8.97215 1.72168L12.0253 4.86068H0.902253C0.727314 4.86351 0.560634 4.93548 0.438747 5.06082C0.316859 5.18616 0.249708 5.35464 0.25201 5.52933C0.25201 5.89913 0.542682 6.19798 0.902253 6.19798H12.0253L8.97215 9.33698C8.84978 9.46413 8.78143 9.63364 8.78143 9.80998C8.78143 9.98633 8.84978 10.1558 8.97215 10.283C9.03178 10.3446 9.10321 10.3935 9.18218 10.427C9.26115 10.4604 9.34606 10.4776 9.43184 10.4776C9.51762 10.4776 9.60252 10.4604 9.6815 10.427C9.76047 10.3935 9.8319 10.3446 9.89153 10.283L14.0567 6.00233C14.1791 5.87518 14.2475 5.70568 14.2475 5.52933C14.2475 5.35299 14.1791 5.18348 14.0567 5.05633Z" fill="white"/>
</g>
<defs>
<clipPath id="clip0_309_2275">
<rect width="14" height="10.75" fill="white" transform="translate(0.25 0.580078)"/>
</clipPath>
</defs>
</svg>
