<svg width="60" height="60" viewBox="0 0 60 60" fill="none" xmlns="http://www.w3.org/2000/svg">
<rect width="60" height="60" rx="30" fill="#CCE0FF"/>
<g clip-path="url(#clip0_309_3352)">
<path d="M19.2997 29.2557L25.8466 22.5164C25.9402 22.419 26.0525 22.3415 26.1768 22.2885C26.301 22.2355 26.4347 22.2083 26.5698 22.2083C26.7049 22.2083 26.8386 22.2355 26.9629 22.2885C27.0872 22.3415 27.1995 22.419 27.2931 22.5164C27.4854 22.7167 27.5928 22.9835 27.5928 23.2612C27.5928 23.5388 27.4854 23.8057 27.2931 24.006L22.4925 28.9468H39.977C40.5417 28.9468 41 29.4189 41 30.0001C41 30.5812 40.5417 31.0533 39.977 31.0533H22.4925L27.2931 35.9942C27.4854 36.1944 27.5928 36.4613 27.5928 36.7389C27.5928 37.0166 27.4854 37.2835 27.2931 37.4837C27.1993 37.5808 27.0869 37.658 26.9627 37.7108C26.8384 37.7635 26.7048 37.7907 26.5698 37.7907C26.4348 37.7907 26.3012 37.7635 26.177 37.7108C26.0527 37.658 25.9404 37.5808 25.8466 37.4837L19.2997 30.7444C19.1077 30.5442 19.0005 30.2775 19.0005 30.0001C19.0005 29.7226 19.1077 29.4559 19.2997 29.2557Z" fill="#2176FF"/>
</g>
<defs>
<clipPath id="clip0_309_3352">
<rect width="22" height="22" fill="white" transform="translate(19 19)"/>
</clipPath>
</defs>
</svg>
