<svg width="60" height="60" viewBox="0 0 60 60" fill="none" xmlns="http://www.w3.org/2000/svg">
<rect width="60" height="60" rx="30" fill="#CCE0FF"/>
<g clip-path="url(#clip0_309_3359)">
<path d="M40.7006 28.5853L34.153 21.8465C34.0595 21.7491 33.9473 21.6717 33.8231 21.6188C33.699 21.5659 33.5654 21.5386 33.4304 21.5386C33.2954 21.5386 33.1618 21.5659 33.0377 21.6188C32.9135 21.6717 32.8013 21.7491 32.7078 21.8465C32.5154 22.0467 32.408 22.3135 32.408 22.5911C32.408 22.8687 32.5154 23.1356 32.7078 23.3357L37.5072 28.2773H20.0222C19.7472 28.2817 19.4852 28.395 19.2936 28.5923C19.102 28.7896 18.9965 29.0549 19.0001 29.3299C19.0001 29.912 19.457 30.3825 20.0222 30.3825H37.5072L32.7078 35.324C32.5154 35.5242 32.408 35.791 32.408 36.0687C32.408 36.3463 32.5154 36.6131 32.7078 36.8133C32.8015 36.9102 32.9138 36.9873 33.0379 37.0399C33.1621 37.0926 33.2956 37.1197 33.4304 37.1197C33.5652 37.1197 33.6987 37.0926 33.8229 37.0399C33.947 36.9873 34.0593 36.9102 34.153 36.8133L40.7006 30.0745C40.8929 29.8743 41.0003 29.6075 41.0003 29.3299C41.0003 29.0523 40.8929 28.7854 40.7006 28.5853Z" fill="#2176FF"/>
</g>
<defs>
<clipPath id="clip0_309_3359">
<rect width="22" height="22" fill="white" transform="translate(19 19)"/>
</clipPath>
</defs>
</svg>
