<svg width="50" height="51" viewBox="0 0 50 51" fill="none" xmlns="http://www.w3.org/2000/svg">
<g clip-path="url(#clip0_309_2495)">
<path d="M42.243 13.6436L29.743 1.14362C29.2177 0.643382 28.5177 0.368316 27.7924 0.37716C27.0671 0.386004 26.3741 0.678056 25.8612 1.19095C25.3483 1.70385 25.0562 2.39694 25.0474 3.12224C25.0385 3.84753 25.3136 4.54754 25.8138 5.07279L20.4541 10.4325L32.9541 22.9325L38.3138 17.5728C38.8349 18.0938 39.5415 18.3865 40.2784 18.3865C41.0153 18.3865 41.722 18.0938 42.243 17.5728C42.764 17.0517 43.0567 16.3451 43.0567 15.6082C43.0567 14.8713 42.764 14.1647 42.243 13.6436Z" fill="#E1E8ED"/>
<path d="M27.7776 0.32959H6.94423C5.4708 0.32959 4.05773 0.914906 3.01586 1.95677C1.97399 2.99864 1.38867 4.41172 1.38867 5.88515V44.774C1.38867 46.2475 1.97399 47.6605 3.01586 48.7024C4.05773 49.7443 5.4708 50.3296 6.94423 50.3296H37.4998C38.9732 50.3296 40.3863 49.7443 41.4282 48.7024C42.47 47.6605 43.0553 46.2475 43.0553 44.774V15.6074H30.5553C29.1665 15.6074 27.7776 14.2185 27.7776 12.8296V0.32959Z" fill="#CCD6DD"/>
<path d="M27.7777 0.32959H24.9999V12.8296C24.9999 14.303 25.5852 15.7161 26.6271 16.758C27.6689 17.7998 29.082 18.3851 30.5554 18.3851H43.0554V15.6074H30.5554C29.1666 15.6074 27.7777 14.2185 27.7777 12.8296V0.32959ZM20.8332 11.4407C20.8332 11.8091 20.6869 12.1623 20.4264 12.4228C20.166 12.6833 19.8127 12.8296 19.4443 12.8296H8.33322C7.96487 12.8296 7.6116 12.6833 7.35113 12.4228C7.09067 12.1623 6.94434 11.8091 6.94434 11.4407C6.94434 11.0723 7.09067 10.7191 7.35113 10.4586C7.6116 10.1981 7.96487 10.0518 8.33322 10.0518H19.4443C19.8127 10.0518 20.166 10.1981 20.4264 10.4586C20.6869 10.7191 20.8332 11.0723 20.8332 11.4407ZM20.8332 16.9963C20.8332 17.3646 20.6869 17.7179 20.4264 17.9783C20.166 18.2388 19.8127 18.3851 19.4443 18.3851H8.33322C7.96487 18.3851 7.6116 18.2388 7.35113 17.9783C7.09067 17.7179 6.94434 17.3646 6.94434 16.9963C6.94434 16.6279 7.09067 16.2746 7.35113 16.0142C7.6116 15.7537 7.96487 15.6074 8.33322 15.6074H19.4443C19.8127 15.6074 20.166 15.7537 20.4264 16.0142C20.6869 16.2746 20.8332 16.6279 20.8332 16.9963ZM37.4999 22.5518C37.4999 22.9202 37.3536 23.2734 37.0931 23.5339C36.8326 23.7944 36.4794 23.9407 36.111 23.9407H8.33322C7.96487 23.9407 7.6116 23.7944 7.35113 23.5339C7.09067 23.2734 6.94434 22.9202 6.94434 22.5518C6.94434 22.1835 7.09067 21.8302 7.35113 21.5697C7.6116 21.3093 7.96487 21.1629 8.33322 21.1629H36.111C36.4794 21.1629 36.8326 21.3093 37.0931 21.5697C37.3536 21.8302 37.4999 22.1835 37.4999 22.5518ZM37.4999 28.1074C37.4999 28.4757 37.3536 28.829 37.0931 29.0895C36.8326 29.3499 36.4794 29.4963 36.111 29.4963H8.33322C7.96487 29.4963 7.6116 29.3499 7.35113 29.0895C7.09067 28.829 6.94434 28.4757 6.94434 28.1074C6.94434 27.739 7.09067 27.3857 7.35113 27.1253C7.6116 26.8648 7.96487 26.7185 8.33322 26.7185H36.111C36.4794 26.7185 36.8326 26.8648 37.0931 27.1253C37.3536 27.3857 37.4999 27.739 37.4999 28.1074ZM37.4999 33.6629C37.4999 34.0313 37.3536 34.3846 37.0931 34.645C36.8326 34.9055 36.4794 35.0518 36.111 35.0518H8.33322C7.96487 35.0518 7.6116 34.9055 7.35113 34.645C7.09067 34.3846 6.94434 34.0313 6.94434 33.6629C6.94434 33.2946 7.09067 32.9413 7.35113 32.6808C7.6116 32.4204 7.96487 32.274 8.33322 32.274H36.111C36.4794 32.274 36.8326 32.4204 37.0931 32.6808C37.3536 32.9413 37.4999 33.2946 37.4999 33.6629ZM37.4999 39.2185C37.4999 39.5868 37.3536 39.9401 37.0931 40.2006C36.8326 40.461 36.4794 40.6074 36.111 40.6074H8.33322C7.96487 40.6074 7.6116 40.461 7.35113 40.2006C7.09067 39.9401 6.94434 39.5868 6.94434 39.2185C6.94434 38.8501 7.09067 38.4969 7.35113 38.2364C7.6116 37.9759 7.96487 37.8296 8.33322 37.8296H36.111C36.4794 37.8296 36.8326 37.9759 37.0931 38.2364C37.3536 38.4969 37.4999 38.8501 37.4999 39.2185Z" fill="#99AAB5"/>
<path d="M43.0553 26.7185C43.0553 26.7185 34.8525 26.7157 34.8123 26.7185C34.4081 26.7185 33.5484 26.9602 33.0692 27.5602L29.8359 31.6282C28.9414 32.7519 28.9414 34.5713 29.8359 35.6977L33.0692 39.7657C33.5484 40.3657 34.4081 40.6074 34.8123 40.6074C34.8386 40.6102 39.7386 40.6074 43.0553 40.6074V26.7185Z" fill="#66757F"/>
<path d="M45.8331 26.7185C45.8331 26.7185 34.6442 26.7157 34.6053 26.7185C34.2011 26.7185 33.3414 26.9116 32.8623 27.3921L29.6289 30.6449C29.1998 31.078 28.959 31.663 28.959 32.2727C28.959 32.8824 29.1998 33.4674 29.6289 33.9005L32.8623 37.1532C33.3414 37.6338 34.2011 37.8296 34.6053 37.8296C34.6442 37.8324 45.8331 37.8296 45.8331 37.8296C47.3664 37.8296 48.6109 36.5838 48.6109 35.0505V29.4963C48.6109 28.7596 48.3182 28.053 47.7973 27.5321C47.2763 27.0112 46.5698 26.7185 45.8331 26.7185Z" fill="#744EAA"/>
</g>
<defs>
<clipPath id="clip0_309_2495">
<rect width="50" height="50" fill="white" transform="translate(0 0.32959)"/>
</clipPath>
</defs>
</svg>
