<svg width="50" height="51" viewBox="0 0 50 51" fill="none" xmlns="http://www.w3.org/2000/svg">
<g clip-path="url(#clip0_309_2487)">
<path d="M47.5652 9.73255L43.7568 13.5423C43.7568 13.5423 41.2166 14.8117 38.6777 12.2714C36.1374 9.73255 37.4068 7.19227 37.4068 7.19227L41.2166 3.38255C42.4874 2.11311 40.961 0.949219 39.8152 0.949219C38.4776 0.949036 37.153 1.21234 35.9172 1.72409C34.6814 2.23583 33.5585 2.98601 32.6126 3.93176C31.6667 4.87752 30.9164 6.00034 30.4045 7.2361C29.8925 8.47185 29.6291 9.79635 29.6291 11.1339C29.6291 11.9242 29.7291 12.6909 29.8985 13.4298L21.2888 22.0395L28.9068 29.6576L37.5166 21.0492C38.2697 21.2253 39.0403 21.3157 39.8138 21.3187C41.1513 21.3187 42.4756 21.0552 43.7113 20.5434C44.947 20.0316 46.0697 19.2814 47.0155 18.3356C47.9612 17.3899 48.7114 16.2671 49.2232 15.0315C49.7351 13.7958 49.9985 12.4714 49.9985 11.1339C49.9999 9.98116 48.8346 8.46311 47.5652 9.73255ZM21.1388 22.2881L4.20961 39.2159C3.21247 40.2139 2.65234 41.5669 2.65234 42.9777C2.65234 44.3885 3.21247 45.7415 4.20961 46.7395C5.2076 47.7366 6.56065 48.2968 7.97142 48.2968C9.38219 48.2968 10.7352 47.7366 11.7332 46.7395L28.6596 29.8117L21.1388 22.2881ZM8.00406 45.1687C7.73375 45.1687 7.4661 45.1154 7.21637 45.012C6.96664 44.9085 6.73973 44.7569 6.5486 44.5658C6.35746 44.3747 6.20585 44.1477 6.10241 43.898C5.99896 43.6483 5.94572 43.3806 5.94572 43.1103C5.94572 42.84 5.99896 42.5724 6.10241 42.3226C6.20585 42.0729 6.35746 41.846 6.5486 41.6549C6.73973 41.4637 6.96664 41.3121 7.21637 41.2087C7.4661 41.1052 7.73375 41.052 8.00406 41.052C8.54996 41.052 9.07351 41.2689 9.45952 41.6549C9.84553 42.0409 10.0624 42.5644 10.0624 43.1103C10.0624 43.6562 9.84553 44.1798 9.45952 44.5658C9.07351 44.9518 8.54996 45.1687 8.00406 45.1687Z" fill="#8899A6"/>
<path d="M42.8197 47.1702C44.4392 48.7897 47.0169 48.8661 48.5433 47.3383C50.0711 45.8105 49.9947 43.2341 48.3753 41.6147L16.0628 9.30216C14.4419 7.68133 11.8669 7.60633 10.3392 9.1341C8.81139 10.6619 8.88778 13.2383 10.5072 14.8577L42.8197 47.1702Z" fill="#F4900C"/>
<path d="M29.7839 2.18938C29.7839 2.18938 21.4506 -1.97729 14.5062 4.96715L4.78395 14.6894C4.78395 14.6894 3.39506 13.3005 2.00617 14.6894L0.617284 16.0783C0.617284 16.0783 -0.771605 17.4672 0.617284 18.856L6.17284 24.4116C6.17284 24.4116 7.56173 25.8005 8.95062 24.4116L10.3395 23.0227C10.3395 23.0227 11.7284 21.6338 10.3395 20.2449L10.2312 20.1366C11.3006 19.1047 12.902 18.0533 14.5062 18.856L20.0617 13.3005C20.0617 13.3005 18.6728 9.13382 21.4506 6.35604C24.2284 3.57827 25.6173 3.57827 28.3951 3.57827C31.1728 3.57827 29.7839 2.18938 29.7839 2.18938Z" fill="#66757F"/>
</g>
<defs>
<clipPath id="clip0_309_2487">
<rect width="50" height="50" fill="white" transform="translate(0 0.949219)"/>
</clipPath>
</defs>
</svg>
