<svg width="141" height="141" viewBox="0 0 141 141" fill="none" xmlns="http://www.w3.org/2000/svg">
<path d="M26.5016 33.5748C30.0336 33.5748 32.8968 30.7116 32.8968 27.1796C32.8968 23.6477 30.0336 20.7844 26.5016 20.7844C22.9697 20.7844 20.1064 23.6477 20.1064 27.1796C20.1064 30.7116 22.9697 33.5748 26.5016 33.5748Z" fill="#F0F0F0"/>
<path d="M29.4414 27.3757C29.1633 27.4153 28.8823 27.4313 28.6014 27.4233C28.075 27.4233 27.3414 27.4457 26.5098 27.4485H26.437V26.9613C26.437 26.0345 26.437 25.1973 26.4594 24.5897C26.4529 24.2614 26.4697 23.9329 26.5098 23.6069C26.5519 23.9328 26.5697 24.2613 26.563 24.5897C26.563 25.1973 26.5826 26.0345 26.5826 26.9613V27.3757L26.5098 27.3001C27.3498 27.3001 28.075 27.3001 28.6014 27.3253C28.8823 27.3183 29.1633 27.3352 29.4414 27.3757Z" fill="#E0E0E0"/>
<path d="M26.5098 21.8345C26.5518 21.8345 26.5826 22.0753 26.5826 22.3721C26.5826 22.6689 26.5518 22.9097 26.5098 22.9097C26.4678 22.9097 26.437 22.6689 26.437 22.3721C26.437 22.0753 26.4818 21.8345 26.5098 21.8345Z" fill="#E0E0E0"/>
<path d="M29.4361 22.6969C29.4641 22.7249 29.3185 22.9153 29.1141 23.1225C28.9097 23.3297 28.7165 23.4753 28.6857 23.4473C28.6549 23.4193 28.8033 23.2261 29.0105 23.0189C29.2177 22.8117 29.4081 22.6689 29.4361 22.6969Z" fill="#E0E0E0"/>
<path d="M31.1382 24.5589C31.1578 24.5953 30.9618 24.7297 30.7154 24.8781C30.469 25.0265 30.259 25.1413 30.2338 25.1077C30.2086 25.0741 30.385 24.9089 30.6398 24.7549C30.8946 24.6009 31.1214 24.5225 31.1382 24.5589Z" fill="#E0E0E0"/>
<path d="M32.1382 27.3197C31.901 27.3925 31.6516 27.4172 31.4046 27.3925C31.1586 27.4171 30.9102 27.3923 30.6738 27.3197C30.9105 27.2487 31.1586 27.224 31.4046 27.2469C31.6516 27.2238 31.9006 27.2486 32.1382 27.3197Z" fill="#E0E0E0"/>
<path d="M21.9799 27.2216C21.7571 27.2943 21.5214 27.3191 21.2883 27.2944C21.0552 27.3186 20.8196 27.2938 20.5967 27.2216C20.8199 27.1507 21.0552 27.126 21.2883 27.1488C21.5214 27.1257 21.7567 27.1504 21.9799 27.2216Z" fill="#E0E0E0"/>
<path d="M22.6994 29.2795C22.7246 29.3103 22.5006 29.5315 22.1954 29.7779C21.8902 30.0243 21.6354 30.1951 21.6018 30.1615C21.5682 30.1279 21.8034 29.9067 22.1058 29.6631C22.2747 29.4952 22.4769 29.3645 22.6994 29.2795Z" fill="#E0E0E0"/>
<path d="M24.4719 30.87C24.3958 31.0961 24.2843 31.3088 24.1415 31.5C23.9399 31.8332 23.7747 32.1048 23.7383 32.0852C23.7758 31.8452 23.872 31.6182 24.0183 31.4244C24.2227 31.0856 24.4383 30.8448 24.4719 30.87Z" fill="#E0E0E0"/>
<path d="M26.5099 32.9197C26.4387 32.6821 26.414 32.4331 26.4371 32.1861C26.4142 31.9401 26.4389 31.692 26.5099 31.4553C26.5825 31.6917 26.6072 31.9401 26.5827 32.1861C26.6074 32.4331 26.5826 32.6825 26.5099 32.9197Z" fill="#E0E0E0"/>
<path d="M29.6796 31.9425C29.4415 31.8686 29.2265 31.7346 29.0552 31.5533C28.854 31.4082 28.6915 31.2159 28.582 30.9933C28.6156 30.9653 28.862 31.1893 29.142 31.4497C29.422 31.7101 29.702 31.9089 29.6796 31.9425Z" fill="#E0E0E0"/>
<path d="M31.161 30.3493C31.133 30.3773 30.9062 30.1953 30.6542 29.9433C30.4022 29.6913 30.2202 29.4645 30.251 29.4365C30.2818 29.4085 30.5058 29.5877 30.7578 29.8397C31.0098 30.0917 31.189 30.3185 31.161 30.3493Z" fill="#E0E0E0"/>
<path d="M22.6319 25.2532C22.6039 25.2812 22.4023 25.1244 22.1811 24.906C21.9599 24.6876 21.8059 24.4832 21.8339 24.4552C21.8619 24.4272 22.0635 24.5812 22.2847 24.8024C22.5059 25.0236 22.6599 25.2252 22.6319 25.2532Z" fill="#E0E0E0"/>
<path d="M24.4606 23.3269C24.4326 23.3549 24.2338 23.2037 24.0182 22.9881C23.8026 22.7725 23.6486 22.5765 23.6766 22.5401C23.7046 22.5037 23.9034 22.6633 24.1218 22.8789C24.3402 23.0945 24.4886 23.2989 24.4606 23.3269Z" fill="#E0E0E0"/>
<path d="M39.8183 125.236C43.6599 122.996 44.8723 118.35 45.0767 114.103C45.1103 113.392 45.2475 112.652 44.9619 112.006C44.6763 111.359 43.9287 110.869 43.2819 111.115C42.7219 111.32 42.4419 111.91 42.1199 112.392C41.6732 113.034 41.0538 113.536 40.3335 113.84C39.8631 114.036 39.2947 114.134 38.8691 113.84C38.2867 113.453 38.2839 112.605 38.3483 111.902C38.464 110.595 38.5797 109.289 38.6955 107.982C38.7951 107.283 38.7809 106.571 38.6535 105.876C38.5883 105.531 38.4408 105.206 38.2234 104.93C38.006 104.653 37.7251 104.434 37.4047 104.289C36.7495 104.048 35.8899 104.364 35.6939 105.042C35.6433 105.331 35.6124 105.623 35.6015 105.916C35.5937 106.062 35.5431 106.202 35.456 106.32C35.3688 106.437 35.249 106.527 35.1115 106.576C34.8315 106.635 34.5515 106.414 34.3667 106.19C33.6975 105.42 33.2803 104.465 32.8939 103.519C32.554 102.554 32.101 101.633 31.5443 100.775C30.9479 99.9349 30.0883 99.2573 29.0859 99.1173C28.0835 98.9773 26.9579 99.5121 26.6219 100.478C26.2859 101.444 26.7815 102.502 27.3471 103.356C28.1824 104.625 29.1973 105.765 30.3599 106.742C30.5885 106.895 30.7629 107.116 30.8583 107.374C30.9703 107.856 30.4887 108.284 30.0183 108.399C29.4807 108.531 28.9151 108.43 28.3635 108.45C27.8119 108.469 27.1959 108.662 26.9439 109.164C26.5967 109.861 27.1371 110.662 27.6887 111.205C28.7877 112.286 30.0644 113.171 31.4631 113.82C31.9834 114.011 32.4645 114.296 32.8827 114.66C33.2691 115.058 32.5159 116.292 32.2247 116.766C31.9335 117.239 32.2247 116.766 31.6899 116.623C31.1551 116.48 30.6959 116.141 30.1947 115.906C29.2595 115.461 28.0051 115.424 27.3191 116.208C27.105 116.482 26.9574 116.801 26.8879 117.141C26.8184 117.481 26.829 117.833 26.9187 118.168C27.1007 118.833 27.4149 119.454 27.8427 119.994C29.2222 121.961 31.0998 123.525 33.2831 124.527C35.4615 125.488 37.5223 125.871 39.8183 125.238" fill="#F0F0F0"/>
<path d="M39.6141 128.38C39.5784 126.403 39.3533 124.434 38.9421 122.5C38.4293 120.131 37.7805 117.794 36.9989 115.5L36.3941 113.694C36.1953 113.1 35.9965 112.512 35.7669 111.95C35.325 110.871 34.824 109.818 34.2661 108.794C33.7397 107.811 33.2049 106.901 32.6981 106.05C32.1913 105.199 31.7013 104.42 31.2253 103.729C30.4837 102.631 29.656 101.593 28.7501 100.626C28.4281 100.285 28.1705 100.027 27.9941 99.8537L27.7897 99.6605L27.7197 99.5989C27.7382 99.624 27.7588 99.6474 27.7813 99.6689L27.9745 99.8733C28.1453 100.052 28.3973 100.313 28.7137 100.66C29.6054 101.638 30.4233 102.681 31.1609 103.779C31.6313 104.476 32.1129 105.258 32.6169 106.109C33.1209 106.96 33.6501 107.87 34.1737 108.85C34.7263 109.872 35.2226 110.924 35.6605 112C35.8873 112.56 36.0833 113.142 36.2821 113.736L36.8869 115.542C37.6689 117.828 38.3232 120.156 38.8469 122.514C39.2648 124.448 39.4991 126.416 39.5469 128.394" fill="#E0E0E0"/>
<path d="M35.7305 111.944C35.7719 111.849 35.8028 111.749 35.8229 111.647C35.8761 111.457 35.9433 111.177 36.0217 110.832C36.1785 110.141 36.3633 109.178 36.5621 108.114C36.7609 107.05 36.9597 106.092 37.1221 105.406C37.2061 105.062 37.2761 104.782 37.3265 104.591C37.3578 104.493 37.3793 104.391 37.3909 104.289C37.3437 104.378 37.3052 104.472 37.2761 104.569C37.2117 104.756 37.1277 105.031 37.0353 105.372C36.8449 106.058 36.6321 107.016 36.4333 108.08C36.2345 109.144 36.0637 110.079 35.9293 110.804C35.8677 111.132 35.8145 111.406 35.7725 111.628C35.7474 111.731 35.7333 111.837 35.7305 111.944Z" fill="#E0E0E0"/>
<path d="M26.8267 109.511C26.9438 109.545 27.0637 109.57 27.1851 109.584C27.4147 109.623 27.7451 109.679 28.1595 109.76C28.9799 109.917 30.1195 110.174 31.3347 110.513C32.5499 110.852 33.6643 111.208 34.4539 111.488C34.8487 111.625 35.1651 111.745 35.3863 111.826C35.4971 111.876 35.6124 111.916 35.7307 111.944C35.6271 111.878 35.5174 111.823 35.4031 111.779C35.1903 111.684 34.8767 111.549 34.4847 111.401C33.7035 111.098 32.6031 110.729 31.3711 110.387C30.3181 110.094 29.2509 109.855 28.1735 109.67C27.7619 109.598 27.4231 109.556 27.1907 109.533C27.0702 109.515 26.9484 109.507 26.8267 109.511Z" fill="#E0E0E0"/>
<path d="M38.8442 122.315C38.8722 122.283 38.8966 122.247 38.917 122.209L39.0962 121.895C39.253 121.615 39.4686 121.218 39.729 120.719C40.2498 119.72 40.9274 118.314 41.6526 116.754C42.3778 115.195 43.0526 113.786 43.5426 112.778L44.1502 111.58L44.3126 111.255C44.3318 111.217 44.3477 111.178 44.3602 111.138C44.3602 111.138 44.3322 111.171 44.2874 111.241C44.2426 111.311 44.1782 111.432 44.1082 111.555C43.9514 111.835 43.7358 112.232 43.4754 112.731C42.9518 113.733 42.277 115.136 41.549 116.696C40.821 118.255 40.163 119.664 39.6618 120.674L39.0682 121.867L38.9058 122.195C38.8805 122.232 38.8598 122.273 38.8442 122.315Z" fill="#E0E0E0"/>
<path d="M27.1455 117.46C27.1816 117.485 27.2212 117.505 27.2631 117.519L27.6019 117.664L28.8535 118.188C29.9119 118.63 31.3735 119.255 32.9695 119.949C34.5655 120.644 36.0495 121.26 37.1023 121.68C37.6371 121.89 38.0711 122.055 38.3707 122.164L38.7207 122.284C38.7602 122.301 38.8016 122.313 38.8439 122.321C38.8439 122.321 38.8047 122.296 38.7291 122.262L38.3903 122.116L37.1499 121.587C36.0915 121.145 34.6299 120.518 33.0311 119.823C31.4323 119.129 29.9511 118.516 28.8983 118.096C28.3663 117.886 27.9323 117.72 27.6299 117.611L27.2827 117.488C27.2381 117.474 27.1921 117.464 27.1455 117.46Z" fill="#E0E0E0"/>
<path d="M122.189 116.105H120.475V128.268H122.189V116.105Z" fill="#E0E0E0"/>
<path d="M116.057 116.105H114.343V128.268H116.057V116.105Z" fill="#E0E0E0"/>
<path d="M100.665 116.105H98.9517V128.268H100.665V116.105Z" fill="#E0E0E0"/>
<path d="M95.3928 116.105H93.6792V128.268H95.3928V116.105Z" fill="#E0E0E0"/>
<path d="M99.2623 95.2029C99.2623 95.2029 94.5835 93.8505 93.1835 95.8021C91.7835 97.7537 91.6323 116.556 91.6323 116.556C91.6323 116.556 100.693 116.721 100.872 116.556C101.052 116.391 99.2623 95.2029 99.2623 95.2029Z" fill="#EBEBEB"/>
<path d="M125.818 114.251L125.403 78.5651C125.123 74.2559 121.984 73.6315 121.528 73.3711C119.607 72.2819 101.29 71.5903 99.7833 75.8127C98.2769 80.0352 99.7833 113.26 99.7833 113.26L125.818 114.251Z" fill="#EBEBEB"/>
<path d="M125.806 113.26C125.806 113.26 121.192 106.453 115.771 106.232C110.35 106.011 98.6633 106.232 98.6633 106.232C98.6633 106.232 93.4833 106.428 93.1221 112.843V116.62H125.806V113.26Z" fill="#EBEBEB"/>
<path d="M125.669 95.2309C125.669 95.2309 117.905 93.2205 116.502 95.8637C115.099 98.5069 114.85 116.71 114.85 116.71C114.85 116.71 126.05 117.121 126.086 116.651C126.123 116.18 125.669 95.2309 125.669 95.2309Z" fill="#F0F0F0"/>
<path d="M126.086 95.1441C126.086 95.1441 120.96 93.8253 119.56 95.7769C118.16 97.7285 117.79 116.799 117.79 116.799C117.79 116.799 125.972 117.04 126.14 116.878C126.308 116.715 126.086 95.1441 126.086 95.1441Z" fill="#E0E0E0"/>
<path d="M122.091 94.6905C122.088 94.6607 122.088 94.6307 122.091 94.6009C122.091 94.5337 122.077 94.4441 122.066 94.3349C122.049 94.0913 122.024 93.7497 121.99 93.3129C121.931 92.4169 121.847 91.1345 121.741 89.5525C121.634 87.9705 121.52 86.0721 121.388 83.9777C121.324 82.9277 121.254 81.8245 121.184 80.6821C121.114 79.5397 121.102 78.3441 120.761 77.1905C120.595 76.6212 120.308 76.0942 119.921 75.6449C119.542 75.2115 119.104 74.8343 118.619 74.5249C117.698 73.934 116.671 73.527 115.595 73.3265C115.092 73.2398 114.584 73.1911 114.074 73.1809L112.627 73.1249C111.694 73.0941 110.824 73.0773 110.028 73.0717C108.438 73.0717 107.153 73.0913 106.265 73.1417C105.82 73.1669 105.476 73.1921 105.243 73.2145L104.977 73.2369H104.888C104.917 73.2275 104.947 73.2218 104.977 73.2201L105.24 73.1837C105.473 73.1501 105.817 73.1165 106.26 73.0829C107.147 73.0157 108.435 72.9653 110.028 72.9653C110.824 72.9653 111.708 72.9653 112.632 73.0017L114.08 73.0493C114.596 73.059 115.111 73.1067 115.62 73.1921C116.716 73.3917 117.762 73.8025 118.7 74.4017C119.197 74.7195 119.646 75.1071 120.033 75.5525C120.432 76.0161 120.725 76.5606 120.892 77.1485C121.242 78.3329 121.234 79.5369 121.318 80.6737C121.402 81.8105 121.45 82.9137 121.514 83.9693C121.634 86.0665 121.744 87.9565 121.836 89.5469C121.928 91.1373 121.99 92.4113 122.04 93.3101C122.06 93.7469 122.077 94.0885 122.088 94.3321C122.088 94.4441 122.088 94.5309 122.088 94.6121C122.093 94.638 122.094 94.6644 122.091 94.6905Z" fill="#E0E0E0"/>
<path d="M122.34 79.2623C122.141 79.3455 121.931 79.3965 121.716 79.4135C121.51 79.4764 121.295 79.5067 121.08 79.5031C121.458 79.2759 121.905 79.1906 122.34 79.2623Z" fill="#E0E0E0"/>
<path d="M123.04 80.1108C122.731 80.1335 122.421 80.1194 122.116 80.0688C121.806 80.0646 121.497 80.0271 121.195 79.9568C121.813 79.86 122.446 79.9128 123.04 80.1108Z" fill="#E0E0E0"/>
<path d="M122.6 86.4863C122.6 86.5283 122.354 86.5451 122.06 86.5283C121.766 86.5115 121.525 86.4639 121.528 86.4247C121.531 86.3855 121.771 86.3659 122.068 86.3827C122.365 86.3995 122.6 86.4471 122.6 86.4863Z" fill="#E0E0E0"/>
<path d="M114.57 84.0447C114.392 84.1189 114.244 84.2511 114.15 84.4199C114.104 84.5052 114.077 84.5993 114.071 84.6959C114.065 84.7926 114.079 84.8894 114.114 84.9799C114.164 85.0844 114.244 85.1717 114.343 85.2305C114.443 85.2894 114.558 85.3172 114.674 85.3103C114.791 85.315 114.907 85.2844 115.007 85.2225C115.107 85.1606 115.186 85.0703 115.234 84.9631C115.266 84.8713 115.277 84.7736 115.267 84.677C115.258 84.5803 115.227 84.4869 115.178 84.4031C115.079 84.2443 114.932 84.1215 114.758 84.0531C114.758 84.0531 114.817 84.0363 114.92 84.0699C115.063 84.1231 115.185 84.2214 115.267 84.3499C115.332 84.446 115.373 84.5553 115.389 84.6697C115.405 84.7842 115.395 84.9007 115.36 85.0107C115.301 85.1419 115.206 85.2535 115.086 85.3326C114.966 85.4117 114.826 85.455 114.682 85.4573C114.539 85.4597 114.397 85.421 114.275 85.3459C114.152 85.2708 114.054 85.1623 113.991 85.0331C113.952 84.9241 113.939 84.8079 113.951 84.693C113.964 84.5781 114.002 84.4676 114.063 84.3695C114.142 84.2414 114.262 84.143 114.402 84.0895C114.511 84.0307 114.57 84.0391 114.57 84.0447Z" fill="#E0E0E0"/>
<path d="M115.27 83.8797C115.122 83.9575 114.958 83.9988 114.791 84.0001C114.385 84.0421 113.975 83.9943 113.59 83.8601C113.209 83.7254 112.863 83.5083 112.576 83.2245C112.45 83.1169 112.349 82.9819 112.282 82.8297C112.302 82.8129 112.419 82.9585 112.646 83.1489C112.94 83.3971 113.276 83.5914 113.637 83.7229C113.997 83.8508 114.376 83.9134 114.757 83.9077C114.927 83.8878 115.099 83.8784 115.27 83.8797Z" fill="#E0E0E0"/>
<path d="M113.523 88.5584C113.443 88.388 113.388 88.2069 113.36 88.0208C113.251 87.5731 113.239 87.107 113.327 86.6545C113.378 86.4256 113.476 86.21 113.615 86.0214C113.755 85.8329 113.932 85.6756 114.136 85.5597C114.303 85.4568 114.503 85.4209 114.696 85.4588C114.519 85.5014 114.348 85.5653 114.186 85.6493C113.821 85.8897 113.564 86.2619 113.467 86.6881C113.388 87.1222 113.388 87.5671 113.467 88.0013C113.507 88.1842 113.526 88.3712 113.523 88.5584Z" fill="#E0E0E0"/>
<path d="M116.774 87.0099C116.634 87.0097 116.498 86.972 116.379 86.9007C116.08 86.7501 115.824 86.5267 115.634 86.2511C115.444 85.9761 115.327 85.6571 115.295 85.3243C115.272 85.1872 115.284 85.0464 115.332 84.9155C115.364 85.045 115.386 85.1771 115.396 85.3103C115.455 85.6175 115.577 85.9092 115.754 86.1671C115.932 86.4258 116.162 86.6442 116.429 86.8083C116.634 86.9399 116.779 86.9847 116.774 87.0099Z" fill="#E0E0E0"/>
<path d="M105.929 84.0447C105.756 84.117 105.612 84.2451 105.52 84.4087C105.474 84.4938 105.447 84.5878 105.44 84.6844C105.433 84.7811 105.447 84.878 105.481 84.9687C105.536 85.0699 105.618 85.1542 105.718 85.2123C105.817 85.2704 105.931 85.3002 106.046 85.2985C106.162 85.2968 106.274 85.2636 106.372 85.2025C106.47 85.1414 106.549 85.0548 106.601 84.9519C106.632 84.8599 106.643 84.7624 106.634 84.6659C106.624 84.5693 106.594 84.4759 106.545 84.3919C106.446 84.232 106.298 84.1091 106.122 84.0419C106.177 84.0289 106.234 84.0348 106.285 84.0587C106.428 84.1111 106.55 84.2096 106.632 84.3387C106.697 84.4345 106.739 84.5439 106.755 84.6584C106.771 84.7729 106.76 84.8896 106.724 84.9995C106.665 85.1299 106.57 85.2408 106.451 85.3193C106.331 85.3979 106.191 85.4408 106.048 85.4432C105.905 85.4455 105.764 85.4072 105.642 85.3326C105.52 85.258 105.421 85.1503 105.358 85.0219C105.319 84.9131 105.305 84.7967 105.318 84.6817C105.33 84.5667 105.369 84.456 105.431 84.3583C105.509 84.2305 105.627 84.1321 105.767 84.0783C105.816 84.0493 105.873 84.0375 105.929 84.0447Z" fill="#E0E0E0"/>
<path d="M106.621 83.8797C106.473 83.9575 106.309 83.9988 106.142 84.0001C105.741 84.036 105.337 83.9844 104.958 83.8489C104.577 83.7148 104.23 83.4977 103.944 83.2133C103.817 83.1057 103.717 82.9707 103.65 82.8185C103.67 82.8017 103.787 82.9473 104.014 83.1377C104.308 83.3859 104.643 83.5802 105.005 83.7117C105.364 83.8396 105.744 83.9022 106.125 83.8965C106.29 83.8809 106.455 83.8753 106.621 83.8797Z" fill="#E0E0E0"/>
<path d="M104.882 88.5585C104.801 88.3886 104.746 88.2073 104.719 88.0209C104.609 87.5735 104.596 87.1073 104.683 86.6545C104.734 86.4254 104.833 86.2096 104.973 86.0211C105.113 85.8325 105.291 85.6753 105.495 85.5597C105.662 85.4564 105.862 85.4204 106.055 85.4589C105.879 85.5018 105.709 85.5658 105.548 85.6493C105.182 85.8887 104.924 86.2614 104.829 86.6881C104.75 87.1223 104.75 87.5671 104.829 88.0013C104.867 88.1845 104.885 88.3714 104.882 88.5585Z" fill="#E0E0E0"/>
<path d="M108.13 87.0099C107.992 87.0095 107.857 86.9717 107.738 86.9007C107.44 86.75 107.184 86.5267 106.994 86.2513C106.804 85.9758 106.686 85.6571 106.652 85.3243C106.627 85.1871 106.64 85.0455 106.691 84.9155C106.724 85.045 106.745 85.1771 106.755 85.3103C106.814 85.6174 106.935 85.9092 107.111 86.1671C107.29 86.4248 107.519 86.643 107.786 86.8083C107.99 86.9399 108.139 86.9847 108.13 87.0099Z" fill="#E0E0E0"/>
<path d="M99.436 94.6091C99.4467 94.762 99.4467 94.9154 99.436 95.0683C99.436 95.3875 99.422 95.8047 99.4108 96.3115C99.3884 97.3615 99.3548 98.8119 99.3352 100.416C99.3156 102.021 99.31 103.46 99.31 104.521C99.31 105.028 99.31 105.445 99.31 105.764C99.3169 105.918 99.3103 106.071 99.2904 106.224C99.2649 106.073 99.2527 105.92 99.254 105.767C99.24 105.473 99.226 105.048 99.2148 104.521C99.1896 103.471 99.1784 102.018 99.198 100.414C99.2176 98.8091 99.268 97.3587 99.3156 96.3087C99.3408 95.7823 99.366 95.3567 99.3884 95.0655C99.3899 94.9122 99.4058 94.7594 99.436 94.6091Z" fill="#E0E0E0"/>
<path d="M115.55 106.28H115.472H115.245H114.374H111.157L106.397 106.257L103.597 106.238C102.622 106.238 101.614 106.238 100.59 106.319C99.5912 106.384 98.6047 106.572 97.6524 106.879C96.7683 107.169 95.9426 107.614 95.2136 108.192C94.8766 108.462 94.5705 108.768 94.3008 109.105C94.1695 109.265 94.0489 109.433 93.9396 109.609C93.8276 109.78 93.7268 109.953 93.6344 110.127C93.2927 110.776 93.0457 111.471 92.9008 112.19C92.6987 113.238 92.645 114.309 92.7412 115.371C92.772 115.746 92.8056 116.04 92.8308 116.236L92.856 116.463C92.856 116.514 92.856 116.539 92.856 116.539C92.856 116.539 92.856 116.514 92.8364 116.463C92.8168 116.413 92.8112 116.332 92.7944 116.242C92.7608 116.046 92.7188 115.752 92.6796 115.377C92.5615 114.308 92.6002 113.228 92.7944 112.171C92.9333 111.439 93.1786 110.732 93.5224 110.071C93.6154 109.889 93.7182 109.712 93.8304 109.542C93.9412 109.362 94.0627 109.189 94.1944 109.024C94.4685 108.678 94.7793 108.364 95.1212 108.086C95.8627 107.496 96.7025 107.042 97.602 106.744C98.5633 106.428 99.5603 106.232 100.57 106.162C101.606 106.075 102.617 106.078 103.591 106.084L106.391 106.112L111.151 106.165L114.357 106.212L115.228 106.232H115.455L115.55 106.28Z" fill="#E0E0E0"/>
<path d="M124.482 128.268C124.482 128.31 101.472 128.341 73.0908 128.341C44.71 128.341 21.6968 128.31 21.6968 128.268C21.6968 128.226 44.7016 128.195 73.0908 128.195C101.48 128.195 124.482 128.229 124.482 128.268Z" fill="#39364F"/>
<path d="M53.1885 75.2134C53.1885 75.2554 51.3629 75.2862 49.1089 75.2862C46.8549 75.2862 45.0293 75.2554 45.0293 75.2134C45.0293 75.1714 46.8549 75.1406 49.1089 75.1406C51.3629 75.1406 53.1885 75.1798 53.1885 75.2134Z" fill="#39364F"/>
<path d="M53.0401 76.2663C53.0401 76.3055 51.2481 76.3391 49.0333 76.3391C46.8185 76.3391 45.0293 76.3055 45.0293 76.2663C45.0293 76.2271 46.8213 76.1907 49.0333 76.1907C51.2453 76.1907 53.0401 76.2243 53.0401 76.2663Z" fill="#39364F"/>
<path d="M53.0401 77.3162C53.0401 77.3554 51.2481 77.389 49.0333 77.389C46.8185 77.389 45.0293 77.3554 45.0293 77.3162C45.0293 77.277 46.8213 77.2434 49.0333 77.2434C51.2453 77.2434 53.0401 77.2742 53.0401 77.3162Z" fill="#39364F"/>
<path d="M53.0401 78.3663C53.0401 78.4055 51.2481 78.4391 49.0333 78.4391C46.8185 78.4391 45.0293 78.4055 45.0293 78.3663C45.0293 78.3271 46.8213 78.2935 49.0333 78.2935C51.2453 78.2935 53.0401 78.3243 53.0401 78.3663Z" fill="#39364F"/>
<path d="M53.0401 79.4163C53.0401 79.4555 51.2481 79.4891 49.0333 79.4891C46.8185 79.4891 45.0293 79.4555 45.0293 79.4163C45.0293 79.3771 46.8213 79.3435 49.0333 79.3435C51.2453 79.3435 53.0401 79.3799 53.0401 79.4163Z" fill="#39364F"/>
<path d="M48.9351 80.4662C48.2845 80.5386 47.6294 80.5629 46.9751 80.539C46.3209 80.563 45.6658 80.5387 45.0151 80.4662C45.6657 80.3921 46.3209 80.3678 46.9751 80.3934C47.6294 80.3679 48.2846 80.3922 48.9351 80.4662Z" fill="#39364F"/>
<path d="M51.2199 74.0599C51.2199 74.1019 49.8199 74.1327 48.1119 74.1327C46.4039 74.1327 45.0039 74.1019 45.0039 74.0599C45.0039 74.0179 46.4039 73.9871 48.1119 73.9871C49.8199 73.9871 51.2199 74.0263 51.2199 74.0599Z" fill="#2176FF"/>
<path d="M55.3498 83.0843C55.3498 83.0843 55.3498 83.0059 55.3498 82.8603C55.3498 82.7147 55.3498 82.4991 55.3498 82.2247C55.3498 81.6647 55.3498 80.8555 55.333 79.8251C55.333 77.7615 55.3162 74.8215 55.3022 71.2851L55.3638 71.3467H42.467L42.537 71.2767V74.4407C42.537 75.4795 42.537 76.4959 42.537 77.4843C42.537 79.4639 42.537 81.3399 42.537 83.0843L42.4726 83.0199L51.7938 83.0535L54.4286 83.0703H55.1286H55.3106H55.1426H54.4566L51.8358 83.0871L42.4726 83.1207H42.4082V83.0563C42.4082 81.3259 42.4082 79.4499 42.4082 77.4563C42.4082 76.4679 42.4082 75.4515 42.4082 74.4127V71.2487L42.4838 71.1731H55.3806H55.445V71.2347C55.445 74.7851 55.4226 77.7419 55.4142 79.8139C55.4142 80.8387 55.4142 81.6423 55.3974 82.1995C55.3974 82.4795 55.3974 82.6755 55.3974 82.8239C55.3974 82.9723 55.3498 83.0843 55.3498 83.0843Z" fill="#39364F"/>
<path d="M47.3702 39.3734L53.5694 39.3342C53.5382 37.4454 52.8309 35.6304 51.5758 34.2186C50.7886 33.3142 49.7918 32.6165 48.6725 32.1865C47.5533 31.7565 46.3457 31.6072 45.1554 31.7518C44.8586 31.7854 44.559 31.833 44.2538 31.8974H44.2314L45.9114 39.3678L47.3702 39.3734Z" fill="#2176FF"/>
<path d="M49.2795 47.0735C50.4503 46.5277 51.4566 45.6832 52.1973 44.6249C52.9381 43.5666 53.387 42.332 53.4991 41.0451C53.4991 40.9667 53.5159 40.8883 53.5215 40.8071C53.5271 40.7259 53.5215 40.7091 53.5215 40.6559C53.5215 40.5103 53.5215 40.3591 53.5355 40.2079V40.1799L47.3335 40.2219H45.8775L44.2451 47.6951C44.7743 47.8078 45.3141 47.8632 45.8551 47.8603C47.0406 47.8538 48.21 47.5851 49.2795 47.0735Z" fill="#39364F"/>
<path d="M45.1382 39.7739L43.4582 32.3035C41.7568 32.6856 40.2367 33.637 39.1494 35.0004C38.0621 36.3637 37.4727 38.0573 37.4786 39.8011C37.4844 41.5449 38.0853 43.2345 39.1818 44.5905C40.2782 45.9464 41.8046 46.8876 43.5086 47.2583L45.1382 39.7851" fill="#39364F"/>
<path d="M28.3271 72.7495H26.6499V85.4139H28.3271V72.7495Z" fill="#2176FF"/>
<path d="M25.7426 78.0779H24.0654V85.4139H25.7426V78.0779Z" fill="#39364F"/>
<path d="M23.1586 76.9355H21.4814V85.4139H23.1586V76.9355Z" fill="#2176FF"/>
<path d="M20.5712 81.9951H18.894V85.4139H20.5712V81.9951Z" fill="#39364F"/>
<path d="M33.499 69.9832H31.8218V85.4139H33.499V69.9832Z" fill="#2176FF"/>
<path d="M30.9145 71.3914H29.2373V85.4138H30.9145V71.3914Z" fill="#39364F"/>
<path d="M38.6704 68.4543H36.9932V85.4139H38.6704V68.4543Z" fill="#2176FF"/>
<path d="M36.0835 65.1055H34.4062V85.4139H36.0835V65.1055Z" fill="#39364F"/>
<path d="M20.5294 87.0042C20.2889 87.0752 20.0371 87.0999 19.7874 87.077C19.5377 87.0999 19.2859 87.0752 19.0454 87.0042C19.287 86.9341 19.5401 86.9122 19.7902 86.9398C20.0385 86.9129 20.2896 86.9348 20.5294 87.0042Z" fill="#39364F"/>
<path d="M23.0773 87.0043C22.8369 87.0758 22.585 87.1005 22.3353 87.0771C22.0855 87.1 21.8338 87.0753 21.5933 87.0043C21.8334 86.9317 22.0855 86.9069 22.3353 86.9315C22.585 86.9066 22.8371 86.9314 23.0773 87.0043Z" fill="#39364F"/>
<path d="M25.628 87.0042C25.3875 87.0752 25.1358 87.0999 24.886 87.077C24.6363 87.1004 24.3844 87.0757 24.144 87.0042C24.3847 86.9341 24.6369 86.9122 24.886 86.9398C25.1352 86.9125 25.3873 86.9344 25.628 87.0042Z" fill="#39364F"/>
<path d="M28.1901 87.0042C27.9496 87.0751 27.6978 87.0998 27.4481 87.077C27.1983 87.1004 26.9465 87.0757 26.7061 87.0042C26.9423 86.9359 27.1895 86.914 27.4341 86.9398C27.6878 86.9106 27.9449 86.9325 28.1901 87.0042Z" fill="#39364F"/>
<path d="M30.7242 87.0044C30.4837 87.0753 30.2319 87.1 29.9822 87.0772C29.7325 87.1 29.4807 87.0753 29.2402 87.0044C29.4804 86.9317 29.7325 86.907 29.9822 86.9316C30.2319 86.907 30.4841 86.9317 30.7242 87.0044Z" fill="#39364F"/>
<path d="M33.2721 87.0044C33.0316 87.0753 32.7798 87.1 32.5301 87.0772C32.2804 87.1 32.0286 87.0753 31.7881 87.0044C32.0283 86.9317 32.2804 86.907 32.5301 86.9316C32.7798 86.907 33.0319 86.9317 33.2721 87.0044Z" fill="#39364F"/>
<path d="M35.8199 87.0043C35.5795 87.0758 35.3277 87.1005 35.0779 87.0771C34.8282 87.1 34.5764 87.0753 34.3359 87.0043C34.5761 86.9317 34.8282 86.9069 35.0779 86.9315C35.3277 86.9066 35.5798 86.9314 35.8199 87.0043Z" fill="#39364F"/>
<path d="M38.3679 87.0043C37.879 87.1014 37.3757 87.1014 36.8867 87.0043C37.1268 86.9314 37.379 86.9066 37.6287 86.9315C37.8775 86.9068 38.1287 86.9315 38.3679 87.0043Z" fill="#39364F"/>
<path d="M39.2612 88.4966C39.2612 88.5358 37.4412 88.5694 35.1928 88.5694C32.9444 88.5694 31.1216 88.5358 31.1216 88.4966C31.1216 88.4574 32.9444 88.4238 35.1928 88.4238C37.4412 88.4238 39.2612 88.4546 39.2612 88.4966Z" fill="#39364F"/>
<path d="M34.4058 89.3534C33.9334 89.4253 33.455 89.4497 32.9778 89.4262C32.5006 89.4496 32.0222 89.4252 31.5498 89.3534C32.022 89.28 32.5006 89.2556 32.9778 89.2806C33.455 89.2554 33.9336 89.2798 34.4058 89.3534Z" fill="#39364F"/>
<path d="M34.6018 64.3692C34.682 64.3608 34.7629 64.3764 34.8343 64.414C35.0045 64.4947 35.1458 64.6259 35.239 64.7897C35.3321 64.9535 35.3727 65.1419 35.355 65.3296C35.3356 65.5107 35.2546 65.6798 35.1254 65.8084C34.9806 65.9571 34.7926 66.0566 34.5881 66.0927C34.3837 66.1289 34.173 66.1 33.9858 66.01C33.8075 65.9053 33.6647 65.7496 33.5759 65.5629C33.487 65.3762 33.4562 65.1671 33.4874 64.9628C33.5127 64.7841 33.5896 64.6167 33.7086 64.4812C33.8122 64.3661 33.9405 64.2762 34.0839 64.218C34.2864 64.1324 34.5107 64.1128 34.725 64.162C34.8762 64.2012 34.9462 64.2516 34.9406 64.26C34.935 64.2684 34.8594 64.2376 34.7166 64.218C34.5147 64.192 34.3095 64.2251 34.1258 64.3132C33.9913 64.3714 33.8739 64.4633 33.7852 64.58C33.6964 64.6967 33.6392 64.8343 33.619 64.9796C33.5961 65.1557 33.6249 65.3348 33.702 65.4949C33.7791 65.655 33.901 65.7892 34.053 65.8812C34.2134 65.9562 34.3929 65.9806 34.5674 65.9511C34.742 65.9216 34.9035 65.8396 35.0302 65.716C35.1334 65.6134 35.2034 65.4823 35.2314 65.3396C35.2593 65.1969 35.2439 65.049 35.187 64.9152C35.117 64.7257 34.9834 64.5664 34.809 64.4644C34.683 64.3944 34.599 64.3832 34.6018 64.3692Z" fill="#39364F"/>
<path d="M35.9263 41.2998C35.8937 41.3034 35.8608 41.3034 35.8283 41.2998H35.5483L34.4283 41.3166L34.4647 41.283C34.4871 43.2682 34.5011 47.2218 34.5011 51.7662C34.5011 55.073 34.5011 58.0634 34.4815 60.2446C34.4815 61.3198 34.4619 62.2046 34.4563 62.8122C34.4563 63.0922 34.4563 63.3386 34.4563 63.5122C34.4641 63.5932 34.4641 63.6748 34.4563 63.7558C34.4456 63.675 34.4409 63.5936 34.4423 63.5122C34.4423 63.3386 34.4423 63.1062 34.4423 62.8122C34.4423 62.1934 34.4423 61.3198 34.4199 60.2446C34.4199 58.0634 34.4199 55.073 34.3975 51.7662C34.3975 47.2218 34.4143 43.2682 34.4367 41.283V41.2466H34.4703L35.5903 41.2634H35.8703L35.9263 41.2998Z" fill="#39364F"/>
<path d="M23.6879 54.7176C23.6879 54.7568 21.8595 54.7904 19.6055 54.7904C17.3515 54.7904 15.5259 54.7568 15.5259 54.7176C15.5259 54.6784 17.3515 54.6448 19.6055 54.6448C21.8595 54.6448 23.6879 54.6784 23.6879 54.7176Z" fill="#39364F"/>
<path d="M23.5395 55.7674C23.5395 55.8094 21.7447 55.8402 19.5327 55.8402C17.3207 55.8402 15.5259 55.8094 15.5259 55.7674C15.5259 55.7254 17.3179 55.6946 19.5327 55.6946C21.7475 55.6946 23.5395 55.7282 23.5395 55.7674Z" fill="#39364F"/>
<path d="M23.5395 56.8174C23.5395 56.8594 21.7447 56.8902 19.5327 56.8902C17.3207 56.8902 15.5259 56.8594 15.5259 56.8174C15.5259 56.7754 17.3179 56.7446 19.5327 56.7446C21.7475 56.7446 23.5395 56.7782 23.5395 56.8174Z" fill="#39364F"/>
<path d="M23.5395 57.8675C23.5395 57.9095 21.7447 57.9403 19.5327 57.9403C17.3207 57.9403 15.5259 57.9095 15.5259 57.8675C15.5259 57.8255 17.3179 57.7947 19.5327 57.7947C21.7475 57.7947 23.5395 57.8199 23.5395 57.8675Z" fill="#39364F"/>
<path d="M23.5395 58.9175C23.5395 58.9595 21.7447 58.9903 19.5327 58.9903C17.3207 58.9903 15.5259 58.9595 15.5259 58.9175C15.5259 58.8755 17.3179 58.8447 19.5327 58.8447C21.7475 58.8447 23.5395 58.8783 23.5395 58.9175Z" fill="#39364F"/>
<path d="M19.4346 59.9674C18.7841 60.0414 18.1289 60.0657 17.4746 60.0402C16.8204 60.0658 16.1652 60.0415 15.5146 59.9674C16.1653 59.8951 16.8204 59.8707 17.4746 59.8946C18.1289 59.8708 18.784 59.8952 19.4346 59.9674Z" fill="#39364F"/>
<path d="M21.7165 53.5694C21.7165 53.6086 20.3165 53.6422 18.6085 53.6422C16.9005 53.6422 15.5005 53.6086 15.5005 53.5694C15.5005 53.5302 16.9005 53.4966 18.6085 53.4966C20.3165 53.4966 21.7165 53.5302 21.7165 53.5694Z" fill="#2176FF"/>
<path d="M25.586 62.4538C25.586 62.4538 25.586 62.3754 25.586 62.2298C25.586 62.0842 25.586 61.8686 25.586 61.5942C25.586 61.0342 25.586 60.225 25.5692 59.1946C25.5692 57.131 25.5496 54.191 25.5384 50.6546L25.6 50.7162H12.7004C12.6836 50.733 12.8376 50.579 12.7732 50.6462V53.8102C12.7732 54.849 12.7732 55.8654 12.7732 56.8538C12.7732 58.8334 12.7732 60.7094 12.7732 62.4538L12.7088 62.3894L22.03 62.4202L24.6648 62.437H25.362H25.544H25.6084H25.376H24.69L22.072 62.4538L12.7088 62.4874H12.622V62.423C12.622 60.6926 12.622 58.8166 12.622 56.823C12.622 55.8346 12.622 54.8182 12.622 53.7794V50.6154C12.5548 50.6798 12.7088 50.523 12.6948 50.5398H25.5944H25.656V50.6014C25.656 54.1518 25.6308 57.1058 25.6252 59.1806C25.6252 60.2054 25.6252 61.009 25.6084 61.5662C25.6084 61.8462 25.6084 62.0422 25.6084 62.1906C25.6084 62.339 25.586 62.4538 25.586 62.4538Z" fill="#39364F"/>
<path d="M21.7222 67.3847C21.6501 66.6048 21.6257 65.8212 21.6494 65.0383C21.6257 64.2554 21.6501 63.4718 21.7222 62.6919C21.7942 63.4718 21.8186 64.2554 21.795 65.0383C21.8186 65.8212 21.7942 66.6048 21.7222 67.3847Z" fill="#39364F"/>
<path d="M22.2569 66.3149C22.1134 66.6875 22.0193 67.0772 21.9769 67.4741V67.5049V67.7149L21.8565 67.5441C21.6026 67.2203 21.4427 66.8328 21.3945 66.4241C21.4337 66.4101 21.5989 66.9169 21.9769 67.4489L21.8425 67.4881V67.4545C21.8379 67.037 21.9852 66.632 22.2569 66.3149Z" fill="#39364F"/>
<path d="M101.922 34.2802C101.883 34.2802 101.85 34.0926 101.85 33.8602C101.85 33.6278 101.883 33.4402 101.922 33.4402C101.962 33.4402 101.995 33.6278 101.995 33.8602C101.995 34.0926 101.962 34.2802 101.922 34.2802Z" fill="#39364F"/>
<path d="M101.922 35.9632C101.883 35.9632 101.85 35.7756 101.85 35.5432C101.85 35.3108 101.883 35.1204 101.922 35.1204C101.962 35.1204 101.995 35.3108 101.995 35.5432C101.995 35.7756 101.962 35.9632 101.922 35.9632Z" fill="#39364F"/>
<path d="M101.922 37.643C101.883 37.643 101.85 37.4554 101.85 37.223C101.85 36.9906 101.883 36.803 101.922 36.803C101.962 36.803 101.995 36.9906 101.995 37.223C101.995 37.4554 101.962 37.643 101.922 37.643Z" fill="#39364F"/>
<path d="M101.922 39.3204C101.883 39.3204 101.85 39.1328 101.85 38.9032C101.85 38.6736 101.883 38.4832 101.922 38.4832C101.962 38.4832 101.995 38.6708 101.995 38.9032C101.995 39.1356 101.962 39.3204 101.922 39.3204Z" fill="#39364F"/>
<path d="M101.922 41.0002C101.883 41.0002 101.85 40.8126 101.85 40.5802C101.85 40.3478 101.883 40.1602 101.922 40.1602C101.962 40.1602 101.995 40.3478 101.995 40.5802C101.995 40.8126 101.962 41.0002 101.922 41.0002Z" fill="#39364F"/>
<path d="M101.922 42.6774C101.883 42.6774 101.85 42.4898 101.85 42.2574C101.85 42.025 101.883 41.8374 101.922 41.8374C101.962 41.8374 101.995 42.025 101.995 42.2574C101.995 42.4898 101.962 42.6774 101.922 42.6774Z" fill="#39364F"/>
<path d="M101.922 44.3576C101.883 44.3576 101.85 44.1672 101.85 43.9376C101.85 43.708 101.883 43.5176 101.922 43.5176C101.962 43.5176 101.995 43.7052 101.995 43.9376C101.995 44.17 101.962 44.3576 101.922 44.3576Z" fill="#39364F"/>
<path d="M101.922 46.0346C101.883 46.0346 101.85 45.847 101.85 45.6146C101.85 45.3822 101.883 45.1946 101.922 45.1946C101.962 45.1946 101.995 45.3822 101.995 45.6146C101.995 45.847 101.962 46.0346 101.922 46.0346Z" fill="#39364F"/>
<path d="M111.373 12.2891H68.6391C68.0267 12.2891 67.5303 12.7855 67.5303 13.3979V30.2875C67.5303 30.8998 68.0267 31.3963 68.6391 31.3963H111.373C111.985 31.3963 112.481 30.8998 112.481 30.2875V13.3979C112.481 12.7855 111.985 12.2891 111.373 12.2891Z" fill="#39364F"/>
<path d="M80.7432 19.3871C80.3909 18.6075 79.8395 17.9344 79.1445 17.4355C78.4495 16.9366 77.6354 16.6295 76.784 16.5451L76.6272 16.5283H76.5264H76.2296H76.2016L76.1792 20.6331V21.5991L81.11 22.7163C81.1904 22.3683 81.2317 22.0123 81.2332 21.6551C81.2376 20.8724 81.0704 20.0982 80.7432 19.3871Z" fill="#FAFAFA"/>
<path d="M75.423 22.1114V21.2042L75.4454 17.0994C74.195 17.106 72.9883 17.5599 72.0434 18.379C71.4388 18.893 70.9694 19.5475 70.6765 20.2851C70.3836 21.0227 70.2761 21.8209 70.3634 22.6098C70.3802 22.7862 70.4082 22.9654 70.4418 23.1474H70.4054C71.0606 25.5106 73.2054 27.297 75.3026 27.1626C77.7274 27.0086 79.7826 25.5078 80.3062 23.2426L75.423 22.1114Z" fill="#E0E0E0"/>
<path d="M93.1499 18.6702C93.1499 18.7094 91.1703 18.743 88.7287 18.743C86.2871 18.743 84.3047 18.7094 84.3047 18.6702C84.3047 18.631 86.2843 18.5974 88.7287 18.5974C91.1731 18.5974 93.1499 18.6198 93.1499 18.6702Z" fill="#39364F"/>
<path d="M93.1499 20.3699C93.1499 20.4091 91.1703 20.4427 88.7287 20.4427C86.2871 20.4427 84.3047 20.4091 84.3047 20.3699C84.3047 20.3307 86.2843 20.2971 88.7287 20.2971C91.1731 20.2971 93.1499 20.3279 93.1499 20.3699Z" fill="#39364F"/>
<path d="M93.1499 22.0694C93.1499 22.1086 91.1703 22.1422 88.7287 22.1422C86.2871 22.1422 84.3047 22.1086 84.3047 22.0694C84.3047 22.0302 86.2843 21.9966 88.7287 21.9966C91.1731 21.9966 93.1499 22.0302 93.1499 22.0694Z" fill="#39364F"/>
<path d="M93.1499 23.7691C93.1499 23.8083 91.1703 23.8419 88.7287 23.8419C86.2871 23.8419 84.3047 23.8083 84.3047 23.7691C84.3047 23.7299 86.2843 23.6963 88.7287 23.6963C91.1731 23.6963 93.1499 23.7299 93.1499 23.7691Z" fill="#39364F"/>
<path d="M89.4792 25.6199C89.2283 25.66 88.9743 25.6769 88.7204 25.6703C88.2528 25.6703 87.6004 25.6927 86.8892 25.6927C86.178 25.6927 85.5228 25.6927 85.0552 25.6703C84.8012 25.6769 84.5472 25.66 84.2964 25.6199C84.547 25.5778 84.8011 25.56 85.0552 25.5667C85.5228 25.5667 86.1752 25.5471 86.8892 25.5471C87.6032 25.5471 88.2528 25.5471 88.7204 25.5667C88.9744 25.56 89.2286 25.5778 89.4792 25.6199Z" fill="#39364F"/>
<path d="M99.4444 17.1078C99.5007 17.0622 99.5654 17.0279 99.6348 17.007C99.8223 16.9345 100.022 16.8974 100.223 16.8978C100.29 16.8938 100.357 16.8938 100.424 16.8978L100.531 16.9146H100.545C100.508 16.8558 100.598 16.9958 100.587 16.9818V17.0098V17.063C100.553 17.2086 100.522 17.3626 100.486 17.5222C100.413 17.8526 100.332 18.211 100.248 18.589V18.645H99.8196H98.5316H98.4644V18.5918C98.4679 18.3302 98.5301 18.0728 98.6464 17.8386C98.7374 17.6582 98.863 17.4974 99.016 17.3654C99.1142 17.2802 99.2234 17.2086 99.3407 17.1526C99.4219 17.1162 99.4668 17.1022 99.4696 17.1078C99.4724 17.1134 99.2988 17.2002 99.0692 17.4242C98.9162 17.5773 98.7956 17.7595 98.7143 17.96C98.633 18.1606 98.5928 18.3754 98.596 18.5918L98.5316 18.5246H100.15L100.08 18.5806L100.332 17.5194C100.371 17.3598 100.41 17.2058 100.447 17.0602V17.007V16.9818C100.447 16.9818 100.525 17.1078 100.486 17.049H100.472L100.374 17.0294C100.312 17.0179 100.249 17.0104 100.186 17.007C99.9356 17.0062 99.6859 17.0401 99.4444 17.1078Z" fill="#E0E0E0"/>
<path d="M100.335 18.8466H100.038H98.6968C98.6994 19.2579 98.8483 19.6549 99.1168 19.9666C99.2839 20.166 99.4975 20.3213 99.7386 20.4189C99.9798 20.5165 100.241 20.5535 100.5 20.5266L100.674 20.5014C101.446 20.2886 102.029 19.5914 101.987 18.9026C101.984 18.5252 101.858 18.159 101.627 17.8602C101.396 17.5614 101.074 17.3463 100.71 17.2478L100.335 18.8466Z" fill="#FAFAFA"/>
<path d="M99.4444 23.1362C99.1899 23.2515 98.9702 23.4317 98.8076 23.6588C98.6449 23.8859 98.5448 24.1518 98.5176 24.4298C98.5176 24.4466 98.5176 24.4634 98.5176 24.4802C98.5176 24.497 98.5176 24.5026 98.5176 24.5138C98.5176 24.525 98.5176 24.5782 98.5176 24.609H99.8588H100.15L100.522 22.9962C100.408 22.9705 100.292 22.9573 100.175 22.957C99.9213 22.9622 99.6718 23.0234 99.4444 23.1362Z" fill="#FAFAFA"/>
<path d="M100.335 24.8722C100.352 24.7215 100.378 24.5719 100.413 24.4242C100.475 24.1246 100.556 23.7354 100.654 23.265V23.2146H100.707C100.991 23.2794 101.252 23.4167 101.467 23.613C101.681 23.8094 101.841 24.058 101.931 24.3346C102.056 24.6546 102.081 25.0055 102.001 25.3398C101.892 25.6923 101.676 26.0019 101.382 26.2246C101.182 26.3834 100.954 26.5039 100.71 26.5802L100.637 26.5998L100.62 26.5242L100.704 26.5802C100.42 26.6353 100.127 26.6209 99.8503 26.5382C99.5933 26.4558 99.3599 26.3127 99.1699 26.121C98.8426 25.788 98.6604 25.3391 98.6631 24.8722V24.8078H98.7163L99.9147 24.8358C100.061 24.8377 100.207 24.8489 100.352 24.8694C100.206 24.8912 100.059 24.8996 99.9119 24.8946L98.7135 24.9114L98.7667 24.861C98.7766 25.2951 98.9542 25.7086 99.2623 26.0146C99.4456 26.1947 99.6708 26.3264 99.9176 26.3978C100.164 26.4691 100.425 26.4779 100.676 26.4234H100.746L100.76 26.4934L100.671 26.4374C100.904 26.3709 101.123 26.2607 101.315 26.1126C101.581 25.9077 101.777 25.6248 101.875 25.3034C101.948 24.9974 101.928 24.6763 101.816 24.3822C101.733 24.126 101.587 23.8947 101.391 23.7097C101.196 23.5248 100.956 23.392 100.696 23.3238L100.758 23.2846C100.634 23.7858 100.531 24.189 100.458 24.4606C100.428 24.601 100.387 24.7386 100.335 24.8722Z" fill="#E0E0E0"/>
<path d="M109.258 23.9987C108.327 24.0707 107.392 24.095 106.458 24.0715C105.524 24.095 104.59 24.0707 103.658 23.9987C104.589 23.9231 105.524 23.8979 106.458 23.9231C107.392 23.8978 108.327 23.923 109.258 23.9987Z" fill="#39364F"/>
<path d="M106.458 24.7462C105.527 24.8431 104.589 24.8431 103.658 24.7462C104.589 24.6494 105.527 24.6494 106.458 24.7462Z" fill="#39364F"/>
<path d="M109.258 17.9731C108.327 18.0487 107.392 18.074 106.458 18.0487C105.524 18.0739 104.589 18.0487 103.658 17.9731C104.59 17.9011 105.524 17.8768 106.458 17.9003C107.392 17.8767 108.327 17.901 109.258 17.9731Z" fill="#39364F"/>
<path d="M106.458 18.7235C105.527 18.8204 104.589 18.8204 103.658 18.7235C104.589 18.6267 105.527 18.6267 106.458 18.7235Z" fill="#39364F"/>
<path d="M95.9136 28.7784C95.8716 28.7784 95.8408 25.4184 95.8408 21.2492C95.8408 17.08 95.8716 13.72 95.9136 13.72C95.9556 13.72 95.9864 17.08 95.9864 21.2492C95.9864 25.4184 95.95 28.7784 95.9136 28.7784Z" fill="#39364F"/>
<path d="M95.2726 47.4963H93.5366V63.1595H95.2726V47.4963Z" fill="#2176FF"/>
<path d="M98.6213 52.8162H96.8853V63.1594H98.6213V52.8162Z" fill="#2176FF"/>
<path d="M101.97 49.4451H100.234V63.2407H101.97V49.4451Z" fill="#2176FF"/>
<path d="M105.321 48.1011H103.585V63.1595H105.321V48.1011Z" fill="#2176FF"/>
<path d="M108.671 53.1355H106.935V63.1595H108.671V53.1355Z" fill="#2176FF"/>
<path d="M112.019 55.1011H110.283V63.1595H112.019V55.1011Z" fill="#2176FF"/>
<path d="M115.368 49.1035H113.632V63.1595H115.368V49.1035Z" fill="#2176FF"/>
<path d="M118.717 51.6375H116.981V63.1595H118.717V51.6375Z" fill="#2176FF"/>
<path d="M122.069 49.613H120.333V63.1594H122.069V49.613Z" fill="#2176FF"/>
<path d="M125.417 53.9307H123.681V63.1595H125.417V53.9307Z" fill="#2176FF"/>
<path d="M128.766 52.175H127.03V63.1595H128.766V52.175Z" fill="#2176FF"/>
<path d="M127.691 51.0495H127.585L127.282 51.0019C127.118 50.9719 126.953 50.9504 126.787 50.9375L126.47 50.9039L126.109 50.8899C125.487 50.8616 124.865 50.8954 124.25 50.9907C123.436 51.1097 122.64 51.326 121.878 51.6347C120.952 52.0062 120.088 52.5171 119.316 53.1495C118.448 53.8954 117.678 54.7488 117.026 55.6891C116.298 56.6523 115.556 57.7135 114.525 58.5703C114.006 59.0105 113.419 59.3641 112.787 59.6175C112.13 59.8771 111.418 59.9648 110.717 59.8723C110.018 59.7717 109.349 59.5194 108.757 59.1331C108.19 58.7618 107.67 58.3227 107.209 57.8255C106.291 56.8539 105.624 55.7535 104.924 54.7679C104.297 53.8101 103.528 52.9537 102.642 52.2283C102.231 51.9181 101.781 51.6621 101.304 51.4667C100.86 51.2917 100.398 51.1677 99.9262 51.0971C98.489 50.8916 97.0242 51.1641 95.757 51.8727C95.4175 52.0716 95.097 52.3013 94.7994 52.5587L94.5726 52.7631C94.5222 52.8107 94.4942 52.8331 94.4914 52.8303C94.4886 52.8275 94.5138 52.8023 94.5614 52.7519L94.7798 52.5363C95.0712 52.2679 95.3882 52.0288 95.7262 51.8223C96.9943 51.0842 98.4718 50.7886 99.9262 50.9823C100.405 51.0517 100.875 51.1757 101.326 51.3519C101.816 51.5464 102.277 51.8053 102.698 52.1219C103.598 52.8498 104.38 53.7121 105.017 54.6783C105.725 55.6667 106.391 56.7615 107.296 57.7163C107.753 58.2035 108.269 58.6332 108.83 58.9959C109.402 59.3687 110.048 59.6142 110.723 59.7155C111.4 59.8036 112.089 59.7188 112.725 59.4691C113.343 59.2223 113.916 58.8761 114.422 58.4443C115.435 57.6043 116.175 56.5599 116.908 55.5939C117.272 55.1095 117.636 54.6391 118.028 54.1939C118.219 53.9811 118.412 53.7683 118.619 53.5779L118.921 53.2979C119.025 53.2055 119.134 53.1215 119.238 53.0347C120.021 52.3993 120.897 51.8884 121.836 51.5199C122.607 51.2129 123.413 51.0013 124.236 50.8899C124.856 50.8022 125.484 50.7759 126.109 50.8115L126.473 50.8339L126.789 50.8759C126.956 50.8926 127.121 50.9188 127.285 50.9543L127.587 51.0159L127.691 51.0495Z" fill="#39364F"/>
<path d="M91.627 64.2598C91.5878 64.2598 91.5542 59.7938 91.5542 54.2862C91.5542 48.7786 91.5878 44.3098 91.627 44.3098C91.6662 44.3098 91.6998 48.7758 91.6998 54.2862C91.6998 59.7966 91.6662 64.2598 91.627 64.2598Z" fill="#39364F"/>
<path d="M129.471 64.2598C129.471 64.299 121.242 64.3326 111.095 64.3326C100.948 64.3326 92.7158 64.299 92.7158 64.2598C92.7158 64.2206 100.942 64.187 111.095 64.187C121.248 64.187 129.471 64.2122 129.471 64.2598Z" fill="#39364F"/>
<path d="M96.0116 65.4834C95.1556 65.5805 94.2915 65.5805 93.4355 65.4834C94.2915 65.3864 95.1556 65.3864 96.0116 65.4834Z" fill="#39364F"/>
<path d="M100.282 65.5478C99.2573 65.645 98.226 65.645 97.2017 65.5478C98.226 65.4505 99.2573 65.4505 100.282 65.5478Z" fill="#39364F"/>
<path d="M103.924 65.5478C102.9 65.645 101.869 65.645 100.844 65.5478C101.869 65.4505 102.9 65.4505 103.924 65.5478Z" fill="#39364F"/>
<path d="M107.567 65.5478C106.543 65.645 105.512 65.645 104.487 65.5478C105.512 65.4505 106.543 65.4505 107.567 65.5478Z" fill="#39364F"/>
<path d="M111.21 65.5478C110.186 65.645 109.154 65.645 108.13 65.5478C109.154 65.4505 110.186 65.4505 111.21 65.5478Z" fill="#39364F"/>
<path d="M114.853 65.5478C113.829 65.645 112.797 65.645 111.773 65.5478C112.797 65.4505 113.829 65.4505 114.853 65.5478Z" fill="#39364F"/>
<path d="M118.496 65.5478C117.471 65.645 116.44 65.645 115.416 65.5478C116.44 65.4505 117.471 65.4505 118.496 65.5478Z" fill="#39364F"/>
<path d="M122.139 65.5479C121.114 65.645 120.083 65.645 119.059 65.5479C120.083 65.4508 121.114 65.4508 122.139 65.5479Z" fill="#39364F"/>
<path d="M125.778 65.5478C124.754 65.645 123.723 65.645 122.698 65.5478C123.723 65.4505 124.754 65.4505 125.778 65.5478Z" fill="#39364F"/>
<path d="M129.421 65.5478C128.397 65.645 127.366 65.645 126.341 65.5478C127.366 65.4505 128.397 65.4505 129.421 65.5478Z" fill="#39364F"/>
<path d="M105.394 54.9358C105.394 54.919 105.543 54.9358 105.602 55.1402C105.618 55.1975 105.621 55.258 105.609 55.3165C105.598 55.375 105.572 55.4298 105.534 55.4762C105.481 55.5285 105.412 55.5635 105.339 55.5769C105.265 55.5903 105.189 55.5814 105.12 55.5514C105.051 55.5214 104.993 55.4716 104.952 55.4083C104.912 55.3451 104.891 55.2712 104.893 55.1962C104.902 55.1363 104.926 55.0795 104.962 55.0307C104.998 54.9819 105.046 54.9427 105.1 54.9162C105.288 54.8294 105.406 54.9162 105.38 54.9386C105.355 54.961 105.268 54.919 105.142 55.0058C105.109 55.0281 105.08 55.0574 105.059 55.0917C105.038 55.126 105.024 55.1646 105.019 55.2046C105.019 55.2513 105.034 55.2968 105.06 55.3353C105.087 55.3737 105.124 55.4033 105.168 55.4202C105.209 55.4417 105.256 55.45 105.302 55.4439C105.348 55.4379 105.391 55.4179 105.425 55.3866C105.452 55.3563 105.472 55.3206 105.483 55.282C105.495 55.2433 105.498 55.2026 105.492 55.1626C105.484 55.0198 105.38 54.9554 105.394 54.9358Z" fill="#39364F"/>
<path d="M122.161 51.1558C122.161 51.1558 122.194 51.1362 122.259 51.1558C122.351 51.1759 122.432 51.2286 122.488 51.3042C122.534 51.36 122.564 51.4272 122.575 51.4987C122.586 51.5702 122.577 51.6433 122.55 51.7102C122.514 51.7932 122.455 51.864 122.379 51.9137C122.303 51.9634 122.215 51.99 122.124 51.9902C122.034 51.9861 121.947 51.9537 121.875 51.8974C121.804 51.8411 121.752 51.7639 121.727 51.6766C121.705 51.6079 121.701 51.5345 121.715 51.4638C121.73 51.3931 121.763 51.3274 121.811 51.2734C121.982 51.0998 122.144 51.1278 122.138 51.1418C122.133 51.1558 122.004 51.1866 121.889 51.3378C121.86 51.3808 121.841 51.4303 121.836 51.482C121.83 51.5338 121.837 51.5861 121.856 51.6346C121.875 51.6941 121.913 51.7461 121.963 51.7837C122.013 51.8213 122.073 51.8425 122.136 51.8446C122.198 51.8436 122.258 51.8259 122.311 51.7934C122.364 51.7608 122.407 51.7147 122.435 51.6598C122.455 51.6147 122.462 51.5655 122.458 51.5166C122.454 51.4678 122.437 51.4207 122.41 51.3798C122.301 51.1866 122.155 51.1782 122.161 51.1558Z" fill="#39364F"/>
<path d="M122.433 43.8424C122.473 43.8424 122.505 43.7483 122.505 43.6324C122.505 43.5164 122.473 43.4224 122.433 43.4224C122.392 43.4224 122.36 43.5164 122.36 43.6324C122.36 43.7483 122.392 43.8424 122.433 43.8424Z" fill="#39364F"/>
<path d="M122.433 45.6651C122.393 45.6651 122.36 45.4607 122.36 45.2087C122.36 44.9567 122.393 44.7551 122.433 44.7551C122.472 44.7551 122.505 44.9595 122.505 45.2087C122.505 45.4579 122.475 45.6651 122.433 45.6651Z" fill="#39364F"/>
<path d="M122.433 47.4879C122.393 47.4879 122.36 47.2835 122.36 47.0315C122.36 46.7795 122.393 46.5779 122.433 46.5779C122.472 46.5779 122.505 46.7795 122.505 47.0315C122.505 47.2835 122.475 47.4879 122.433 47.4879Z" fill="#39364F"/>
<path d="M122.433 49.3107C122.393 49.3107 122.36 49.1063 122.36 48.8543C122.36 48.6023 122.393 48.3979 122.433 48.3979C122.472 48.3979 122.505 48.6023 122.505 48.8543C122.505 49.1063 122.475 49.3107 122.433 49.3107Z" fill="#39364F"/>
<path d="M122.433 50.6407C122.393 50.6407 122.36 50.5483 122.36 50.4307C122.36 50.3131 122.393 50.2207 122.433 50.2207C122.472 50.2207 122.505 50.3159 122.505 50.4307C122.505 50.5455 122.475 50.6407 122.433 50.6407Z" fill="#39364F"/>
<path d="M134.775 40.9527C134.775 40.9919 131.93 41.0255 128.419 41.0255C124.908 41.0255 122.063 40.9919 122.063 40.9527C122.063 40.9135 124.911 40.8799 128.419 40.8799C131.927 40.8799 134.775 40.9135 134.775 40.9527Z" fill="#39364F"/>
<path d="M130.435 39.5135C130.435 39.5527 128.603 39.5863 126.344 39.5863C124.084 39.5863 122.256 39.5527 122.256 39.5135C122.256 39.4743 124.087 39.4407 126.344 39.4407C128.601 39.4407 130.435 39.4743 130.435 39.5135Z" fill="#39364F"/>
<path d="M47.1153 30.9763C47.1545 30.9763 47.1881 31.0715 47.1881 31.1863C47.1881 31.3011 47.1545 31.3963 47.1153 31.3963C47.0761 31.3963 47.0425 31.3011 47.0425 31.1863C47.0425 31.0715 47.0733 30.9763 47.1153 30.9763Z" fill="#39364F"/>
<path d="M47.1153 29.355C47.1545 29.355 47.1881 29.537 47.1881 29.761C47.1881 29.985 47.1545 30.1642 47.1153 30.1642C47.0761 30.1642 47.0425 29.985 47.0425 29.761C47.0425 29.537 47.0733 29.355 47.1153 29.355Z" fill="#39364F"/>
<path d="M47.1153 27.7339C47.1545 27.7339 47.1881 27.9131 47.1881 28.1371C47.1881 28.3611 47.1545 28.5431 47.1153 28.5431C47.0761 28.5431 47.0425 28.3611 47.0425 28.1371C47.0425 27.9131 47.0733 27.7339 47.1153 27.7339Z" fill="#39364F"/>
<path d="M47.1153 26.1125C47.1545 26.1125 47.1881 26.2945 47.1881 26.5185C47.1881 26.7425 47.1545 26.9217 47.1153 26.9217C47.0761 26.9217 47.0425 26.7425 47.0425 26.5185C47.0425 26.2945 47.0733 26.1125 47.1153 26.1125Z" fill="#39364F"/>
<path d="M47.1153 25.3035C47.1555 25.3035 47.1881 25.1217 47.1881 24.8975C47.1881 24.6732 47.1555 24.4915 47.1153 24.4915C47.0751 24.4915 47.0425 24.6732 47.0425 24.8975C47.0425 25.1217 47.0751 25.3035 47.1153 25.3035Z" fill="#39364F"/>
<path d="M47.1153 22.873C47.1545 22.873 47.1881 23.055 47.1881 23.279C47.1881 23.503 47.1545 23.6822 47.1153 23.6822C47.0761 23.6822 47.0425 23.5002 47.0425 23.279C47.0425 23.0578 47.0733 22.873 47.1153 22.873Z" fill="#39364F"/>
<path d="M47.1153 21.6411C47.1545 21.6411 47.1881 21.7335 47.1881 21.8511C47.1881 21.9687 47.1545 22.0611 47.1153 22.0611C47.0761 22.0611 47.0425 21.9659 47.0425 21.8511C47.0425 21.7363 47.0733 21.6411 47.1153 21.6411Z" fill="#39364F"/>
<path d="M47.5352 21.2464C47.5352 21.2856 47.44 21.3192 47.3252 21.3192C47.2104 21.3192 47.1152 21.2856 47.1152 21.2464C47.1152 21.2072 47.2076 21.1736 47.3252 21.1736C47.4428 21.1736 47.5352 21.2072 47.5352 21.2464Z" fill="#39364F"/>
<path d="M49.2599 21.2464C49.2599 21.2856 49.0667 21.3192 48.8287 21.3192C48.5907 21.3192 48.3975 21.2856 48.3975 21.2464C48.3975 21.2072 48.5907 21.1736 48.8287 21.1736C49.0667 21.1736 49.2599 21.2072 49.2599 21.2464Z" fill="#39364F"/>
<path d="M50.985 21.2464C50.985 21.2856 50.7918 21.3192 50.5538 21.3192C50.3158 21.3192 50.1226 21.2856 50.1226 21.2464C50.1226 21.2072 50.3158 21.1736 50.5538 21.1736C50.7918 21.1736 50.985 21.2072 50.985 21.2464Z" fill="#39364F"/>
<path d="M52.7096 21.2464C52.7096 21.2856 52.5164 21.3192 52.2784 21.3192C52.0404 21.3192 51.8472 21.2856 51.8472 21.2464C51.8472 21.2072 52.0404 21.1736 52.2784 21.1736C52.5164 21.1736 52.7096 21.2072 52.7096 21.2464Z" fill="#39364F"/>
<path d="M54.4319 21.2464C54.4319 21.2856 54.2387 21.3192 54.0007 21.3192C53.7627 21.3192 53.5723 21.2856 53.5723 21.2464C53.5723 21.2072 53.7627 21.1736 54.0007 21.1736C54.2387 21.1736 54.4319 21.2072 54.4319 21.2464Z" fill="#39364F"/>
<path d="M56.1535 21.2464C56.1535 21.2856 55.9603 21.3192 55.7223 21.3192C55.4843 21.3192 55.2939 21.2856 55.2939 21.2464C55.2939 21.2072 55.4843 21.1736 55.7223 21.1736C55.9603 21.1736 56.1535 21.2072 56.1535 21.2464Z" fill="#39364F"/>
<path d="M57.8699 21.2464C57.8699 21.2856 57.6767 21.3192 57.4415 21.3192C57.2063 21.3192 57.0103 21.2856 57.0103 21.2464C57.0103 21.2072 57.2035 21.1736 57.4415 21.1736C57.6795 21.1736 57.8699 21.2072 57.8699 21.2464Z" fill="#39364F"/>
<path d="M59.6007 21.2464C59.6007 21.2856 59.4075 21.3192 59.1695 21.3192C58.9315 21.3192 58.7383 21.2856 58.7383 21.2464C58.7383 21.2072 58.9315 21.1736 59.1695 21.1736C59.4075 21.1736 59.6007 21.2072 59.6007 21.2464Z" fill="#39364F"/>
<path d="M61.3224 21.2464C61.3224 21.2856 61.1292 21.3192 60.8912 21.3192C60.6532 21.3192 60.46 21.2856 60.46 21.2464C60.46 21.2072 60.6532 21.1736 60.8912 21.1736C61.1292 21.1736 61.3224 21.2072 61.3224 21.2464Z" fill="#39364F"/>
<path d="M63.0447 21.2464C63.0447 21.2856 62.8543 21.3192 62.6163 21.3192C62.3783 21.3192 62.1851 21.2856 62.1851 21.2464C62.1851 21.2072 62.3783 21.1736 62.6163 21.1736C62.8543 21.1736 63.0447 21.2072 63.0447 21.2464Z" fill="#39364F"/>
<path d="M64.7691 21.2464C64.7691 21.2856 64.5759 21.3192 64.3379 21.3192C64.0999 21.3192 63.9067 21.2856 63.9067 21.2464C63.9067 21.2072 64.0999 21.1736 64.3379 21.1736C64.5759 21.1736 64.7691 21.2072 64.7691 21.2464Z" fill="#39364F"/>
<path d="M66.0601 21.2464C66.0601 21.2856 65.9677 21.3192 65.8501 21.3192C65.7325 21.3192 65.6401 21.2856 65.6401 21.2464C65.6401 21.2072 65.7353 21.1736 65.8501 21.1736C65.9649 21.1736 66.0601 21.2072 66.0601 21.2464Z" fill="#39364F"/>
<path d="M86.7578 36.9094H75.9834C75.8406 36.9091 75.6992 36.9369 75.5672 36.9914C75.4352 37.0458 75.3153 37.1258 75.2144 37.2268C75.1134 37.3278 75.0334 37.4477 74.9789 37.5796C74.9245 37.7116 74.8966 37.8531 74.897 37.9958V44.3154C74.897 44.6036 75.0114 44.8799 75.2152 45.0836C75.4189 45.2874 75.6952 45.4018 75.9834 45.4018H77.7082V47.9918L80.0294 45.4018H86.7494C87.0375 45.4018 87.3138 45.2874 87.5176 45.0836C87.7213 44.8799 87.8358 44.6036 87.8358 44.3154V37.9958C87.8365 37.7089 87.7235 37.4334 87.5214 37.2298C87.3193 37.0261 87.0447 36.9109 86.7578 36.9094Z" fill="#39364F"/>
<path d="M80.0798 41.2999C80.0798 41.3892 80.0533 41.4765 80.0036 41.5507C79.954 41.6249 79.8834 41.6826 79.8009 41.7167C79.7183 41.7507 79.6276 41.7595 79.54 41.7419C79.4525 41.7242 79.3722 41.681 79.3093 41.6177C79.2463 41.5544 79.2036 41.4738 79.1865 41.3861C79.1695 41.2985 79.1788 41.2078 79.2133 41.1255C79.2479 41.0431 79.3061 40.9729 79.3806 40.9237C79.4551 40.8745 79.5425 40.8486 79.6318 40.8491C79.6909 40.8491 79.7494 40.8608 79.8039 40.8835C79.8585 40.9062 79.908 40.9394 79.9496 40.9813C79.9912 41.0232 80.0242 41.0729 80.0465 41.1276C80.0689 41.1823 80.0802 41.2409 80.0798 41.2999Z" fill="#FAFAFA"/>
<path d="M81.8464 41.2999C81.8464 41.3892 81.8199 41.4765 81.7703 41.5507C81.7206 41.6249 81.65 41.6826 81.5675 41.7167C81.4849 41.7507 81.3942 41.7595 81.3066 41.7419C81.2191 41.7242 81.1388 41.681 81.0759 41.6177C81.0129 41.5544 80.9702 41.4738 80.9531 41.3861C80.9361 41.2985 80.9454 41.2078 80.9799 41.1255C81.0145 41.0431 81.0727 40.9729 81.1472 40.9237C81.2217 40.8745 81.3091 40.8486 81.3984 40.8491C81.5175 40.8499 81.6314 40.8977 81.7154 40.9822C81.7993 41.0666 81.8464 41.1809 81.8464 41.2999Z" fill="#FAFAFA"/>
<path d="M83.5603 41.2999C83.5603 41.3891 83.5339 41.4762 83.4843 41.5504C83.4348 41.6245 83.3644 41.6823 83.282 41.7164C83.1996 41.7505 83.109 41.7595 83.0215 41.7421C82.9341 41.7247 82.8538 41.6817 82.7907 41.6187C82.7277 41.5556 82.6847 41.4753 82.6674 41.3879C82.65 41.3004 82.6589 41.2098 82.693 41.1274C82.7271 41.045 82.7849 40.9746 82.859 40.9251C82.9332 40.8756 83.0203 40.8491 83.1095 40.8491C83.1687 40.8491 83.2273 40.8608 83.282 40.8834C83.3367 40.9061 83.3864 40.9393 83.4283 40.9812C83.4701 41.023 83.5033 41.0727 83.526 41.1274C83.5486 41.1821 83.5603 41.2407 83.5603 41.2999Z" fill="#FAFAFA"/>
<path d="M62.9295 44.7773C62.4003 44.6457 62.4871 43.1897 62.4311 42.7445C62.3724 42.4761 62.3908 42.1965 62.4843 41.9381C62.5745 41.7854 62.7003 41.6568 62.8509 41.5632C63.0016 41.4696 63.1726 41.4138 63.3495 41.4005C63.6995 41.3473 64.0579 41.3809 64.4079 41.3305C65.1135 41.2297 65.7435 40.7929 66.4519 40.7285C66.7423 40.7045 67.0344 40.7439 67.308 40.844C67.5817 40.9441 67.8303 41.1024 68.0367 41.3081C68.247 41.5837 68.4927 41.8304 68.7675 42.0417C69.0496 42.1626 69.3446 42.2509 69.6467 42.3049C70.0132 42.4175 70.3397 42.6326 70.5878 42.9248C70.8359 43.2171 70.9951 43.5742 71.0467 43.9541C71.0685 44.4054 71.0356 44.8576 70.9487 45.3009C70.8648 45.7486 70.9318 46.2114 71.1391 46.6169C71.3827 47.0173 71.8447 47.2497 72.0715 47.6613C72.1738 47.844 72.2228 48.0518 72.2129 48.2609C72.2031 48.4701 72.1348 48.6723 72.0159 48.8446C71.8969 49.017 71.732 49.1525 71.5399 49.2358C71.3478 49.3192 71.1362 49.347 70.9291 49.3161C70.7975 49.2965 70.6491 49.2601 70.5427 49.3441C70.4701 49.4331 70.4279 49.543 70.4223 49.6577C70.3818 49.8805 70.2545 50.0781 70.0684 50.207C69.8822 50.3359 69.6525 50.3856 69.4297 50.3451C69.2069 50.3046 69.0093 50.1773 68.8804 49.9912C68.7515 49.805 68.7018 49.5753 68.7423 49.3525" fill="#39364F"/>
<path d="M69.07 54.1015L64.4332 53.7319C64.4052 53.1915 64.4332 51.0971 64.4332 51.0971C64.4332 51.0971 62.504 50.7975 62.4732 48.8571C62.4424 46.9167 62.784 42.4983 62.784 42.4983C63.8803 42.0276 65.0823 41.8574 66.2662 42.005C67.4502 42.1526 68.5735 42.6128 69.5208 43.3383L69.8008 43.5567L69.07 54.1015Z" fill="#FFBE9D"/>
<path d="M63.2376 45.6454C63.2787 45.6082 63.3079 45.5597 63.3215 45.506C63.3351 45.4523 63.3324 45.3957 63.3138 45.3435C63.2952 45.2913 63.2615 45.2458 63.217 45.2127C63.1725 45.1797 63.1193 45.1606 63.0639 45.1578C63.0086 45.1551 62.9536 45.1688 62.9061 45.1973C62.8586 45.2258 62.8205 45.2677 62.7969 45.3178C62.7732 45.368 62.7649 45.424 62.7731 45.4788C62.7813 45.5336 62.8055 45.5847 62.8428 45.6258C62.8926 45.6806 62.9621 45.7134 63.0361 45.7171C63.1101 45.7208 63.1826 45.695 63.2376 45.6454Z" fill="#39364F"/>
<path d="M62.7701 45.3851C62.8009 45.4187 62.9885 45.2731 63.2545 45.2703C63.5205 45.2675 63.7137 45.4075 63.7417 45.3739C63.7697 45.3403 63.7277 45.2983 63.6437 45.2339C63.5309 45.1514 63.3942 45.1081 63.2545 45.1107C63.114 45.1121 62.9777 45.1582 62.8653 45.2423C62.7841 45.3095 62.7561 45.3711 62.7701 45.3851Z" fill="#39364F"/>
<path d="M65.7853 45.4801C65.738 45.5092 65.7004 45.5516 65.6773 45.6021C65.6542 45.6525 65.6466 45.7087 65.6555 45.7635C65.6643 45.8183 65.6893 45.8692 65.7272 45.9098C65.765 45.9504 65.8141 45.9788 65.8682 45.9914C65.9222 46.004 65.9788 46.0003 66.0307 45.9807C66.0827 45.9611 66.1276 45.9265 66.1598 45.8813C66.192 45.8361 66.2101 45.7824 66.2117 45.7269C66.2134 45.6714 66.1985 45.6167 66.1689 45.5697C66.1297 45.5073 66.0674 45.4628 65.9955 45.4461C65.9237 45.4293 65.8482 45.4415 65.7853 45.4801Z" fill="#39364F"/>
<path d="M65.6538 45.6174C65.6846 45.651 65.875 45.5054 66.141 45.5054C66.407 45.5054 66.5974 45.6398 66.6282 45.6062C66.659 45.5726 66.6114 45.5306 66.5274 45.4662C66.414 45.3854 66.2775 45.3432 66.1382 45.3458C65.9983 45.3449 65.8621 45.3913 65.7518 45.4774C65.6678 45.5418 65.6398 45.6034 65.6538 45.6174Z" fill="#39364F"/>
<path d="M64.59 47.8098C64.4532 47.7563 64.3084 47.726 64.1616 47.7202C64.0916 47.7202 64.0356 47.695 64.03 47.6586C64.0297 47.5891 64.047 47.5207 64.0804 47.4598C64.1504 47.2834 64.2176 47.107 64.2904 46.9194C64.4903 46.4629 64.6432 45.9872 64.7468 45.4998C64.5016 45.9335 64.3017 46.3914 64.1504 46.8662C64.0804 47.0538 64.016 47.233 63.9516 47.4094C63.9083 47.4959 63.8945 47.5942 63.9124 47.6894C63.9223 47.7162 63.9383 47.7403 63.9593 47.7597C63.9802 47.7792 64.0054 47.7934 64.0328 47.8014C64.0712 47.8117 64.1107 47.8173 64.1504 47.8182C64.2964 47.8393 64.4449 47.8364 64.59 47.8098Z" fill="#39364F"/>
<path d="M65.4524 48.1039C65.7324 47.9387 64.6908 48.5071 64.1504 48.4819C64.2421 48.6191 64.3774 48.7213 64.5344 48.7721C64.6914 48.8229 64.8609 48.8193 65.0156 48.7619C65.5924 48.5631 65.4524 48.1039 65.4524 48.1039Z" fill="#FAFAFA"/>
<path d="M64.4331 51.069C65.3253 51.0861 66.2025 50.8376 66.9531 50.355C66.9531 50.355 66.3595 51.741 64.4331 51.5674V51.069Z" fill="#EB996E"/>
<path d="M69.5181 45.5586C69.5573 45.5362 70.8873 45.105 71.0581 46.7402C71.2289 48.3754 69.5237 48.0058 69.5153 47.9582C69.5069 47.9106 69.5181 45.5586 69.5181 45.5586Z" fill="#FFBE9D"/>
<path d="M69.9573 47.3338C69.9573 47.3338 69.9853 47.3506 70.0357 47.3674C70.0712 47.3787 70.1085 47.3827 70.1455 47.3793C70.1825 47.376 70.2185 47.3653 70.2513 47.3478C70.3492 47.27 70.4247 47.1675 70.4699 47.0509C70.5152 46.9343 70.5286 46.8078 70.5089 46.6842C70.4991 46.5435 70.458 46.4067 70.3885 46.2838C70.3678 46.2343 70.3352 46.1905 70.2938 46.1564C70.2523 46.1222 70.2031 46.0987 70.1505 46.0878C70.1169 46.0821 70.0824 46.0885 70.0531 46.1059C70.0238 46.1234 70.0018 46.1507 69.9909 46.183C69.9741 46.2306 69.9909 46.2642 69.9909 46.267C69.9909 46.2698 69.9517 46.2418 69.9573 46.1746C69.9637 46.1338 69.9823 46.0957 70.0105 46.0654C70.0522 46.0265 70.1075 46.0054 70.1645 46.0066C70.2327 46.0138 70.2981 46.0377 70.3548 46.0763C70.4115 46.1149 70.4577 46.167 70.4893 46.2278C70.5725 46.3626 70.6224 46.5152 70.6349 46.673C70.6586 46.8179 70.6387 46.9665 70.5779 47.1001C70.5171 47.2336 70.4181 47.3462 70.2933 47.4234C70.251 47.4407 70.2054 47.4482 70.1598 47.4453C70.1142 47.4423 70.0699 47.4291 70.0301 47.4066C69.9629 47.373 69.9517 47.3366 69.9573 47.3338Z" fill="#EB996E"/>
<path d="M62.8035 42.4198C63.1731 43.103 63.9851 43.4474 64.7635 43.481C65.5404 43.4652 66.3102 43.3292 67.0455 43.0778C67.4515 42.9658 67.9471 42.879 68.2439 43.1758C68.4015 43.3672 68.4911 43.6055 68.4987 43.8534C68.5663 44.3941 68.5738 44.9406 68.5211 45.483C68.4819 45.6977 68.4819 45.9178 68.5211 46.1326C68.5419 46.2401 68.5948 46.3388 68.6727 46.4158C68.7507 46.4927 68.8501 46.5443 68.9579 46.5638C69.2995 46.5918 69.5179 46.2082 69.6215 45.8862C69.7971 45.4459 69.9239 44.9877 69.9995 44.5198C70.0727 44.0483 69.9849 43.566 69.7503 43.1506C69.4347 42.7154 69.0014 42.3793 68.5015 42.1818C67.5458 41.6915 66.4947 41.4153 65.4215 41.3726C64.8836 41.357 64.3479 41.4479 63.8453 41.6401C63.3426 41.8324 62.8829 42.1221 62.4927 42.4926" fill="#39364F"/>
<path d="M62.2407 127.181L62.2267 124.605L67.0483 124.547L67.1099 128.313L66.8103 128.335C65.4803 128.427 60.0427 128.699 59.1495 128.441C58.1499 128.153 62.2407 127.181 62.2407 127.181Z" fill="#2176FF"/>
<path d="M65.3599 128.296C65.4271 127.888 65.6424 127.519 65.9647 127.26C66.2792 127.002 66.6789 126.872 67.0847 126.896L67.1015 128.245L65.3599 128.296Z" fill="#2176FF"/>
<path d="M60.2443 127.728C60.2443 127.728 58.8135 128.159 58.9955 128.394C59.1775 128.629 64.6823 128.556 67.1155 128.313V128.206L60.6923 128.344C60.6923 128.344 60.5243 127.736 60.2443 127.728Z" fill="#2176FF"/>
<path d="M67.1771 128.201H67.0931L66.8551 128.217L65.9787 128.268C65.2395 128.304 64.2175 128.341 63.0863 128.355C61.9551 128.369 60.9331 128.355 60.1911 128.355L59.3147 128.329H60.1911C60.9331 128.329 61.9551 128.329 63.0863 128.329C64.2175 128.329 65.2367 128.285 65.9787 128.259L66.8551 128.229H67.0931L67.1771 128.201Z" fill="#39364F"/>
<path d="M60.67 128.416C60.6303 128.272 60.5739 128.133 60.502 128.002C60.4133 127.88 60.3109 127.768 60.1968 127.669C60.3485 127.721 60.4746 127.829 60.5496 127.971C60.6435 128.099 60.6865 128.258 60.67 128.416Z" fill="#39364F"/>
<path d="M62.0953 127.677C62.0813 127.677 62.0113 127.604 61.9413 127.495C61.8713 127.386 61.8209 127.288 61.8349 127.279C61.8489 127.271 61.9189 127.352 61.9889 127.461C62.0589 127.571 62.1093 127.669 62.0953 127.677Z" fill="#39364F"/>
<path d="M62.4815 127.467C62.4815 127.467 62.3947 127.428 62.3107 127.355C62.2267 127.282 62.1679 127.212 62.1791 127.198C62.1903 127.184 62.2659 127.237 62.3499 127.31C62.4339 127.383 62.4927 127.453 62.4815 127.467Z" fill="#39364F"/>
<path d="M62.7252 127.008C62.6447 127.038 62.5586 127.049 62.4732 127.041C62.3886 127.055 62.3021 127.047 62.2212 127.019C62.2212 127.002 62.3332 126.988 62.4704 126.985C62.5559 126.973 62.6431 126.981 62.7252 127.008Z" fill="#39364F"/>
<path d="M62.8037 126.7C62.721 126.756 62.6234 126.785 62.5237 126.784C62.4291 126.801 62.3315 126.789 62.2437 126.75C62.3361 126.734 62.4298 126.726 62.5237 126.725C62.616 126.708 62.7097 126.7 62.8037 126.7Z" fill="#39364F"/>
<path d="M61.9271 127.26C61.8243 127.277 61.7192 127.277 61.6163 127.26C61.5042 127.248 61.3935 127.226 61.2859 127.193C61.22 127.174 61.1561 127.149 61.0955 127.117C61.0585 127.096 61.0305 127.062 61.0171 127.022C61.012 126.999 61.0135 126.975 61.0214 126.952C61.0294 126.93 61.0434 126.91 61.0619 126.896C61.1794 126.835 61.3148 126.817 61.444 126.846C61.5731 126.876 61.6878 126.95 61.7675 127.055C61.8164 127.115 61.8517 127.185 61.8711 127.26C61.8851 127.313 61.8851 127.344 61.8711 127.344C61.8391 127.248 61.7908 127.159 61.7283 127.081C61.6538 126.998 61.5563 126.939 61.4483 126.913C61.3884 126.893 61.3251 126.885 61.2621 126.89C61.1992 126.895 61.1378 126.912 61.0815 126.941C61.0311 126.98 61.0507 127.036 61.1067 127.069C61.1629 127.099 61.222 127.122 61.2831 127.139C61.3875 127.174 61.4942 127.201 61.6023 127.221C61.8067 127.26 61.9271 127.26 61.9271 127.26Z" fill="#39364F"/>
<path d="M61.846 127.274C61.846 127.274 61.7956 127.201 61.8068 127.061C61.816 126.979 61.8438 126.901 61.888 126.831C61.914 126.785 61.9512 126.746 61.9962 126.718C62.0413 126.691 62.0927 126.675 62.1456 126.672C62.1771 126.679 62.2048 126.697 62.223 126.724C62.2412 126.75 62.2486 126.783 62.2436 126.815C62.2362 126.864 62.2181 126.911 62.1904 126.952C62.1513 127.021 62.1033 127.085 62.0476 127.142C61.9524 127.237 61.874 127.277 61.8712 127.268C61.8684 127.26 61.9328 127.212 62.0168 127.114C62.0655 127.056 62.1087 126.993 62.1456 126.927C62.1876 126.859 62.2128 126.742 62.1456 126.731C62.0784 126.719 61.9888 126.801 61.9412 126.862C61.8989 126.924 61.8703 126.993 61.8572 127.067C61.8475 127.135 61.8437 127.205 61.846 127.274Z" fill="#39364F"/>
<path d="M67.0623 126.885C67.0623 126.885 66.9223 126.885 66.7039 126.901C66.4205 126.937 66.1529 127.052 65.9311 127.232C65.7118 127.414 65.5471 127.653 65.4551 127.923C65.3851 128.131 65.3795 128.271 65.3683 128.268C65.3571 128.265 65.3683 128.234 65.3683 128.173C65.3766 128.084 65.3935 127.997 65.4187 127.912C65.5014 127.627 65.6685 127.374 65.8979 127.186C66.1273 126.998 66.4083 126.884 66.7039 126.859C66.7969 126.85 66.8908 126.85 66.9839 126.859C67.0287 126.871 67.0623 126.879 67.0623 126.885Z" fill="#39364F"/>
<path d="M66.5497 124.883C66.6038 125.542 66.6206 126.204 66.6001 126.865C66.5611 126.536 66.5424 126.205 66.5441 125.874C66.5272 125.544 66.5291 125.213 66.5497 124.883Z" fill="#39364F"/>
<path d="M64.7468 127.834C64.517 127.891 64.2807 127.917 64.044 127.912C63.8077 127.929 63.5702 127.913 63.3384 127.865C63.3384 127.848 63.6548 127.865 64.044 127.865C64.4332 127.865 64.7468 127.82 64.7468 127.834Z" fill="#39364F"/>
<path d="M65.6929 127.82C65.6929 127.834 65.6677 127.887 65.6369 127.96C65.6061 128.033 65.5893 128.097 65.5725 128.097C65.5557 128.097 65.5473 128.021 65.5725 127.937C65.5977 127.853 65.6817 127.82 65.6929 127.82Z" fill="#39364F"/>
<path d="M66.0432 127.372C66.0432 127.372 66.0236 127.436 65.976 127.487C65.9284 127.537 65.878 127.571 65.864 127.56C65.85 127.548 65.8836 127.498 65.934 127.445C65.9844 127.392 66.032 127.361 66.0432 127.372Z" fill="#39364F"/>
<path d="M66.5501 127.165C66.5501 127.181 66.4829 127.181 66.4129 127.207C66.3429 127.232 66.2925 127.271 66.2785 127.26C66.2645 127.249 66.3065 127.181 66.3933 127.151C66.4801 127.12 66.5501 127.148 66.5501 127.165Z" fill="#39364F"/>
<path d="M66.9111 127.064C66.9111 127.078 66.8915 127.103 66.8523 127.12C66.8131 127.137 66.7739 127.137 66.7683 127.12C66.7627 127.103 66.7907 127.078 66.8299 127.064C66.8691 127.05 66.9055 127.05 66.9111 127.064Z" fill="#39364F"/>
<path d="M86.8862 125.86L86.0994 123.41L81.499 124.849L82.619 128.45L82.899 128.377C84.1926 128.052 89.4454 126.624 90.2154 126.101C91.0722 125.504 86.8862 125.86 86.8862 125.86Z" fill="#2176FF"/>
<path d="M84.2657 127.879C84.0761 127.512 83.7582 127.228 83.3725 127.081C82.9924 126.934 82.5711 126.934 82.1909 127.081L82.5941 128.369L84.2657 127.879Z" fill="#2176FF"/>
<path d="M88.9499 125.751C88.9499 125.751 90.4423 125.714 90.3499 125.994C90.2575 126.274 84.9934 127.918 82.6106 128.439L82.5854 128.332L88.7454 126.47C88.7454 126.47 88.6867 125.86 88.9499 125.751Z" fill="#2176FF"/>
<path d="M82.5098 128.352C82.5367 128.355 82.564 128.355 82.591 128.352L82.8234 128.293L83.6634 128.069C84.3774 127.873 85.3602 127.59 86.441 127.254C87.5218 126.918 88.4906 126.591 89.1906 126.344L90.0166 126.05L90.2378 125.963L90.3162 125.933C90.2885 125.936 90.2613 125.943 90.235 125.952L90.0082 126.028L89.1682 126.308C88.4654 126.543 87.4882 126.868 86.4158 127.201C85.3434 127.534 84.355 127.825 83.6438 128.041L82.8038 128.285L82.5742 128.352H82.5098Z" fill="#39364F"/>
<path d="M88.751 126.54C88.7444 126.39 88.7547 126.24 88.7818 126.092C88.8282 125.949 88.8911 125.812 88.9694 125.683C88.8501 125.787 88.7652 125.924 88.7262 126.078C88.6871 126.231 88.6958 126.392 88.751 126.54Z" fill="#39364F"/>
<path d="M87.1774 126.277C87.1942 126.277 87.2334 126.182 87.267 126.056C87.3006 125.93 87.3174 125.821 87.3006 125.818C87.2838 125.815 87.2446 125.913 87.211 126.039C87.1827 126.115 87.1712 126.196 87.1774 126.277Z" fill="#39364F"/>
<path d="M86.7437 126.196C86.7577 126.196 86.8165 126.134 86.8725 126.036C86.9285 125.938 86.9649 125.857 86.9509 125.849C86.9369 125.84 86.8781 125.91 86.8221 126.008C86.7661 126.106 86.7297 126.187 86.7437 126.196Z" fill="#39364F"/>
<path d="M86.3711 125.835C86.4575 125.841 86.5441 125.825 86.6231 125.79C86.7072 125.774 86.7867 125.74 86.8555 125.689C86.7702 125.686 86.6853 125.702 86.6063 125.734C86.522 125.752 86.4421 125.786 86.3711 125.835Z" fill="#39364F"/>
<path d="M86.1948 125.555C86.2864 125.58 86.3833 125.58 86.4748 125.555C86.5729 125.541 86.6647 125.498 86.738 125.431C86.6427 125.443 86.5489 125.465 86.458 125.496C86.3688 125.508 86.2807 125.528 86.1948 125.555Z" fill="#39364F"/>
<path d="M87.2085 125.826C87.3124 125.813 87.413 125.781 87.5053 125.731C87.6041 125.685 87.6979 125.628 87.7853 125.563C87.8428 125.527 87.8955 125.484 87.9421 125.434C87.9568 125.419 87.9684 125.401 87.9761 125.381C87.9838 125.362 87.9875 125.341 87.9869 125.32C87.9857 125.296 87.9772 125.273 87.9627 125.255C87.9481 125.236 87.9283 125.223 87.9057 125.216C87.8217 125.201 87.7355 125.206 87.6536 125.23C87.5716 125.253 87.4962 125.295 87.433 125.353C87.3698 125.41 87.3205 125.481 87.2889 125.56C87.2573 125.639 87.2441 125.725 87.2505 125.81C87.249 125.839 87.2548 125.867 87.2673 125.894C87.2683 125.793 87.2872 125.693 87.3233 125.6C87.3658 125.501 87.4357 125.416 87.5249 125.356C87.5758 125.318 87.6337 125.291 87.6953 125.276C87.7569 125.261 87.8208 125.259 87.8833 125.269C87.9421 125.289 87.9421 125.35 87.8833 125.398C87.8404 125.444 87.7925 125.485 87.7405 125.521C87.6519 125.586 87.5583 125.644 87.4605 125.695C87.3177 125.782 87.2057 125.818 87.2085 125.826Z" fill="#39364F"/>
<path d="M87.2897 125.818C87.3068 125.745 87.2958 125.668 87.2589 125.602C87.2267 125.526 87.1756 125.46 87.1105 125.409C87.0731 125.375 87.0281 125.351 86.9794 125.338C86.9306 125.326 86.8796 125.325 86.8305 125.336C86.8021 125.352 86.7809 125.378 86.7715 125.409C86.762 125.439 86.7651 125.473 86.7801 125.501C86.8023 125.547 86.8337 125.587 86.8725 125.619C86.9319 125.672 86.9977 125.717 87.0685 125.753C87.1312 125.792 87.2022 125.815 87.2757 125.821C87.2757 125.821 87.2001 125.784 87.0881 125.717C87.0228 125.678 86.9626 125.631 86.9089 125.577C86.8501 125.529 86.7857 125.426 86.8557 125.389C86.8972 125.382 86.9399 125.384 86.9806 125.395C87.0214 125.406 87.0591 125.426 87.0909 125.454C87.1504 125.497 87.1993 125.554 87.2337 125.619C87.2587 125.683 87.2774 125.75 87.2897 125.818Z" fill="#39364F"/>
<path d="M82.2104 127.064C82.2104 127.064 82.3393 127.011 82.5549 126.969C82.8356 126.915 83.1258 126.941 83.3922 127.044C83.6587 127.148 83.8906 127.325 84.0613 127.554C84.1929 127.73 84.2405 127.859 84.2517 127.856C84.2472 127.823 84.2367 127.791 84.2208 127.761C84.186 127.68 84.1439 127.602 84.0949 127.529C83.9257 127.286 83.6892 127.098 83.4145 126.988C83.1374 126.883 82.8352 126.862 82.5465 126.929C82.4599 126.949 82.3755 126.977 82.2945 127.013C82.2642 127.026 82.2359 127.043 82.2104 127.064Z" fill="#39364F"/>
<path d="M82.0898 125C82.1553 125.324 82.2404 125.644 82.3446 125.958C82.4307 126.277 82.5345 126.591 82.6554 126.899C82.5907 126.574 82.5056 126.255 82.4006 125.941C82.3151 125.622 82.2113 125.308 82.0898 125Z" fill="#39364F"/>
<path d="M84.7051 127.26C84.9411 127.244 85.1738 127.196 85.3967 127.117C85.6264 127.058 85.8476 126.969 86.0547 126.854C86.0547 126.837 85.7523 126.949 85.3799 127.061C85.0075 127.173 84.7023 127.232 84.7051 127.26Z" fill="#39364F"/>
<path d="M83.8037 127.54C83.8037 127.54 83.8457 127.596 83.8989 127.655C83.9521 127.713 83.9885 127.769 84.0025 127.764C84.0165 127.758 84.0025 127.683 83.9437 127.615C83.8849 127.548 83.8093 127.515 83.8037 127.54Z" fill="#39364F"/>
<path d="M83.3306 127.212C83.3306 127.226 83.367 127.265 83.4314 127.299C83.4958 127.333 83.549 127.349 83.5574 127.335C83.5658 127.321 83.521 127.282 83.4566 127.249C83.3922 127.215 83.3502 127.198 83.3306 127.212Z" fill="#39364F"/>
<path d="M82.7901 127.173C82.7901 127.187 82.8573 127.173 82.9329 127.173C83.0085 127.173 83.0673 127.195 83.0757 127.173C83.0841 127.151 83.0281 127.109 82.9357 127.106C82.8433 127.103 82.7733 127.159 82.7901 127.173Z" fill="#39364F"/>
<path d="M82.4092 127.19C82.4092 127.204 82.44 127.221 82.4848 127.224C82.5296 127.226 82.5632 127.224 82.5632 127.198C82.5632 127.173 82.5296 127.168 82.4876 127.165C82.4456 127.162 82.4092 127.173 82.4092 127.19Z" fill="#39364F"/>
<path d="M58.959 76.0479L61.2102 126.07L68.7198 126.229L67.471 84.3498L81.0818 126.728L87.2194 125.048L73.5246 76.0479" fill="#39364F"/>
<path d="M80.7598 126.442L81.1098 127.117L87.6142 125.221L87.2194 124.129L80.7598 126.442Z" fill="#39364F"/>
<path d="M86.4691 123.88C86.5083 123.866 86.5643 123.947 86.5979 124.059C86.6315 124.171 86.6287 124.269 86.5979 124.281C86.5671 124.292 86.4999 124.213 86.4663 124.101C86.4327 123.989 86.4299 123.9 86.4691 123.88Z" fill="#39364F"/>
<path d="M85.9818 122.253C86.021 122.253 86.105 122.416 86.1722 122.64C86.2394 122.864 86.2646 123.054 86.2254 123.068C86.1862 123.082 86.1022 122.906 86.0322 122.682C85.9622 122.458 85.9426 122.267 85.9818 122.253Z" fill="#39364F"/>
<path d="M85.4947 120.629C85.5339 120.629 85.6179 120.792 85.6851 121.016C85.7523 121.24 85.7775 121.43 85.7383 121.441C85.6991 121.453 85.6151 121.282 85.5479 121.058C85.4807 120.834 85.4555 120.643 85.4947 120.629Z" fill="#39364F"/>
<path d="M85.0074 119.005C85.0466 119.005 85.1306 119.168 85.1978 119.392C85.265 119.616 85.2902 119.806 85.251 119.817C85.2118 119.829 85.1277 119.658 85.0605 119.434C84.9933 119.21 84.9682 119.017 85.0074 119.005Z" fill="#39364F"/>
<path d="M84.5201 117.381C84.5593 117.381 84.6433 117.544 84.7105 117.768C84.7777 117.992 84.8029 118.182 84.7637 118.193C84.7245 118.205 84.6405 118.034 84.5733 117.81C84.5061 117.586 84.4697 117.393 84.5201 117.381Z" fill="#39364F"/>
<path d="M84.0332 115.757C84.0724 115.757 84.1592 115.92 84.2264 116.144C84.2936 116.368 84.316 116.558 84.2768 116.569C84.2376 116.581 84.1536 116.41 84.0864 116.186C84.0192 115.962 83.994 115.78 84.0332 115.757Z" fill="#39364F"/>
<path d="M83.5459 114.133C83.5851 114.133 83.6719 114.296 83.7391 114.52C83.8063 114.744 83.8287 114.934 83.7895 114.945C83.7503 114.956 83.6663 114.786 83.5991 114.562C83.5319 114.338 83.5067 114.145 83.5459 114.133Z" fill="#39364F"/>
<path d="M83.0699 112.51C83.1091 112.51 83.1959 112.669 83.2631 112.893C83.3303 113.117 83.3527 113.31 83.3135 113.322C83.2743 113.333 83.1903 113.162 83.1231 112.935C83.0559 112.708 83.0195 112.521 83.0699 112.51Z" fill="#39364F"/>
<path d="M82.5713 110.885C82.6105 110.885 82.6973 111.045 82.7645 111.269C82.8317 111.493 82.8541 111.686 82.8149 111.698C82.7757 111.709 82.6917 111.535 82.6245 111.311C82.5573 111.087 82.5321 110.897 82.5713 110.885Z" fill="#39364F"/>
<path d="M82.0845 109.261C82.1237 109.261 82.2105 109.421 82.2777 109.645C82.3449 109.869 82.3673 110.062 82.3281 110.073C82.2889 110.085 82.2049 109.911 82.1377 109.687C82.0705 109.463 82.0453 109.273 82.0845 109.261Z" fill="#39364F"/>
<path d="M81.5969 107.637C81.6361 107.637 81.7229 107.797 81.7901 108.021C81.8573 108.245 81.8797 108.438 81.8405 108.449C81.8013 108.461 81.7173 108.287 81.6501 108.063C81.5829 107.839 81.5605 107.66 81.5969 107.637Z" fill="#39364F"/>
<path d="M81.1101 106.013C81.1493 105.999 81.2361 106.173 81.3033 106.397C81.3705 106.621 81.3929 106.814 81.3537 106.825C81.3145 106.837 81.2305 106.663 81.1633 106.439C81.0961 106.215 81.0737 106.025 81.1101 106.013Z" fill="#39364F"/>
<path d="M80.6228 104.389C80.662 104.375 80.7488 104.549 80.816 104.773C80.8832 104.997 80.9056 105.187 80.8664 105.201C80.8272 105.215 80.7432 105.039 80.676 104.815C80.6088 104.591 80.5864 104.401 80.6228 104.389Z" fill="#39364F"/>
<path d="M80.1355 102.763C80.1747 102.763 80.2615 102.925 80.3287 103.149C80.3959 103.373 80.4183 103.563 80.3791 103.575C80.3399 103.586 80.2559 103.415 80.1887 103.191C80.1215 102.967 80.0991 102.777 80.1355 102.763Z" fill="#39364F"/>
<path d="M79.6482 101.139C79.6874 101.139 79.7742 101.301 79.8414 101.525C79.9086 101.749 79.931 101.939 79.8918 101.951C79.8526 101.962 79.7686 101.791 79.7014 101.567C79.6342 101.343 79.6118 101.15 79.6482 101.139Z" fill="#39364F"/>
<path d="M79.1638 99.5146C79.2002 99.5146 79.287 99.677 79.3542 99.901C79.4214 100.125 79.4438 100.315 79.4046 100.327C79.3654 100.338 79.2814 100.167 79.2142 99.943C79.147 99.719 79.1246 99.5398 79.1638 99.5146Z" fill="#39364F"/>
<path d="M78.6765 97.8906C78.7129 97.8906 78.7997 98.053 78.8669 98.277C78.9341 98.501 78.9565 98.6914 78.9201 98.7026C78.8837 98.7138 78.7941 98.543 78.7269 98.319C78.6597 98.095 78.6373 97.9018 78.6765 97.8906Z" fill="#39364F"/>
<path d="M78.1897 96.2666C78.2261 96.2666 78.3129 96.429 78.3801 96.653C78.4473 96.877 78.4697 97.0674 78.4333 97.0786C78.3969 97.0898 78.3073 96.919 78.2401 96.695C78.1729 96.471 78.1505 96.2778 78.1897 96.2666Z" fill="#39364F"/>
<path d="M77.7024 94.6426C77.7388 94.6426 77.8256 94.8022 77.8928 95.029C77.96 95.2558 77.9824 95.4434 77.946 95.4546C77.9096 95.4658 77.82 95.295 77.7528 95.0682C77.6856 94.8414 77.6632 94.6538 77.7024 94.6426Z" fill="#39364F"/>
<path d="M77.2152 93.0186C77.2516 93.0186 77.3384 93.1782 77.4056 93.4022C77.4728 93.6262 77.4952 93.8194 77.4588 93.8306C77.4224 93.8418 77.3328 93.6682 77.2656 93.4442C77.1984 93.2202 77.19 93.0298 77.2152 93.0186Z" fill="#39364F"/>
<path d="M76.7278 91.3945C76.7642 91.3945 76.851 91.5541 76.9182 91.7781C76.9854 92.0021 77.0078 92.1953 76.9714 92.2065C76.935 92.2177 76.8454 92.0441 76.7782 91.8201C76.711 91.5961 76.6886 91.4197 76.7278 91.3945Z" fill="#39364F"/>
<path d="M76.241 89.7705C76.2802 89.7705 76.3642 89.9301 76.4314 90.1541C76.4986 90.3781 76.5238 90.5713 76.4846 90.5825C76.4454 90.5937 76.3586 90.4201 76.2914 90.1961C76.2242 89.9721 76.2018 89.7817 76.241 89.7705Z" fill="#39364F"/>
<path d="M75.7537 88.1465C75.7929 88.1325 75.8769 88.3061 75.9441 88.5301C76.0113 88.7541 76.0365 88.9473 75.9973 88.9585C75.9581 88.9697 75.8713 88.7961 75.8041 88.5721C75.7369 88.3481 75.7145 88.1577 75.7537 88.1465Z" fill="#39364F"/>
<path d="M75.2661 86.5225C75.3053 86.5085 75.3893 86.6821 75.4565 86.9061C75.5237 87.1301 75.5489 87.3205 75.5097 87.3345C75.4705 87.3485 75.3837 87.1721 75.3165 86.9481C75.2493 86.7241 75.2297 86.5337 75.2661 86.5225Z" fill="#39364F"/>
<path d="M74.7791 84.8958C74.8183 84.8958 74.9023 85.0581 74.9695 85.2821C75.0367 85.5061 75.0619 85.6966 75.0227 85.7078C74.9835 85.719 74.8967 85.5482 74.8295 85.3242C74.7623 85.1002 74.7399 84.9098 74.7791 84.8958Z" fill="#39364F"/>
<path d="M74.2918 83.2717C74.331 83.2717 74.4149 83.4341 74.4821 83.6581C74.5493 83.8821 74.5745 84.0725 74.5353 84.0837C74.4961 84.0949 74.4093 83.9241 74.3421 83.7001C74.2749 83.4761 74.2526 83.2829 74.2918 83.2717Z" fill="#39364F"/>
<path d="M73.8047 81.6479C73.8439 81.6479 73.9279 81.8104 73.9951 82.0344C74.0623 82.2584 74.0875 82.4487 74.0483 82.4599C74.0091 82.4711 73.9251 82.3003 73.8579 82.0763C73.7907 81.8523 73.7655 81.6591 73.8047 81.6479Z" fill="#39364F"/>
<path d="M73.3177 80.0239C73.3569 80.0239 73.4409 80.1863 73.5081 80.4103C73.5753 80.6343 73.6005 80.8247 73.5613 80.8359C73.5221 80.8471 73.4381 80.6763 73.3709 80.4523C73.3037 80.2283 73.2701 80.0351 73.3177 80.0239Z" fill="#39364F"/>
<path d="M72.8301 78.3999C72.8693 78.3999 72.9533 78.5623 73.0205 78.7863C73.0877 79.0103 73.1129 79.2007 73.0737 79.2119C73.0345 79.2231 72.9505 79.0523 72.8833 78.8283C72.8161 78.6043 72.7909 78.4111 72.8301 78.3999Z" fill="#39364F"/>
<path d="M72.4662 77.1846C72.5054 77.1846 72.5642 77.2546 72.595 77.3666C72.6258 77.4786 72.6258 77.5766 72.595 77.5878C72.5642 77.599 72.497 77.5178 72.4662 77.4086C72.4354 77.2994 72.4298 77.1958 72.4662 77.1846Z" fill="#39364F"/>
<path d="M67.4237 125.821C67.4657 125.821 67.5021 125.91 67.5077 126.025C67.5133 126.14 67.4881 126.235 67.4461 126.238C67.4041 126.241 67.3705 126.148 67.3621 126.033C67.3537 125.919 67.3901 125.821 67.4237 125.821Z" fill="#39364F"/>
<path d="M67.3562 124.152C67.3954 124.152 67.4346 124.337 67.443 124.566C67.4514 124.796 67.4262 124.983 67.387 124.986C67.3478 124.989 67.3086 124.801 67.2974 124.572C67.2862 124.342 67.3142 124.155 67.3562 124.152Z" fill="#39364F"/>
<path d="M67.3032 122.5C67.3452 122.5 67.3816 122.685 67.39 122.914C67.3984 123.144 67.3676 123.331 67.3284 123.334C67.2892 123.337 67.25 123.149 67.2444 122.92C67.2388 122.69 67.264 122.5 67.3032 122.5Z" fill="#39364F"/>
<path d="M67.261 120.82C67.303 120.82 67.3394 121.005 67.345 121.234C67.3506 121.464 67.3226 121.651 67.2834 121.651C67.2442 121.651 67.205 121.467 67.1994 121.237C67.1938 121.007 67.2218 120.82 67.261 120.82Z" fill="#39364F"/>
<path d="M67.222 119.14C67.264 119.14 67.3004 119.325 67.306 119.554C67.3116 119.784 67.2836 119.971 67.2416 119.974C67.1996 119.977 67.166 119.789 67.1604 119.557C67.1548 119.325 67.1828 119.14 67.222 119.14Z" fill="#39364F"/>
<path d="M67.1801 117.482C67.2193 117.482 67.2585 117.667 67.2641 117.897C67.2697 118.126 67.2417 118.317 67.2025 118.317C67.1633 118.317 67.1241 118.132 67.1185 117.902C67.1129 117.673 67.1381 117.482 67.1801 117.482Z" fill="#39364F"/>
<path d="M67.1238 115.813C67.163 115.813 67.2022 115.998 67.2106 116.228C67.219 116.457 67.1938 116.648 67.1546 116.648C67.1154 116.648 67.0734 116.463 67.065 116.233C67.0566 116.004 67.0846 115.816 67.1238 115.813Z" fill="#39364F"/>
<path d="M67.0541 114.147C67.0933 114.147 67.1353 114.332 67.1437 114.562C67.1521 114.791 67.1297 114.979 67.0877 114.982C67.0457 114.985 67.0093 114.797 66.9981 114.567C66.9869 114.338 67.0149 114.15 67.0541 114.147Z" fill="#39364F"/>
<path d="M66.9895 112.481C67.0287 112.481 67.0679 112.666 67.0763 112.896C67.0847 113.125 67.0595 113.313 67.0203 113.316C66.9811 113.319 66.9419 113.131 66.9307 112.901C66.9195 112.672 66.9475 112.481 66.9895 112.481Z" fill="#39364F"/>
<path d="M66.9309 110.815C66.9701 110.815 67.0093 110.997 67.0177 111.23C67.0261 111.462 66.9981 111.647 66.9589 111.647C66.9197 111.647 66.8805 111.465 66.8721 111.233C66.8637 111 66.8917 110.815 66.9309 110.815Z" fill="#39364F"/>
<path d="M66.8804 109.147C66.9196 109.147 66.9588 109.332 66.9644 109.561C66.97 109.791 66.9448 109.978 66.9056 109.978C66.8664 109.978 66.8272 109.796 66.8188 109.564C66.8104 109.332 66.83 109.147 66.8804 109.147Z" fill="#39364F"/>
<path d="M66.8298 107.478C66.8718 107.478 66.9082 107.663 66.9138 107.892C66.9194 108.122 66.8914 108.312 66.8522 108.312C66.813 108.312 66.7738 108.127 66.7682 107.898C66.7626 107.668 66.7962 107.481 66.8298 107.478Z" fill="#39364F"/>
<path d="M66.7989 105.812C66.8409 105.812 66.8773 105.997 66.8801 106.226C66.8829 106.456 66.8577 106.643 66.8157 106.646C66.7737 106.649 66.7401 106.459 66.7345 106.229C66.7289 105.999 66.7597 105.812 66.7989 105.812Z" fill="#39364F"/>
<path d="M66.7711 104.143C66.8131 104.143 66.8467 104.328 66.8523 104.56C66.8579 104.793 66.8243 104.977 66.7851 104.977C66.7459 104.977 66.7095 104.793 66.7067 104.56C66.7039 104.328 66.7319 104.143 66.7711 104.143Z" fill="#39364F"/>
<path d="M66.7515 102.477C66.7935 102.477 66.8271 102.662 66.8299 102.891C66.8327 103.121 66.8019 103.309 66.7599 103.309C66.7179 103.309 66.6871 103.124 66.6843 102.894C66.6815 102.665 66.7123 102.477 66.7515 102.477Z" fill="#39364F"/>
<path d="M66.7404 100.808C66.7796 100.808 66.8132 100.993 66.816 101.225C66.8188 101.458 66.7852 101.643 66.746 101.643C66.7068 101.643 66.6704 101.455 66.6704 101.225C66.6704 100.996 66.7012 100.808 66.7404 100.808Z" fill="#39364F"/>
<path d="M66.7373 99.1394C66.7765 99.1394 66.8101 99.327 66.8101 99.5566C66.8101 99.7862 66.7765 99.9738 66.7373 99.9738C66.6981 99.9738 66.6646 99.7862 66.6646 99.5566C66.6646 99.327 66.6953 99.1394 66.7373 99.1394Z" fill="#39364F"/>
<path d="M66.7404 97.4734C66.7824 97.4734 66.8132 97.6582 66.8132 97.8906C66.8132 98.123 66.7768 98.305 66.7376 98.305C66.6984 98.305 66.6648 98.1202 66.6676 97.8878C66.6704 97.6554 66.7012 97.4734 66.7404 97.4734Z" fill="#39364F"/>
<path d="M66.7545 95.8047C66.7937 95.8047 66.8245 95.9923 66.8245 96.2219C66.8245 96.4515 66.7881 96.6391 66.7461 96.6391C66.7041 96.6391 66.6761 96.4515 66.6789 96.2219C66.6817 95.9923 66.7153 95.8047 66.7545 95.8047Z" fill="#39364F"/>
<path d="M66.7768 94.1357C66.816 94.1357 66.8468 94.3233 66.844 94.5557C66.8412 94.7881 66.8048 94.9701 66.7656 94.9701C66.7264 94.9701 66.6928 94.7825 66.6984 94.5529C66.704 94.3233 66.7348 94.1357 66.7768 94.1357Z" fill="#39364F"/>
<path d="M66.8045 92.4697C66.8465 92.4697 66.8745 92.6573 66.8717 92.8869C66.8689 93.1165 66.8297 93.3041 66.7905 93.3041C66.7513 93.3041 66.7205 93.1165 66.7233 92.8841C66.7261 92.6517 66.7653 92.4697 66.8045 92.4697Z" fill="#39364F"/>
<path d="M66.8439 90.801C66.8831 90.801 66.9111 90.9886 66.9055 91.221C66.8999 91.4534 66.8635 91.6354 66.8243 91.6354C66.7851 91.6354 66.7543 91.4478 66.7599 91.2154C66.7655 90.983 66.8019 90.801 66.8439 90.801Z" fill="#39364F"/>
<path d="M66.9027 89.1321C66.9419 89.1321 66.9671 89.3225 66.9587 89.5521C66.9503 89.7817 66.9083 89.9665 66.8691 89.9665C66.8299 89.9665 66.8047 89.7761 66.8131 89.5465C66.8215 89.3169 66.8607 89.1293 66.9027 89.1321Z" fill="#39364F"/>
<path d="M66.9977 87.4663C67.0397 87.4663 67.0593 87.6567 67.0453 87.8863C67.0313 88.1159 66.9837 88.3007 66.9445 88.2979C66.9053 88.2951 66.8829 88.1075 66.8997 87.8779C66.9165 87.6483 66.9585 87.4635 66.9977 87.4663Z" fill="#39364F"/>
<path d="M67.1519 85.8197C67.1911 85.8197 67.2051 86.0129 67.1827 86.2425C67.1603 86.4721 67.1071 86.6513 67.0679 86.6485C67.0287 86.6457 67.0147 86.4553 67.0371 86.2257C67.0595 85.9961 67.1099 85.8001 67.1519 85.8197Z" fill="#39364F"/>
<path d="M67.3141 84.5654C67.3533 84.5654 67.3729 84.669 67.3561 84.7838C67.3393 84.8986 67.2945 84.9882 67.2525 84.9826C67.2105 84.977 67.1937 84.879 67.2105 84.7642C67.2273 84.6494 67.2721 84.5598 67.3141 84.5654Z" fill="#39364F"/>
<path d="M61.0142 126.313L68.955 126.442L68.8934 125.121L61.0142 125.163V126.313Z" fill="#39364F"/>
<path d="M66.2224 76.6833C66.249 76.7831 66.2649 76.8854 66.27 76.9885C66.2896 77.1845 66.3147 77.4729 66.3427 77.8285C66.4015 78.5369 66.4688 79.5085 66.536 80.5949C66.5668 81.1325 66.5976 81.645 66.6256 82.1182C66.6193 82.5279 66.6683 82.9367 66.7711 83.3333C66.8112 83.4624 66.8767 83.5822 66.9637 83.6855C67.0508 83.7889 67.1576 83.8739 67.278 83.9353C67.3677 83.974 67.4617 84.0022 67.558 84.0194C67.558 84.0194 67.53 84.0193 67.4768 84.0333C67.3981 84.0324 67.3203 84.0173 67.2472 83.9885C67.1126 83.9312 66.9914 83.8467 66.8911 83.7402C66.7909 83.6337 66.7138 83.5075 66.6648 83.3698C66.545 82.9662 66.4837 82.5475 66.4827 82.1266C66.4519 81.6534 66.4183 81.1409 66.3819 80.6033C66.3147 79.5225 66.2644 78.5426 66.2336 77.8342C66.2168 77.4814 66.2083 77.193 66.2027 76.9942C66.1952 76.8901 66.2018 76.7856 66.2224 76.6833Z" fill="#39364F"/>
<path d="M66.9925 77.3471C66.9925 77.3667 66.9309 77.4143 66.9225 77.5347C66.9204 77.5656 66.9245 77.5967 66.9346 77.626C66.9447 77.6554 66.9606 77.6824 66.9813 77.7055C67.0079 77.7284 67.0407 77.7431 67.0755 77.7475C67.1104 77.752 67.1458 77.7462 67.1773 77.7307C67.2107 77.7204 67.2402 77.7002 67.2617 77.6726C67.2832 77.6451 67.2958 77.6116 67.2977 77.5767C67.2973 77.5454 67.2904 77.5145 67.2774 77.4861C67.2644 77.4576 67.2455 77.4322 67.2221 77.4115C67.1353 77.3331 67.0457 77.3499 67.0401 77.3275C67.0345 77.3051 67.1353 77.2435 67.2809 77.3275C67.337 77.3499 67.3844 77.39 67.4159 77.4416C67.4474 77.4931 67.4614 77.5536 67.4557 77.6137C67.45 77.6739 67.425 77.7307 67.3844 77.7755C67.3438 77.8203 67.2898 77.8507 67.2305 77.8623C67.1728 77.8895 67.1079 77.8974 67.0453 77.8848C66.9828 77.8722 66.926 77.8397 66.8833 77.7923C66.8513 77.754 66.829 77.7086 66.8183 77.6598C66.8076 77.6111 66.8087 77.5605 66.8217 77.5123C66.8665 77.3499 66.9925 77.3275 66.9925 77.3471Z" fill="#39364F"/>
<path d="M74.0594 78.5399C73.8723 78.6662 73.6586 78.7476 73.435 78.7779C72.8961 78.8855 72.3371 78.8228 71.8354 78.5985C71.3337 78.3743 70.9142 77.9996 70.635 77.5263C70.5081 77.3395 70.4266 77.1257 70.397 76.9019C70.4222 76.9019 70.4978 77.1371 70.7218 77.4619C71.0143 77.8945 71.4202 78.2384 71.895 78.4559C72.3732 78.6666 72.9008 78.7394 73.4182 78.6659C73.8298 78.6155 74.051 78.5091 74.0594 78.5399Z" fill="#39364F"/>
<path d="M61.5714 76.6833C61.6081 76.8629 61.5985 77.0489 61.5434 77.2237C61.4434 77.6603 61.2082 78.0541 60.8714 78.3492C60.5346 78.6443 60.1132 78.8256 59.6674 78.8674C59.4864 78.9007 59.2999 78.8852 59.127 78.8226C59.127 78.8002 59.3342 78.8226 59.6534 78.7666C60.0687 78.6996 60.4569 78.517 60.7733 78.2397C61.0898 77.9624 61.3217 77.6016 61.4425 77.1985C61.5405 76.8877 61.5462 76.6833 61.5714 76.6833Z" fill="#39364F"/>
<path d="M82.8376 71.3355C83.5826 70.4778 83.991 69.3789 83.9869 68.2429C83.9828 67.1068 83.5664 66.0109 82.8152 65.1587L75.3252 56.6663L73.3232 62.2663C73.4576 62.3615 79.15 68.4599 79.15 68.4599L74.2584 74.5639C73.8879 75.026 73.6405 75.5745 73.5391 76.1581C73.4378 76.7417 73.4858 77.3414 73.6788 77.9015L74.9864 81.1019L78.5648 79.4975L78.2848 79.0803H75.5968L75.4372 78.4335L82.8376 71.3355Z" fill="#FFBE9D"/>
<path d="M51.923 42.1677C51.923 42.1677 53.0962 43.5509 54.3086 41.9045C55.2634 40.6137 55.4678 39.0149 54.7006 38.3401L54.9526 38.1721C54.9526 38.1721 56.2294 39.0121 55.6526 40.8069C55.0758 42.6017 53.8326 43.5453 52.9506 43.4025C52.0686 43.2597 51.8306 42.3385 51.8306 42.3385L51.9174 42.0781" fill="#39364F"/>
<path d="M59.6059 55.5799C59.6059 55.5799 52.0935 58.6823 52.2699 58.4779L52.0795 49.2603H49.1339C49.1339 49.2603 47.0423 61.4179 49.2851 62.8487C52.3511 64.8087 59.7739 60.7347 59.7739 60.7347L59.6059 55.5799Z" fill="#FFBE9D"/>
<path d="M51.4774 45.5166L51.4634 45.6118L50.9006 49.6298L49.1338 49.2602L49.3606 46.9502" fill="#FFBE9D"/>
<path d="M52.0293 45.1162L50.8057 49.4674L51.8949 49.683C51.8949 49.683 52.0489 49.3638 52.4045 48.4202C52.6515 47.7375 52.6284 46.9864 52.3401 46.3202C52.3401 46.3202 53.3257 44.0802 52.9449 43.9906C52.5641 43.901 52.0293 45.1162 52.0293 45.1162Z" fill="#FFBE9D"/>
<path d="M52.9812 43.3215C52.9168 43.5091 50.31 49.9799 50.31 49.9799L49.6548 49.6103L52.2868 42.7307L52.9812 43.3215Z" fill="#39364F"/>
<path d="M49.2152 48.9186C49.2152 48.9186 48.896 47.0146 49.246 46.4238C49.372 46.211 51.1752 43.7274 51.304 43.8058C51.4328 43.8842 52.2168 46.0878 51.8024 46.1606C51.6791 46.1725 51.5554 46.1433 51.4505 46.0774C51.3456 46.0116 51.2656 45.9128 51.2228 45.7966C51.2228 45.7966 51.7632 47.149 51.3824 47.1714C51.0016 47.1938 50.6796 46.3566 50.6796 46.3566C50.6796 46.3566 51.4804 47.9526 50.9792 48.0366C50.478 48.1206 49.7892 46.8074 49.7892 46.8074L49.2152 48.9186Z" fill="#FFBE9D"/>
<path d="M50.8701 44.6907C51.0448 44.9662 51.1796 45.265 51.2705 45.5783C51.3077 45.6932 51.3527 45.8054 51.4049 45.9143C51.4485 45.9954 51.5133 46.0632 51.5925 46.1103C51.7325 46.1887 51.8445 46.1775 51.8473 46.1999C51.8501 46.2223 51.7325 46.2699 51.5477 46.1999C51.4406 46.1566 51.3503 46.0801 51.2901 45.9815C51.2243 45.8694 51.1717 45.7501 51.1333 45.6259C50.9983 45.3294 50.9095 45.014 50.8701 44.6907Z" fill="#EB996E"/>
<path d="M50.3101 45.3093C50.3521 45.3093 50.6125 46.0373 51.0465 46.8997C51.0997 47.0089 51.1529 47.1041 51.2285 47.1321C51.3041 47.1601 51.3629 47.1321 51.3881 47.0425C51.4029 46.9498 51.4029 46.8553 51.3881 46.7625C51.3854 46.6782 51.3779 46.594 51.3657 46.5105C51.3237 46.1997 51.2593 46.0121 51.2789 46.0037C51.3795 46.1488 51.4438 46.3159 51.4665 46.4909C51.4856 46.5778 51.4997 46.6656 51.5085 46.7541C51.5279 46.8596 51.5279 46.9678 51.5085 47.0733C51.4939 47.1438 51.4528 47.206 51.3937 47.2469C51.3594 47.2662 51.3212 47.2775 51.2819 47.28C51.2426 47.2824 51.2033 47.2759 51.1669 47.2609C51.0469 47.195 50.9553 47.0874 50.9093 46.9585C50.6257 46.443 50.4235 45.8867 50.3101 45.3093Z" fill="#EB996E"/>
<path d="M49.834 46.2334C49.954 46.379 50.0556 46.5389 50.1364 46.7094L50.4164 47.247C50.4724 47.3515 50.5284 47.4579 50.5844 47.5662C50.6368 47.6768 50.6986 47.7826 50.7692 47.8826C50.7964 47.9212 50.837 47.9482 50.883 47.9586C50.929 47.9689 50.9773 47.9618 51.0184 47.9386C51.0545 47.9072 51.082 47.867 51.0982 47.8219C51.1144 47.7768 51.1187 47.7283 51.1108 47.681C51.0629 47.4907 51.0031 47.3037 50.9316 47.121C50.8554 46.9421 50.8036 46.7537 50.7776 46.561C50.8804 46.7195 50.964 46.8896 51.0268 47.0678L51.136 47.331C51.1856 47.4341 51.2214 47.5433 51.2424 47.6558C51.2558 47.7273 51.2498 47.801 51.2252 47.8694C51.2006 47.9378 51.1582 47.9984 51.1024 48.045C51.0691 48.0708 51.0303 48.0887 50.9891 48.0974C50.9479 48.1061 50.9053 48.1054 50.8644 48.0954C50.7864 48.0754 50.7162 48.0325 50.6628 47.9722C50.5806 47.8643 50.5119 47.7468 50.4584 47.6222L50.296 47.3002L50.0328 46.7402C49.9469 46.5796 49.8802 46.4095 49.834 46.2334Z" fill="#EB996E"/>
<path d="M53.1241 43.607C52.9063 43.6082 52.6906 43.5634 52.4913 43.4754C52.2071 43.335 51.9629 43.1251 51.7813 42.8652C51.5997 42.6053 51.4866 42.3038 51.4525 41.9886C51.3569 41.2456 51.4665 40.4906 51.7696 39.8054C52.0727 39.1203 52.5576 38.5313 53.1717 38.1022C53.4217 37.9032 53.7214 37.7763 54.0384 37.7355C54.3553 37.6947 54.6774 37.7415 54.9697 37.8707C55.2619 38 55.5132 38.2068 55.6963 38.4687C55.8794 38.7307 55.9872 39.0377 56.0081 39.3566C56.1167 40.0999 56.0068 40.8587 55.6917 41.5406C55.1345 42.7978 54.0789 43.607 53.1241 43.607ZM54.3253 38.287C54.02 38.2985 53.7241 38.3955 53.4713 38.567C52.9506 38.9366 52.5393 39.4401 52.2811 40.0241C52.0228 40.6081 51.9271 41.2511 52.0041 41.885C52.0209 42.113 52.0952 42.333 52.2201 42.5244C52.3449 42.7159 52.5163 42.8725 52.7181 42.9798C53.5021 43.3242 54.6305 42.5682 55.1793 41.3278C55.4515 40.7485 55.5488 40.1024 55.4593 39.4686C55.4392 39.2449 55.3636 39.0296 55.2394 38.8424C55.1153 38.6552 54.9464 38.5018 54.7481 38.3962C54.6161 38.3325 54.4719 38.2981 54.3253 38.2954V38.287Z" fill="#39364F"/>
<path d="M79.2899 60.2587L74.5607 55.4987C73.6528 54.5483 72.5346 53.8242 71.2959 53.3847C70.6382 53.1484 69.9476 53.0161 69.2491 52.9927C67.64 53.5009 65.9134 53.5009 64.3043 52.9927C62.9506 53.1403 61.6323 53.5191 60.4067 54.1127L53.3423 56.9799L55.6047 63.2211L59.3903 61.9471L59.6143 67.8271L58.8667 76.5799L73.5247 76.7311L73.3343 68.7651V62.9999L75.4483 65.0607L79.2899 60.2587Z" fill="#2176FF"/>
<path d="M75.311 56.739C75.2502 56.8505 75.1809 56.9573 75.1038 57.0582C74.8856 57.3526 74.6317 57.6188 74.3478 57.8506C73.8997 58.2226 73.3859 58.5075 72.833 58.6906C72.098 58.9367 71.3117 58.9878 70.551 58.839C69.623 58.6669 68.7689 58.2179 68.101 57.551C67.9208 57.3631 67.7732 57.1464 67.6642 56.9098C67.5399 56.6625 67.4949 56.3828 67.5354 56.109C67.5617 55.9654 67.6229 55.8305 67.7138 55.7162C67.8046 55.6019 67.9222 55.5118 68.0562 55.4538C68.3323 55.3445 68.6397 55.3445 68.9158 55.4538C69.1993 55.5558 69.4381 55.754 69.5906 56.0138C69.7294 56.2841 69.7923 56.587 69.7726 56.8902C69.7179 57.5064 69.4788 58.0918 69.0866 58.5702C68.6864 59.0724 68.1853 59.4851 67.6157 59.7817C67.0462 60.0783 66.4208 60.2522 65.7798 60.2922C65.1286 60.3346 64.4764 60.2273 63.873 59.9786C63.2745 59.746 62.7675 59.3255 62.4282 58.7802C62.2682 58.5117 62.1773 58.2077 62.1637 57.8955C62.15 57.5832 62.2139 57.2725 62.3498 56.991C62.4945 56.7224 62.7229 56.5083 63.0004 56.3815C63.2779 56.2546 63.5892 56.2218 63.887 56.2882C64.0296 56.3258 64.1633 56.3911 64.2806 56.4805C64.3978 56.5699 64.4962 56.6815 64.5702 56.809C64.7108 57.0556 64.7769 57.3376 64.7606 57.621C64.7354 57.8895 64.6459 58.148 64.4997 58.3746C64.3535 58.6013 64.1549 58.7893 63.9206 58.923C63.497 59.1736 63.0128 59.3034 62.5206 59.2982C62.0722 59.2909 61.626 59.2327 61.1906 59.1246C60.4333 58.9846 59.7076 58.7085 59.0486 58.3098C58.5521 57.9951 58.1664 57.533 57.9454 56.9882C57.8025 56.6461 57.756 56.2713 57.811 55.9046C57.8281 55.7786 57.864 55.6559 57.9174 55.5406C57.9174 55.5406 57.8726 55.6638 57.839 55.9102C57.7994 56.2697 57.8534 56.6333 57.9958 56.9658C58.2208 57.494 58.6044 57.9392 59.0934 58.2398C59.7473 58.626 60.4652 58.8916 61.213 59.0238C61.6413 59.1274 62.08 59.1819 62.5206 59.1862C62.9938 59.1899 63.4589 59.0629 63.8646 58.8194C64.0805 58.6959 64.2631 58.5218 64.3968 58.3121C64.5304 58.1023 64.6111 57.8632 64.6318 57.6154C64.6462 57.3574 64.586 57.1008 64.4582 56.8762C64.3933 56.7634 64.3062 56.6648 64.2023 56.5864C64.0984 56.508 63.9797 56.4513 63.8534 56.4198C63.5856 56.3634 63.3067 56.3948 63.0581 56.5092C62.8095 56.6237 62.6043 56.8152 62.473 57.0554C62.3481 57.3163 62.2901 57.6042 62.3043 57.8931C62.3184 58.182 62.4043 58.4628 62.5542 58.7102C62.8782 59.2266 63.3604 59.6244 63.929 59.8442C64.5122 60.0838 65.1423 60.1873 65.7714 60.1466C66.3914 60.1078 66.9963 59.9398 67.5475 59.6534C68.0986 59.367 68.5838 58.9684 68.9718 58.4834C69.3478 58.0301 69.5782 57.4738 69.6326 56.8874C69.6536 56.6088 69.5974 56.3298 69.4702 56.081C69.3354 55.8466 69.1222 55.6672 68.8682 55.5742C68.6253 55.4733 68.3531 55.4683 68.1066 55.5602C67.9921 55.6097 67.8916 55.6868 67.8139 55.7845C67.7362 55.8821 67.6839 55.9975 67.6614 56.1202C67.6265 56.368 67.6665 56.6205 67.7762 56.8454C67.8804 57.0693 68.0193 57.2753 68.1878 57.4558C68.8378 58.1068 69.6676 58.5485 70.5706 58.7242C71.3156 58.8745 72.0866 58.8321 72.8106 58.601C73.3569 58.4256 73.8671 58.1534 74.317 57.7974C74.6001 57.5695 74.8574 57.3113 75.0842 57.0274C75.2298 56.8454 75.3054 56.7334 75.311 56.739Z" fill="#39364F"/>
<path d="M72.9141 69.1737C72.827 69.2327 72.733 69.2807 72.6341 69.3165C72.3409 69.4211 72.0286 69.4612 71.7185 69.4341C71.2269 69.3941 70.7518 69.2377 70.3325 68.9777C69.7841 68.6298 69.2833 68.2119 68.8429 67.7345C68.5603 67.4708 68.355 67.1348 68.2493 66.7629C68.2051 66.5566 68.2157 66.3423 68.2801 66.1413C68.3456 65.9265 68.4922 65.7457 68.6889 65.6373C68.7922 65.5861 68.9049 65.5567 69.02 65.5509C69.1352 65.5451 69.2502 65.5631 69.3581 65.6037C69.5751 65.6859 69.7678 65.8218 69.9181 65.9985C70.2211 66.3745 70.3747 66.8491 70.3493 67.3313C70.3316 67.8331 70.1574 68.3168 69.8509 68.7145C69.5226 69.1209 69.0842 69.4242 68.5881 69.5881C68.0797 69.7611 67.5375 69.811 67.0061 69.7337C66.4625 69.6518 65.9385 69.4705 65.4605 69.1989C64.9818 68.9328 64.5426 68.601 64.1557 68.2133C63.7528 67.8402 63.5075 67.3275 63.4697 66.7797C63.4588 66.5086 63.5269 66.2401 63.6657 66.0069C63.8067 65.7798 64.0196 65.6063 64.2705 65.5141C64.51 65.4254 64.7683 65.3994 65.0206 65.4387C65.273 65.4779 65.5112 65.5809 65.7125 65.7381C65.8945 65.8954 66.041 66.0896 66.1424 66.3078C66.2438 66.526 66.2977 66.7632 66.3005 67.0037C66.3161 67.4564 66.1768 67.9009 65.9057 68.2637C65.658 68.5758 65.3507 68.8355 65.0017 69.0277C64.6528 69.22 64.2691 69.341 63.8729 69.3837C62.4337 69.5405 61.2437 69.2157 60.5801 68.7509C60.3205 68.5777 60.1056 68.3455 59.9529 68.0733C59.915 68.0024 59.8832 67.9284 59.8577 67.8521C59.8455 67.8274 59.837 67.8009 59.8325 67.7737C59.8325 67.7737 59.8717 67.8801 59.9809 68.0537C60.1388 68.3138 60.3543 68.5342 60.6109 68.6977C61.2661 69.1401 62.4505 69.4425 63.8589 69.2745C64.2421 69.2317 64.6128 69.1128 64.9494 68.9248C65.2859 68.7368 65.5816 68.4835 65.8189 68.1797C66.0727 67.8383 66.2021 67.4204 66.1857 66.9953C66.1795 66.7723 66.1264 66.5531 66.0299 66.3519C65.9335 66.1508 65.7957 65.9722 65.6257 65.8277C65.4423 65.6868 65.2262 65.5947 64.9975 65.56C64.7689 65.5252 64.5351 65.5489 64.3181 65.6289C64.0974 65.713 63.9098 65.8662 63.7833 66.0657C63.6601 66.2758 63.5999 66.5168 63.6097 66.7601C63.6446 67.2706 63.8717 67.7489 64.2453 68.0985C64.6225 68.4752 65.0504 68.7975 65.5165 69.0561C65.9791 69.3193 66.4858 69.4958 67.0117 69.5769C67.5204 69.6502 68.0393 69.6032 68.5265 69.4397C68.9967 69.2844 69.4132 68.999 69.7277 68.6165C70.0183 68.2419 70.1838 67.7855 70.2009 67.3117C70.2272 66.8628 70.0866 66.42 69.8061 66.0685C69.6702 65.9075 69.4959 65.7832 69.2993 65.7073C69.2094 65.6726 69.1133 65.6567 69.017 65.6605C68.9207 65.6644 68.8262 65.6879 68.7393 65.7297C68.5792 65.8343 68.4558 65.9864 68.3865 66.1647C68.3172 66.3429 68.3054 66.5384 68.3529 66.7237C68.4539 67.0769 68.6472 67.3969 68.9129 67.6505C69.3462 68.1233 69.8362 68.5409 70.3717 68.8937C70.7788 69.1534 71.241 69.3145 71.7213 69.3641C72.0248 69.3941 72.3313 69.3637 72.6229 69.2745C72.8133 69.2241 72.9113 69.1653 72.9141 69.1737Z" fill="#39364F"/>
</svg>
