<svg width="16" height="16" viewBox="0 0 16 16" fill="none" xmlns="http://www.w3.org/2000/svg">
<g id="fingerprint" clip-path="url(#clip0_198_942)">
<path id="Vector" d="M1.3335 7.99998C1.3335 4.33331 4.3335 1.33331 8.00016 1.33331C9.03513 1.33331 10.0559 1.57428 10.9816 2.03713C11.9073 2.49998 12.7125 3.17201 13.3335 3.99998M3.3335 13C3.66683 12 4.00016 9.99998 4.00016 7.99998C4.00016 7.53331 4.08016 7.08665 4.22683 6.66665M11.5269 14.0133C11.6069 13.6133 11.8135 12.48 11.8602 12M8.00016 6.66665C7.64653 6.66665 7.3074 6.80712 7.05735 7.05717C6.8073 7.30722 6.66682 7.64636 6.66682 7.99998C6.66682 8.67998 6.60016 9.67331 6.49349 10.6666M5.76685 14.6666C5.90685 14.2266 6.06685 13.7866 6.14685 13.3333M9.3335 8.74672C9.3335 10.3334 9.3335 13.0001 8.66683 14.6667M1.3335 10.6666H1.34016M14.5335 10.6666C14.6669 9.33331 14.6209 7.09731 14.5335 6.66665M6.00016 4.53327C6.60843 4.18209 7.29844 3.99726 8.0008 3.99738C8.70317 3.99749 9.39312 4.18254 10.0013 4.53392C10.6094 4.88529 11.1143 5.39061 11.4652 5.99904C11.8161 6.60748 12.0006 7.29758 12.0002 7.99994C12.0002 8.31327 12.0002 8.77994 11.9868 9.33327" stroke="#39364F" stroke-width="1.5" stroke-linecap="round" stroke-linejoin="round"/>
</g>
<defs>
<clipPath id="clip0_198_942">
<rect width="16" height="16" fill="white"/>
</clipPath>
</defs>
</svg>
