<svg width="20" height="20" viewBox="0 0 20 20" fill="none" xmlns="http://www.w3.org/2000/svg">
<g clip-path="url(#clip0_342_748)">
<path d="M17.9503 12.5001H14.167C13.725 12.5001 13.301 12.6757 12.9885 12.9882C12.6759 13.3008 12.5003 13.7247 12.5003 14.1667V17.9501M5.83366 2.78328V4.16662C5.83366 4.82966 6.09705 5.46554 6.56589 5.93439C7.03473 6.40323 7.67062 6.66662 8.33366 6.66662C8.77569 6.66662 9.19961 6.84221 9.51217 7.15477C9.82473 7.46733 10.0003 7.89126 10.0003 8.33328C10.0003 9.24995 10.7503 9.99995 11.667 9.99995C12.109 9.99995 12.5329 9.82436 12.8455 9.5118C13.1581 9.19924 13.3337 8.77531 13.3337 8.33328C13.3337 7.41662 14.0837 6.66662 15.0003 6.66662H17.642M9.16703 18.2917V15.0001C9.16703 14.5581 8.99144 14.1341 8.67888 13.8216C8.36632 13.509 7.94239 13.3334 7.50037 13.3334C7.05834 13.3334 6.63442 13.1578 6.32186 12.8453C6.00929 12.5327 5.8337 12.1088 5.8337 11.6667V10.8334C5.8337 10.3914 5.65811 9.96746 5.34554 9.6549C5.03298 9.34234 4.60906 9.16675 4.16703 9.16675H1.7087M18.3337 10.0001C18.3337 14.6025 14.6027 18.3334 10.0003 18.3334C5.39795 18.3334 1.66699 14.6025 1.66699 10.0001C1.66699 5.39771 5.39795 1.66675 10.0003 1.66675C14.6027 1.66675 18.3337 5.39771 18.3337 10.0001Z" stroke="#2176FF" stroke-width="1.5" stroke-linecap="round" stroke-linejoin="round"/>
</g>
<defs>
<clipPath id="clip0_342_748">
<rect width="20" height="20" fill="white"/>
</clipPath>
</defs>
</svg>
