<svg width="16" height="16" viewBox="0 0 16 16" fill="none" xmlns="http://www.w3.org/2000/svg">
<g id="grip-vertical">
<g id="Vector">
<path d="M5.99992 8.66669C6.36811 8.66669 6.66659 8.36821 6.66659 8.00002C6.66659 7.63183 6.36811 7.33335 5.99992 7.33335C5.63173 7.33335 5.33325 7.63183 5.33325 8.00002C5.33325 8.36821 5.63173 8.66669 5.99992 8.66669Z" stroke="#39364F" stroke-width="1.5" stroke-linecap="round" stroke-linejoin="round"/>
<path d="M5.99992 4.00002C6.36811 4.00002 6.66659 3.70154 6.66659 3.33335C6.66659 2.96516 6.36811 2.66669 5.99992 2.66669C5.63173 2.66669 5.33325 2.96516 5.33325 3.33335C5.33325 3.70154 5.63173 4.00002 5.99992 4.00002Z" stroke="#39364F" stroke-width="1.5" stroke-linecap="round" stroke-linejoin="round"/>
<path d="M5.99992 13.3334C6.36811 13.3334 6.66659 13.0349 6.66659 12.6667C6.66659 12.2985 6.36811 12 5.99992 12C5.63173 12 5.33325 12.2985 5.33325 12.6667C5.33325 13.0349 5.63173 13.3334 5.99992 13.3334Z" stroke="#39364F" stroke-width="1.5" stroke-linecap="round" stroke-linejoin="round"/>
<path d="M9.99992 8.66669C10.3681 8.66669 10.6666 8.36821 10.6666 8.00002C10.6666 7.63183 10.3681 7.33335 9.99992 7.33335C9.63173 7.33335 9.33325 7.63183 9.33325 8.00002C9.33325 8.36821 9.63173 8.66669 9.99992 8.66669Z" stroke="#39364F" stroke-width="1.5" stroke-linecap="round" stroke-linejoin="round"/>
<path d="M9.99992 4.00002C10.3681 4.00002 10.6666 3.70154 10.6666 3.33335C10.6666 2.96516 10.3681 2.66669 9.99992 2.66669C9.63173 2.66669 9.33325 2.96516 9.33325 3.33335C9.33325 3.70154 9.63173 4.00002 9.99992 4.00002Z" stroke="#39364F" stroke-width="1.5" stroke-linecap="round" stroke-linejoin="round"/>
<path d="M9.99992 13.3334C10.3681 13.3334 10.6666 13.0349 10.6666 12.6667C10.6666 12.2985 10.3681 12 9.99992 12C9.63173 12 9.33325 12.2985 9.33325 12.6667C9.33325 13.0349 9.63173 13.3334 9.99992 13.3334Z" stroke="#39364F" stroke-width="1.5" stroke-linecap="round" stroke-linejoin="round"/>
</g>
</g>
</svg>
