<svg width="18" height="18" viewBox="0 0 18 18" fill="none" xmlns="http://www.w3.org/2000/svg">
<path fill-rule="evenodd" clip-rule="evenodd" d="M9.71666 2.24943C11.3827 0.583522 14.0843 0.583522 15.7508 2.24943C17.4164 3.91534 17.4164 6.61631 15.7509 8.28213L13.1107 10.9226C11.4442 12.5885 8.74211 12.5885 7.07609 10.9226C6.7753 10.6208 6.52822 10.2848 6.33584 9.92845L7.03897 9.22444C7.25382 9.00964 7.53505 8.88464 7.83585 8.86805C7.95695 9.1532 8.13271 9.41491 8.35831 9.63952C8.82215 10.1034 9.43737 10.3582 10.0936 10.3582C10.7489 10.3582 11.3652 10.1034 11.8285 9.63952L14.4682 7.00005C14.9316 6.53719 15.1864 5.92103 15.1864 5.2658C15.1864 4.6096 14.9316 3.9944 14.4682 3.53155C14.0048 3.06772 13.3886 2.81285 12.7332 2.81285C12.078 2.81285 11.4617 3.06772 10.9984 3.53155L9.64925 4.88009C9.09457 4.69557 8.50866 4.59985 7.90613 4.59985C7.71472 4.59985 7.52427 4.60866 7.33579 4.62916L9.71666 2.24943ZM8.3596 13.109C8.92694 13.3014 9.51872 13.3991 10.1223 13.3991L10.1233 13.3992C10.3039 13.3992 10.4831 13.3903 10.6604 13.3738L8.28344 15.7505C6.61746 17.4165 3.91626 17.4165 2.25024 15.7505C0.583253 14.0836 0.583253 11.3828 2.25024 9.71679L4.8899 7.07635C6.55592 5.41044 9.25805 5.41044 10.9241 7.07635C11.2253 7.37809 11.4729 7.71398 11.6653 8.07141L10.9631 8.77448C10.7483 8.98928 10.4665 9.11525 10.1648 9.13087C10.0431 8.84576 9.86696 8.58405 9.64132 8.35849C9.17799 7.89563 8.56274 7.64077 7.90649 7.64077C7.25121 7.64077 6.63596 7.89563 6.17209 8.35849L3.53243 10.9979C3.06856 11.4617 2.81367 12.0779 2.81367 12.7332C2.81367 13.3884 3.06856 14.0045 3.53243 14.4674C3.99633 14.9313 4.61154 15.1861 5.26683 15.1861C5.92211 15.1861 6.5383 14.9313 7.00119 14.4674L8.3596 13.109Z" fill="#39364F"/>
</svg>
