<svg width="18" height="18" viewBox="0 0 18 18" fill="none" xmlns="http://www.w3.org/2000/svg">
<g clip-path="url(#clip0_309_3149)">
<path d="M17.2688 0H0.73125C0.3375 0 0 0.3375 0 0.73125V17.2125C0 17.6625 0.3375 18 0.73125 18H17.2125C17.6063 18 17.9438 17.6625 17.9438 17.2688V0.73125C18 0.3375 17.6625 0 17.2688 0ZM5.34375 15.3562H2.64375V6.75H5.34375V15.3562ZM3.99375 5.56875C3.15 5.56875 2.41875 4.89375 2.41875 3.99375C2.41875 3.15 3.09375 2.41875 3.99375 2.41875C4.8375 2.41875 5.56875 3.09375 5.56875 3.99375C5.56875 4.89375 4.8375 5.56875 3.99375 5.56875ZM15.3562 15.3562H12.7125V11.1937C12.7125 10.1812 12.7125 8.94375 11.3063 8.94375C9.9 8.94375 9.73125 10.0125 9.73125 11.1375V15.4125H7.0875V6.75H9.5625V7.93125H9.61875C9.95625 7.25625 10.8562 6.525 12.15 6.525C14.85 6.525 15.3562 8.325 15.3562 10.6312V15.3562Z" fill="#2176FF"/>
</g>
<defs>
<clipPath id="clip0_309_3149">
<rect width="18" height="18" rx="4" fill="white"/>
</clipPath>
</defs>
</svg>
