<svg width="16" height="16" viewBox="0 0 16 16" fill="none" xmlns="http://www.w3.org/2000/svg">
<g id="map-pinned" clip-path="url(#clip0_198_928)">
<path id="Vector" d="M5.88992 9.33331H3.33325C3.19761 9.3407 3.06746 9.38936 2.96023 9.47276C2.853 9.55616 2.7738 9.67033 2.73325 9.79998L1.39992 13.8C1.33325 13.8666 1.33325 13.9333 1.33325 14C1.33325 14.4 1.59992 14.6666 1.99992 14.6666H13.9999C14.3999 14.6666 14.6666 14.4 14.6666 14C14.6666 13.9333 14.6666 13.8666 14.5999 13.8L13.2666 9.79998C13.226 9.67033 13.1468 9.55616 13.0396 9.47276C12.9324 9.38936 12.8022 9.3407 12.6666 9.33331H10.1099M11.9999 5.33331C11.9999 8.33331 7.99992 11.3333 7.99992 11.3333C7.99992 11.3333 3.99992 8.33331 3.99992 5.33331C3.99992 4.27245 4.42135 3.25503 5.17149 2.50489C5.92164 1.75474 6.93905 1.33331 7.99992 1.33331C9.06078 1.33331 10.0782 1.75474 10.8283 2.50489C11.5785 3.25503 11.9999 4.27245 11.9999 5.33331ZM9.33325 5.33331C9.33325 6.06969 8.7363 6.66665 7.99992 6.66665C7.26354 6.66665 6.66659 6.06969 6.66659 5.33331C6.66659 4.59693 7.26354 3.99998 7.99992 3.99998C8.7363 3.99998 9.33325 4.59693 9.33325 5.33331Z" stroke="#39364F" stroke-width="1.5" stroke-linecap="round" stroke-linejoin="round"/>
</g>
<defs>
<clipPath id="clip0_198_928">
<rect width="16" height="16" fill="white"/>
</clipPath>
</defs>
</svg>
