<svg width="20" height="20" viewBox="0 0 20 20" fill="none" xmlns="http://www.w3.org/2000/svg">
<g id="List &#226;&#134;&#146; Item &#226;&#134;&#146; SVG" clip-path="url(#clip0_309_2999)">
<path id="Vector" d="M19.7278 8.71371L13.7755 2.58755C13.6905 2.49904 13.5885 2.42862 13.4756 2.38052C13.3627 2.33241 13.2413 2.30762 13.1185 2.30762C12.9958 2.30762 12.8744 2.33241 12.7615 2.38052C12.6486 2.42862 12.5466 2.49904 12.4616 2.58755C12.2867 2.76952 12.1891 3.0121 12.1891 3.26447C12.1891 3.51685 12.2867 3.75943 12.4616 3.9414L16.8247 8.43371H0.929313C0.679315 8.43776 0.441121 8.54076 0.266938 8.72013C0.0927544 8.8995 -0.00320862 9.14062 8.19138e-05 9.39063C8.19138e-05 9.91986 0.415467 10.3476 0.929313 10.3476H16.8247L12.4616 14.8399C12.2867 15.0218 12.1891 15.2644 12.1891 15.5168C12.1891 15.7692 12.2867 16.0117 12.4616 16.1937C12.5468 16.2818 12.6489 16.3519 12.7618 16.3998C12.8746 16.4476 12.996 16.4723 13.1185 16.4723C13.2411 16.4723 13.3625 16.4476 13.4753 16.3998C13.5882 16.3519 13.6903 16.2818 13.7755 16.1937L19.7278 10.0676C19.9026 9.88558 20.0003 9.643 20.0003 9.39063C20.0003 9.13825 19.9026 8.89567 19.7278 8.71371Z" fill="white"/>
</g>
<defs>
<clipPath id="clip0_309_2999">
<rect width="20" height="20" fill="white"/>
</clipPath>
</defs>
</svg>
