<svg width="121" height="103" viewBox="0 0 121 103" fill="none" xmlns="http://www.w3.org/2000/svg">
<rect width="161.057" height="25.8" transform="translate(17.4541 -20.3389) rotate(40)" fill="#2EA36F"/>
<path d="M34.3026 15.9941L35.4005 14.6857L37.1808 16.1796C37.5097 16.4555 37.8481 16.575 38.1959 16.5379C38.5438 16.5009 38.8347 16.3429 39.0687 16.0641C39.2307 15.871 39.3318 15.6634 39.372 15.4413C39.4122 15.2192 39.3896 14.9992 39.3043 14.7814C39.2262 14.5696 39.0763 14.3708 38.8546 14.1848L37.0743 12.6909L38.1452 11.4147L39.7861 12.7916C40.0649 13.0255 40.3471 13.1466 40.6327 13.1547C40.9243 13.1557 41.1901 13.0132 41.43 12.7272C41.664 12.4484 41.7522 12.1691 41.6946 11.8892C41.643 11.6022 41.4778 11.3418 41.1989 11.1078L39.5581 9.73094L40.6559 8.42254L42.6185 10.0694C43.1047 10.4773 43.4408 10.9117 43.6269 11.3724C43.8201 11.8391 43.8801 12.2976 43.8069 12.7478C43.7336 13.1981 43.544 13.6056 43.2381 13.9702C42.8481 14.4349 42.368 14.7022 41.7977 14.772C41.2275 14.8417 40.5982 14.6914 39.91 14.321L40.4298 13.7886C40.9641 14.4441 41.2469 15.1017 41.2781 15.7615C41.3165 16.4272 41.1077 17.0318 40.6518 17.5752C40.3038 17.9899 39.8852 18.2782 39.3959 18.4403C38.9197 18.6012 38.4076 18.6162 37.8595 18.4853C37.3186 18.3603 36.78 18.0729 36.2438 17.6229L34.3026 15.9941ZM33.0157 14.9142L39.369 7.34266L41.0313 8.73751L34.678 16.3091L33.0157 14.9142ZM39.8861 20.6792L46.2394 13.1077L47.9232 14.5205L41.5699 22.0921L39.8861 20.6792ZM41.1731 21.7591L42.397 20.3006L46.5474 23.7832L45.3235 25.2418L41.1731 21.7591ZM43.8278 18.5954L45.0067 17.1904L48.7817 20.3581L47.6029 21.763L43.8278 18.5954ZM46.3115 15.6354L47.5264 14.1875L51.6232 17.6252L50.4083 19.073L46.3115 15.6354ZM48.4704 28.0833C47.8484 27.5614 47.3961 27.0113 47.1137 26.4332C46.8444 25.8539 46.6978 25.2009 46.674 24.4743L48.6768 24.309C48.6859 24.7918 48.771 25.2348 48.9322 25.6381C49.1065 26.0402 49.3903 26.4063 49.7835 26.7362C50.141 27.0362 50.4703 27.2028 50.7713 27.2361C51.0795 27.2754 51.3296 27.1806 51.5215 26.9519C51.6955 26.7445 51.7721 26.5225 51.7514 26.2858C51.7307 26.0491 51.6521 25.7943 51.5156 25.5214C51.3863 25.2545 51.2289 24.9701 51.0435 24.6683C50.8653 24.3726 50.696 24.0661 50.5358 23.7488C50.3815 23.4245 50.2661 23.0901 50.1896 22.7456C50.1263 22.4001 50.1352 22.0482 50.2165 21.6899C50.3038 21.3246 50.5094 20.9488 50.8334 20.5627C51.2233 20.098 51.6701 19.7906 52.1737 19.6406C52.6845 19.4965 53.2121 19.5067 53.7564 19.671C54.3068 19.8282 54.8429 20.1258 55.3649 20.5638C55.894 21.0077 56.2986 21.5056 56.5787 22.0575C56.866 22.6153 57.0177 23.1751 57.0337 23.7368L55.0309 23.9021C55.0001 23.4742 54.9147 23.1041 54.7747 22.7917C54.6419 22.4853 54.429 22.2091 54.1358 21.9632C53.8427 21.7172 53.5623 21.5794 53.2947 21.5498C53.0332 21.5131 52.8154 21.5984 52.6414 21.8057C52.4794 21.9988 52.4118 22.2101 52.4385 22.4396C52.4712 22.662 52.5552 22.9031 52.6906 23.1628C52.8331 23.4286 52.9934 23.7094 53.1717 24.0052C53.3571 24.3069 53.5269 24.62 53.6812 24.9444C53.8354 25.2688 53.9412 25.6073 53.9986 25.96C54.0691 26.3116 54.0547 26.6772 53.9554 27.0569C53.8621 27.4294 53.6505 27.8123 53.3206 28.2056C52.7146 28.9277 51.9803 29.2801 51.1175 29.2628C50.2608 29.2384 49.3784 28.8453 48.4704 28.0833ZM54.1209 32.6236L60.3842 25.1593L62.068 26.5721L55.8046 34.0365L54.1209 32.6236ZM56.8712 24.5325L58.1041 23.0633L64.5281 28.4537L63.2952 29.923L56.8712 24.5325ZM63.1644 40.4131C62.5423 39.8911 62.0901 39.3411 61.8077 38.7629C61.5384 38.1836 61.3918 37.5306 61.368 36.804L63.3708 36.6387C63.3799 37.1215 63.465 37.5646 63.6262 37.9678C63.8005 38.37 64.0843 38.736 64.4775 39.066C64.835 39.3659 65.1642 39.5326 65.4653 39.5658C65.7735 39.6051 66.0235 39.5104 66.2155 39.2816C66.3895 39.0742 66.4661 38.8522 66.4454 38.6155C66.4247 38.3789 66.3461 38.1241 66.2096 37.8511C66.0803 37.5842 65.9229 37.2998 65.7375 36.9981C65.5592 36.7023 65.39 36.3958 65.2297 36.0786C65.0755 35.7542 64.9601 35.4198 64.8836 35.0754C64.8202 34.7298 64.8292 34.3779 64.9105 34.0197C64.9978 33.6543 65.2034 33.2786 65.5274 32.8925C65.9173 32.4277 66.3641 32.1203 66.8677 31.9703C67.3785 31.8262 67.906 31.8364 68.4504 32.0008C69.0008 32.158 69.5369 32.4556 70.0589 32.8935C70.5879 33.3375 70.9926 33.8354 71.2727 34.3872C71.56 34.9451 71.7117 35.5049 71.7277 36.0666L69.7249 36.2319C69.6941 35.8039 69.6087 35.4338 69.4687 35.1214C69.3359 34.815 69.123 34.5389 68.8298 34.2929C68.5367 34.0469 68.2563 33.9091 67.9887 33.8795C67.7271 33.8428 67.5094 33.9281 67.3354 34.1355C67.1734 34.3285 67.1058 34.5398 67.1325 34.7693C67.1652 34.9917 67.2492 35.2328 67.3846 35.4926C67.5271 35.7583 67.6874 36.0391 67.8657 36.3349C68.0511 36.6367 68.2209 36.9497 68.3751 37.2741C68.5294 37.5985 68.6352 37.937 68.6926 38.2898C68.7631 38.6413 68.7487 39.007 68.6494 39.3866C68.5561 39.7592 68.3445 40.1421 68.0145 40.5353C67.4086 41.2574 66.6743 41.6098 65.8115 41.5926C64.9548 41.5682 64.0724 41.175 63.1644 40.4131ZM67.2423 43.6338L73.5956 36.0622L75.2794 37.4751L68.926 45.0467L67.2423 43.6338ZM68.5292 44.7137L69.7531 43.2551L73.9035 46.7378L72.6797 48.1963L68.5292 44.7137ZM71.184 41.5499L72.3628 40.145L76.1379 43.3127L74.959 44.7176L71.184 41.5499ZM73.6677 38.5899L74.8826 37.1421L78.9794 40.5797L77.7645 42.0276L73.6677 38.5899ZM73.8404 49.1703L80.1938 41.5987L81.8775 43.0116L75.5242 50.5832L73.8404 49.1703ZM75.1381 50.2592L76.38 48.7792L80.1229 51.9199L78.881 53.3999L75.1381 50.2592ZM79.8521 54.2147L86.2054 46.6431L87.8892 48.056L81.5359 55.6275L79.8521 54.2147ZM81.1498 55.3036L82.3916 53.8236L86.1345 56.9642L84.8927 58.4442L81.1498 55.3036ZM85.8637 59.2591L92.2171 51.6875L93.9008 53.1003L87.5475 60.6719L85.8637 59.2591ZM89.0057 61.8955L95.359 54.3239L96.5387 55.3138L95.7739 57.249L90.6895 63.3084L89.0057 61.8955ZM94.2286 66.278L94.5636 56.8182L96.5387 55.3138L96.2037 64.7736L94.2286 66.278ZM94.2286 66.278L95.047 64.3879L100.131 58.3285L101.815 59.7414L95.4619 67.3129L94.2286 66.278ZM100.396 71.654C99.8453 71.192 99.4109 70.657 99.0927 70.0488C98.7817 69.4467 98.5944 68.8205 98.5309 68.1702C98.4733 67.5127 98.5389 66.861 98.7275 66.2152C98.9293 65.5682 99.2611 64.9694 99.7231 64.4189C100.185 63.8683 100.718 63.4441 101.321 63.1462C101.924 62.8483 102.555 62.6772 103.214 62.6328C103.886 62.5873 104.549 62.675 105.204 62.8959C105.866 63.1096 106.479 63.4535 107.044 63.9275C107.694 64.4734 108.185 65.0863 108.516 65.7662C108.854 66.4521 109.025 67.1494 109.027 67.858L106.917 68.0427C106.938 67.5241 106.85 67.0482 106.653 66.6149C106.456 66.1817 106.15 65.791 105.735 65.4431C105.292 65.0711 104.811 64.8382 104.293 64.7445C103.781 64.6435 103.274 64.6878 102.774 64.8773C102.287 65.0657 101.846 65.3958 101.45 65.8677C101.054 66.3396 100.802 66.8353 100.695 67.3547C100.588 67.8742 100.619 68.375 100.787 68.8572C100.955 69.3393 101.257 69.7634 101.693 70.1294C102.137 70.5013 102.581 70.7341 103.026 70.8276C103.485 70.92 103.929 70.8779 104.357 70.7013C104.799 70.5235 105.211 70.2058 105.595 69.7482L106.081 71.4349L102.747 68.5466L103.944 67.1202L107.923 70.4588L107.716 70.7055C106.954 71.6135 106.148 72.2405 105.297 72.5866C104.459 72.9315 103.619 73.0183 102.776 72.8469C101.94 72.6816 101.147 72.2839 100.396 71.654Z" fill="white"/>
</svg>
