<svg width="141" height="141" viewBox="0 0 141 141" fill="none" xmlns="http://www.w3.org/2000/svg">
<path d="M108.61 37.0608C108.61 37.0608 96.6569 24.71 77.7317 25.3008C58.8065 25.8916 42.6673 37.8532 29.3197 47.2164C15.9721 56.5796 12.3881 71.1284 20.1581 82.4824C27.9281 93.8364 40.2789 89.0568 56.0149 96.4264C71.7509 103.796 74.7301 107.982 92.2721 106.19C109.814 104.398 123.153 86.0692 121.16 66.5448C119.166 47.0204 108.61 37.0608 108.61 37.0608Z" fill="#2176FF"/>
<path opacity="0.7" d="M108.61 37.0608C108.61 37.0608 96.6569 24.71 77.7317 25.3008C58.8065 25.8916 42.6673 37.8532 29.3197 47.2164C15.9721 56.5796 12.3881 71.1284 20.1581 82.4824C27.9281 93.8364 40.2789 89.0568 56.0149 96.4264C71.7509 103.796 74.7301 107.982 92.2721 106.19C109.814 104.398 123.153 86.0692 121.16 66.5448C119.166 47.0204 108.61 37.0608 108.61 37.0608Z" fill="white"/>
<path d="M113.191 112.224C113.191 113.047 94.7107 113.711 71.9383 113.711C49.1659 113.711 30.6831 113.047 30.6831 112.224C30.6831 111.401 49.1631 110.74 71.9383 110.74C94.7135 110.74 113.191 111.404 113.191 112.224Z" fill="#2176FF"/>
<path opacity="0.6" d="M113.191 112.224C113.191 113.047 94.7107 113.711 71.9383 113.711C49.1659 113.711 30.6831 113.047 30.6831 112.224C30.6831 111.401 49.1631 110.74 71.9383 110.74C94.7135 110.74 113.191 111.404 113.191 112.224Z" fill="white"/>
<path d="M32.9176 65.8784C32.9344 65.8784 32.7244 64.834 32.702 64.7584C32.4612 64.0136 31.5568 62.7144 30.6776 62.7144C30.5317 62.7189 30.3885 62.754 30.2571 62.8175C30.1257 62.881 30.0091 62.9713 29.9148 63.0827C29.8206 63.1941 29.7508 63.3241 29.71 63.4642C29.6692 63.6043 29.6583 63.7514 29.678 63.896C29.7424 64.512 30.2968 65.0384 30.798 65.3408C31.386 65.7076 32.9176 65.8784 32.9176 65.8784Z" fill="#2176FF"/>
<path d="M34.6168 58.8448C33.7908 59.1416 33.382 60.6704 33.4072 61.4544C33.4072 61.5216 33.564 62.5744 33.5808 62.5744H33.5976C33.5304 62.8152 33.4604 63.0728 33.3904 63.3584C33.2672 63.8848 33.1328 64.4784 33.0292 65.1392C32.9091 65.8471 32.8306 66.5614 32.794 67.2784C32.7508 68.0819 32.7779 68.8876 32.8752 69.6864C32.8763 69.6957 32.8763 69.7051 32.8752 69.7144C32.7688 69.482 32.444 68.8408 32.4132 68.7932C31.982 68.138 30.7668 67.1132 29.9184 67.3568C29.7794 67.3997 29.6509 67.4713 29.5413 67.567C29.4317 67.6626 29.3434 67.7803 29.2821 67.9123C29.2209 68.0443 29.1881 68.1876 29.1858 68.3331C29.1835 68.4786 29.2118 68.623 29.2688 68.7568C29.4928 69.3364 30.1648 69.6948 30.7276 69.8572C31.3632 70.0364 32.78 69.8236 32.892 69.8068C33.0134 70.6162 33.1874 71.4168 33.4128 72.2036C33.5444 72.6628 33.6928 73.122 33.8384 73.5784C33.7404 73.3796 33.648 73.2032 33.634 73.1808C33.2028 72.5256 31.9876 71.5008 31.1392 71.7444C31.0002 71.7873 30.8717 71.8589 30.7621 71.9546C30.6525 72.0502 30.5642 72.1679 30.5029 72.2999C30.4417 72.4319 30.4089 72.5752 30.4066 72.7207C30.4043 72.8662 30.4326 73.0106 30.4896 73.1444C30.7136 73.7212 31.3856 74.0824 31.9484 74.242C32.5112 74.4016 33.732 74.242 34.0512 74.2028C34.11 74.3764 34.1688 74.5528 34.2304 74.7264C34.5104 75.5664 34.8128 76.4064 35.0704 77.2296C35.1628 77.5096 35.2412 77.812 35.3224 78.1032C35.2356 77.9268 35.1572 77.7784 35.1432 77.7588C34.7148 77.1008 33.4968 76.0788 32.6512 76.3224C32.5119 76.365 32.3831 76.4363 32.2732 76.5319C32.1633 76.6275 32.0747 76.7451 32.0132 76.8771C31.9517 77.0091 31.9186 77.1526 31.9161 77.2982C31.9136 77.4439 31.9418 77.5884 31.9988 77.7224C32.2228 78.2992 32.8976 78.6604 33.4604 78.82C34.0232 78.9796 35.1236 78.8396 35.5044 78.7864C35.58 79.086 35.6556 79.3884 35.7144 79.6824C35.748 79.884 35.7956 80.0744 35.8208 80.2816L35.9048 80.8808C35.944 81.2644 35.9888 81.6592 36.0168 82.0344C36.0392 82.2976 36.056 82.5468 36.0728 82.796C35.986 82.516 35.7928 81.9364 35.7928 81.8916C35.4828 81.2755 35.0201 80.7492 34.4488 80.3628C34.417 80.2927 34.3796 80.2253 34.3368 80.1612C34.257 80.0391 34.1524 79.9352 34.0298 79.8561C33.9073 79.7771 33.7695 79.7246 33.6254 79.7022C33.4812 79.6797 33.334 79.6878 33.1932 79.7259C33.0524 79.764 32.9212 79.8312 32.808 79.9232C32.1444 80.4972 32.3096 82.0708 32.6148 82.7932C32.6316 82.8352 32.8948 83.2776 33.0404 83.552L32.6848 83.1096C32.4384 82.81 32.1864 82.5188 31.9176 82.2052C31.7795 82.0596 31.6423 81.9112 31.506 81.76C31.3716 81.6088 31.212 81.466 31.0636 81.3148C30.7108 80.976 30.3384 80.6484 29.9436 80.3292C30.2068 80.1136 31.1224 79.3408 31.3856 78.8144C31.6488 78.288 31.8364 77.5516 31.562 76.9944C31.5017 76.8619 31.4142 76.7435 31.3052 76.6469C31.1961 76.5504 31.068 76.4778 30.9291 76.434C30.7903 76.3902 30.6437 76.376 30.499 76.3925C30.3543 76.409 30.2147 76.4557 30.0892 76.5296C29.3444 76.9944 29.2688 78.5764 29.462 79.3296C29.462 79.3772 29.6748 79.9092 29.7896 80.1976C29.5572 80.0044 29.3276 79.814 29.0868 79.6376C28.3924 79.1028 27.6868 78.582 26.9588 78.0584L26.3064 77.574C26.3988 77.4984 27.5076 76.6024 27.8044 76.0116C28.0676 75.488 28.2552 74.7488 27.9808 74.1944C27.9208 74.0612 27.8334 73.9422 27.7243 73.8451C27.6151 73.748 27.4868 73.675 27.3475 73.6309C27.2083 73.5867 27.0613 73.5725 26.9161 73.589C26.771 73.6055 26.631 73.6525 26.5052 73.7268C25.7632 74.1944 25.6876 75.7736 25.8808 76.5268C25.8948 76.5828 26.1832 77.3444 26.2672 77.5348C25.7884 77.1792 25.3152 76.8208 24.8672 76.4484C24.2545 75.9467 23.6746 75.4061 23.1312 74.83C23.1732 74.7964 24.3352 73.864 24.6376 73.262C24.9008 72.7384 25.0884 71.9992 24.814 71.442C24.7534 71.3101 24.6658 71.1923 24.5569 71.0963C24.4479 71.0004 24.3201 70.9283 24.1816 70.8847C24.0431 70.8412 23.897 70.8272 23.7527 70.8436C23.6084 70.86 23.4692 70.9065 23.344 70.98C22.5992 71.4476 22.5264 73.0296 22.7168 73.78C22.7308 73.8304 22.9492 74.4128 23.0612 74.6844L23.0192 74.7124C22.4873 74.1177 22.0094 73.4767 21.5912 72.7972C21.3588 72.4276 21.1544 72.058 20.964 71.6968C21.1992 71.5456 22.2604 70.8568 22.5936 70.3304C22.9268 69.804 23.1816 69.1236 22.9688 68.5412C22.9233 68.4044 22.8497 68.2786 22.7529 68.1717C22.6561 68.0649 22.538 67.9794 22.4063 67.9207C22.2747 67.8619 22.1322 67.8312 21.988 67.8306C21.8438 67.8299 21.701 67.8593 21.5688 67.9168C20.7792 68.2976 20.53 69.8768 20.6392 70.6384C20.6392 70.6804 20.7512 71.1032 20.8352 71.4084C20.7512 71.246 20.6616 71.0752 20.586 70.9156C20.306 70.3192 20.068 69.7536 19.872 69.2524C19.7628 68.9724 19.6676 68.6924 19.592 68.4572C19.7432 68.1912 20.3452 67.102 20.4012 66.4972C20.4572 65.8924 20.3676 65.156 19.9112 64.736C19.8071 64.6337 19.6825 64.5544 19.5458 64.5033C19.409 64.4522 19.263 64.4304 19.1172 64.4394C18.9715 64.4484 18.8292 64.4879 18.6998 64.5554C18.5703 64.6229 18.4564 64.7169 18.3656 64.8312C17.842 65.534 18.3432 67.0376 18.7968 67.676C18.836 67.732 19.5472 68.516 19.5556 68.516V68.4992C19.634 68.7372 19.718 68.9892 19.8188 69.2664C20.0064 69.7732 20.222 70.3444 20.4992 70.9464C20.7901 71.6035 21.1192 72.243 21.4848 72.8616C21.8925 73.5551 22.3611 74.211 22.8848 74.8216L22.9044 74.8412C22.686 74.7068 22.0644 74.3512 22.0112 74.3288C21.2916 74.018 19.7152 73.8444 19.1384 74.5052C19.0457 74.6178 18.9778 74.7487 18.939 74.8894C18.9003 75.03 18.8916 75.1772 18.9135 75.3215C18.9354 75.4657 18.9875 75.6037 19.0663 75.7264C19.1451 75.8492 19.2488 75.954 19.3708 76.034C19.8748 76.3924 20.6364 76.314 21.1936 76.146C21.8236 75.9472 22.8736 74.9868 22.9716 74.9112C23.5193 75.5197 24.1067 76.0912 24.73 76.622C25.0912 76.9328 25.4636 77.2352 25.85 77.5348C25.6568 77.4256 25.4832 77.3276 25.458 77.3164C24.7384 77.0056 23.1648 76.832 22.588 77.4928C22.4948 77.6051 22.4263 77.7358 22.3871 77.8764C22.3478 78.017 22.3388 78.1643 22.3604 78.3086C22.3821 78.453 22.4341 78.5911 22.5128 78.714C22.5916 78.8368 22.6955 78.9417 22.8176 79.0216C23.3244 79.38 24.0832 79.3016 24.6432 79.1336C25.2032 78.9656 26.13 78.1536 26.3736 77.938L26.8104 78.2796C27.516 78.82 28.2104 79.3548 28.8964 79.9008C29.1344 80.094 29.3612 80.29 29.5908 80.4888C29.42 80.3908 29.2744 80.3096 29.2492 80.2984C28.5296 79.9904 26.956 79.814 26.3792 80.4776C26.286 80.5899 26.2175 80.7206 26.1783 80.8612C26.139 81.0018 26.13 81.1491 26.1516 81.2934C26.1733 81.4378 26.2253 81.5759 26.304 81.6988C26.3828 81.8216 26.4867 81.9265 26.6088 82.0064C27.1156 82.3648 27.8744 82.2864 28.4344 82.1156C28.9944 81.9448 29.8344 81.214 30.1144 80.962C30.3412 81.1692 30.5708 81.3792 30.7836 81.592C30.9236 81.7404 31.0636 81.872 31.2036 82.0316L31.604 82.488C31.8504 82.7848 32.1024 83.09 32.3348 83.3868C32.4972 83.594 32.6484 83.7928 32.8024 83.9916C32.5672 83.7984 32.0996 83.4316 32.0548 83.4008C31.3912 82.9836 29.8624 82.5748 29.1904 83.1404C29.082 83.2378 28.9952 83.357 28.9359 83.4901C28.8765 83.6233 28.8458 83.7674 28.8458 83.9132C28.8458 84.059 28.8765 84.2031 28.9359 84.3363C28.9952 84.4694 29.082 84.5886 29.1904 84.686C29.6356 85.1172 30.3972 85.162 30.9768 85.0724C31.6124 84.9744 32.766 84.2324 32.9088 84.1288C33.1608 84.4592 33.4016 84.784 33.6256 85.092C34.4012 86.1644 35.006 87.0884 35.4204 87.738L35.4624 87.8052L36 87.5448L35.916 87.416C35.482 86.7692 34.852 85.8508 34.0428 84.784C33.7908 84.4452 33.5108 84.0924 33.2224 83.7284C33.522 83.4014 33.8024 83.0573 34.0624 82.698C34.6784 82.9388 35.9636 82.9472 36.1288 82.9472C36.1568 83.3644 36.1792 83.7676 36.1932 84.1484C36.2492 85.4728 36.2436 86.576 36.2324 87.346C36.2324 87.3768 36.2324 87.4048 36.2324 87.4356L36.8232 87.1556C36.8232 86.3884 36.7924 85.3524 36.7168 84.126C36.6888 83.706 36.6524 83.2552 36.6132 82.7932C36.7756 82.754 38.1112 82.4096 38.6152 82.0064C39.0744 81.6424 39.556 81.0488 39.5392 80.43C39.5403 80.2842 39.5107 80.1398 39.4524 80.0061C39.394 79.8725 39.3081 79.7527 39.2003 79.6544C39.0926 79.5561 38.9653 79.4817 38.8269 79.4359C38.6885 79.39 38.5419 79.3739 38.3968 79.3884C37.5232 79.5004 36.7952 80.9032 36.6524 81.676C36.6524 81.7208 36.6048 82.236 36.588 82.5412C36.5712 82.3536 36.5544 82.1716 36.5348 81.9812C36.4956 81.5976 36.4452 81.2168 36.3948 80.8052C36.3612 80.6092 36.3276 80.4076 36.2968 80.206C36.266 80.0044 36.2128 79.7972 36.1708 79.5928C36.0644 79.114 35.9356 78.6352 35.7928 78.1564C36.1288 78.1228 37.3216 77.9828 37.8312 77.6888C38.3408 77.3948 38.9036 76.8852 38.982 76.2692C39.005 76.1253 38.9974 75.9782 38.9599 75.8375C38.9223 75.6967 38.8555 75.5654 38.7639 75.4521C38.6723 75.3388 38.5578 75.2461 38.428 75.1799C38.2982 75.1137 38.1559 75.0756 38.0104 75.068C37.1312 75.0456 36.196 76.3224 35.9384 77.0644C35.9216 77.1092 35.7956 77.6608 35.734 77.966C35.6444 77.686 35.5604 77.392 35.454 77.1036C35.174 76.2636 34.8576 75.4432 34.5496 74.6116L34.2696 73.8472C34.39 73.8472 35.8096 73.7016 36.3808 73.3712C36.8876 73.0912 37.4532 72.5676 37.5316 71.9516C37.555 71.8077 37.5478 71.6604 37.5104 71.5194C37.473 71.3785 37.4063 71.247 37.3146 71.1336C37.2229 71.0202 37.1082 70.9275 36.9782 70.8615C36.8482 70.7954 36.7057 70.7576 36.56 70.7504C35.6808 70.728 34.7456 72.0076 34.488 72.7468C34.4684 72.8028 34.2892 73.5868 34.2528 73.8024C34.0512 73.2424 33.8552 72.6824 33.6928 72.1224C33.459 71.3656 33.2719 70.595 33.1328 69.8152C33.1888 69.8152 34.6728 69.6752 35.258 69.3392C35.7648 69.0452 36.3304 68.5328 36.4088 67.9168C36.4318 67.7727 36.4242 67.6254 36.3864 67.4844C36.3487 67.3435 36.2817 67.212 36.1897 67.0987C36.0978 66.9854 35.983 66.8927 35.8529 66.8267C35.7228 66.7607 35.5802 66.7228 35.4344 66.7156C34.558 66.6932 33.6228 67.9728 33.3652 68.712C33.3484 68.7596 33.2112 69.3672 33.1524 69.6556H33.102C32.9864 68.8669 32.9414 68.0695 32.9676 67.2728C32.9676 66.836 33.0096 66.416 33.0516 66.01C33.3316 66.01 34.6056 66.01 35.1656 65.7692C35.7256 65.5284 36.3192 65.086 36.4648 64.484C36.5037 64.343 36.5123 64.1954 36.4901 64.0508C36.468 63.9062 36.4155 63.7679 36.3362 63.645C36.2569 63.5221 36.1526 63.4173 36.03 63.3375C35.9074 63.2577 35.7693 63.2047 35.6248 63.182C34.754 63.0644 33.6844 64.232 33.3484 64.9376C33.3288 64.9768 33.186 65.3884 33.0852 65.6908C33.1048 65.506 33.1244 65.3184 33.1496 65.1308C33.2392 64.4728 33.3596 63.8764 33.4716 63.3472C33.5388 63.0476 33.6032 62.7872 33.6676 62.5268C33.9476 62.3868 35.0452 61.8128 35.4232 61.3452C35.8012 60.8776 36.1316 60.2084 35.9832 59.6064C35.9524 59.4615 35.8909 59.3249 35.8029 59.2057C35.7148 59.0865 35.6024 58.9875 35.4729 58.9154C35.3435 58.8432 35.2002 58.7996 35.0525 58.7874C34.9049 58.7753 34.7563 58.7948 34.6168 58.8448Z" fill="#2176FF"/>
<path d="M18.7464 72.3799C19.4324 72.3519 20.8044 71.6463 20.8072 71.6463C20.81 71.6463 20.068 70.8847 20.0148 70.8399C19.4016 70.3527 17.9288 69.7675 17.198 70.2547C17.0789 70.3387 16.9788 70.4468 16.9042 70.572C16.8296 70.6972 16.7822 70.8366 16.765 70.9813C16.7479 71.1261 16.7614 71.2728 16.8046 71.4119C16.8478 71.5511 16.9199 71.6796 17.016 71.7891C17.4108 72.2679 18.1696 72.4023 18.7464 72.3799Z" fill="#2176FF"/>
<g opacity="0.5">
<path d="M32.9171 65.8784C32.9339 65.8784 32.7239 64.834 32.7015 64.7584C32.4607 64.0136 31.5563 62.7144 30.6771 62.7144C30.5312 62.7189 30.388 62.754 30.2566 62.8175C30.1252 62.881 30.0086 62.9713 29.9144 63.0827C29.8201 63.1941 29.7503 63.3241 29.7095 63.4642C29.6687 63.6043 29.6578 63.7514 29.6775 63.896C29.7419 64.512 30.2963 65.0384 30.7975 65.3408C31.3855 65.7076 32.9171 65.8784 32.9171 65.8784Z" fill="white"/>
<path d="M34.6168 58.8448C33.7908 59.1416 33.382 60.6704 33.4072 61.4544C33.4072 61.5216 33.564 62.5744 33.5808 62.5744H33.5976C33.5304 62.8152 33.4604 63.0728 33.3904 63.3584C33.2672 63.8848 33.1328 64.4784 33.0292 65.1392C32.9091 65.8471 32.8306 66.5614 32.794 67.2784C32.7508 68.0819 32.7779 68.8876 32.8752 69.6864C32.8763 69.6957 32.8763 69.7051 32.8752 69.7144C32.7688 69.482 32.444 68.8408 32.4132 68.7932C31.982 68.138 30.7668 67.1132 29.9184 67.3568C29.7794 67.3997 29.6509 67.4713 29.5413 67.567C29.4317 67.6626 29.3434 67.7803 29.2821 67.9123C29.2209 68.0443 29.1881 68.1876 29.1858 68.3331C29.1835 68.4786 29.2118 68.623 29.2688 68.7568C29.4928 69.3364 30.1648 69.6948 30.7276 69.8572C31.3632 70.0364 32.78 69.8236 32.892 69.8068C33.0134 70.6162 33.1874 71.4168 33.4128 72.2036C33.5444 72.6628 33.6928 73.122 33.8384 73.5784C33.7404 73.3796 33.648 73.2032 33.634 73.1808C33.2028 72.5256 31.9876 71.5008 31.1392 71.7444C31.0002 71.7873 30.8717 71.8589 30.7621 71.9546C30.6525 72.0502 30.5642 72.1679 30.5029 72.2999C30.4417 72.4319 30.4089 72.5752 30.4066 72.7207C30.4043 72.8662 30.4326 73.0106 30.4896 73.1444C30.7136 73.7212 31.3856 74.0824 31.9484 74.242C32.5112 74.4016 33.732 74.242 34.0512 74.2028C34.11 74.3764 34.1688 74.5528 34.2304 74.7264C34.5104 75.5664 34.8128 76.4064 35.0704 77.2296C35.1628 77.5096 35.2412 77.812 35.3224 78.1032C35.2356 77.9268 35.1572 77.7784 35.1432 77.7588C34.7148 77.1008 33.4968 76.0788 32.6512 76.3224C32.5119 76.365 32.3831 76.4363 32.2732 76.5319C32.1633 76.6275 32.0747 76.7451 32.0132 76.8771C31.9517 77.0091 31.9186 77.1526 31.9161 77.2982C31.9136 77.4439 31.9418 77.5884 31.9988 77.7224C32.2228 78.2992 32.8976 78.6604 33.4604 78.82C34.0232 78.9796 35.1236 78.8396 35.5044 78.7864C35.58 79.086 35.6556 79.3884 35.7144 79.6824C35.748 79.884 35.7956 80.0744 35.8208 80.2816L35.9048 80.8808C35.944 81.2644 35.9888 81.6592 36.0168 82.0344C36.0392 82.2976 36.056 82.5468 36.0728 82.796C35.986 82.516 35.7928 81.9364 35.7928 81.8916C35.4828 81.2755 35.0201 80.7492 34.4488 80.3628C34.417 80.2927 34.3796 80.2253 34.3368 80.1612C34.257 80.0391 34.1524 79.9352 34.0298 79.8561C33.9073 79.7771 33.7695 79.7246 33.6254 79.7022C33.4812 79.6797 33.334 79.6878 33.1932 79.7259C33.0524 79.764 32.9212 79.8312 32.808 79.9232C32.1444 80.4972 32.3096 82.0708 32.6148 82.7932C32.6316 82.8352 32.8948 83.2776 33.0404 83.552L32.6848 83.1096C32.4384 82.81 32.1864 82.5188 31.9176 82.2052C31.7795 82.0596 31.6423 81.9112 31.506 81.76C31.3716 81.6088 31.212 81.466 31.0636 81.3148C30.7108 80.976 30.3384 80.6484 29.9436 80.3292C30.2068 80.1136 31.1224 79.3408 31.3856 78.8144C31.6488 78.288 31.8364 77.5516 31.562 76.9944C31.5017 76.8619 31.4142 76.7435 31.3052 76.6469C31.1961 76.5504 31.068 76.4778 30.9291 76.434C30.7903 76.3902 30.6437 76.376 30.499 76.3925C30.3543 76.409 30.2147 76.4557 30.0892 76.5296C29.3444 76.9944 29.2688 78.5764 29.462 79.3296C29.462 79.3772 29.6748 79.9092 29.7896 80.1976C29.5572 80.0044 29.3276 79.814 29.0868 79.6376C28.3924 79.1028 27.6868 78.582 26.9588 78.0584L26.3064 77.574C26.3988 77.4984 27.5076 76.6024 27.8044 76.0116C28.0676 75.488 28.2552 74.7488 27.9808 74.1944C27.9208 74.0612 27.8334 73.9422 27.7243 73.8451C27.6151 73.748 27.4868 73.675 27.3475 73.6309C27.2083 73.5867 27.0613 73.5725 26.9161 73.589C26.771 73.6055 26.631 73.6525 26.5052 73.7268C25.7632 74.1944 25.6876 75.7736 25.8808 76.5268C25.8948 76.5828 26.1832 77.3444 26.2672 77.5348C25.7884 77.1792 25.3152 76.8208 24.8672 76.4484C24.2545 75.9467 23.6746 75.4061 23.1312 74.83C23.1732 74.7964 24.3352 73.864 24.6376 73.262C24.9008 72.7384 25.0884 71.9992 24.814 71.442C24.7534 71.3101 24.6658 71.1923 24.5569 71.0963C24.4479 71.0004 24.3201 70.9283 24.1816 70.8847C24.0431 70.8412 23.897 70.8272 23.7527 70.8436C23.6084 70.86 23.4692 70.9065 23.344 70.98C22.5992 71.4476 22.5264 73.0296 22.7168 73.78C22.7308 73.8304 22.9492 74.4128 23.0612 74.6844L23.0192 74.7124C22.4873 74.1177 22.0094 73.4767 21.5912 72.7972C21.3588 72.4276 21.1544 72.058 20.964 71.6968C21.1992 71.5456 22.2604 70.8568 22.5936 70.3304C22.9268 69.804 23.1816 69.1236 22.9688 68.5412C22.9233 68.4044 22.8497 68.2786 22.7529 68.1717C22.6561 68.0649 22.538 67.9794 22.4063 67.9207C22.2747 67.8619 22.1322 67.8312 21.988 67.8306C21.8438 67.8299 21.701 67.8593 21.5688 67.9168C20.7792 68.2976 20.53 69.8768 20.6392 70.6384C20.6392 70.6804 20.7512 71.1032 20.8352 71.4084C20.7512 71.246 20.6616 71.0752 20.586 70.9156C20.306 70.3192 20.068 69.7536 19.872 69.2524C19.7628 68.9724 19.6676 68.6924 19.592 68.4572C19.7432 68.1912 20.3452 67.102 20.4012 66.4972C20.4572 65.8924 20.3676 65.156 19.9112 64.736C19.8071 64.6337 19.6825 64.5544 19.5458 64.5033C19.409 64.4522 19.263 64.4304 19.1172 64.4394C18.9715 64.4484 18.8292 64.4879 18.6998 64.5554C18.5703 64.6229 18.4564 64.7169 18.3656 64.8312C17.842 65.534 18.3432 67.0376 18.7968 67.676C18.836 67.732 19.5472 68.516 19.5556 68.516V68.4992C19.634 68.7372 19.718 68.9892 19.8188 69.2664C20.0064 69.7732 20.222 70.3444 20.4992 70.9464C20.7901 71.6035 21.1192 72.243 21.4848 72.8616C21.8925 73.5551 22.3611 74.211 22.8848 74.8216L22.9044 74.8412C22.686 74.7068 22.0644 74.3512 22.0112 74.3288C21.2916 74.018 19.7152 73.8444 19.1384 74.5052C19.0457 74.6178 18.9778 74.7487 18.939 74.8894C18.9003 75.03 18.8916 75.1772 18.9135 75.3215C18.9354 75.4657 18.9875 75.6037 19.0663 75.7264C19.1451 75.8492 19.2488 75.954 19.3708 76.034C19.8748 76.3924 20.6364 76.314 21.1936 76.146C21.8236 75.9472 22.8736 74.9868 22.9716 74.9112C23.5193 75.5197 24.1067 76.0912 24.73 76.622C25.0912 76.9328 25.4636 77.2352 25.85 77.5348C25.6568 77.4256 25.4832 77.3276 25.458 77.3164C24.7384 77.0056 23.1648 76.832 22.588 77.4928C22.4948 77.6051 22.4263 77.7358 22.3871 77.8764C22.3478 78.017 22.3388 78.1643 22.3604 78.3086C22.3821 78.453 22.4341 78.5911 22.5128 78.714C22.5916 78.8368 22.6955 78.9417 22.8176 79.0216C23.3244 79.38 24.0832 79.3016 24.6432 79.1336C25.2032 78.9656 26.13 78.1536 26.3736 77.938L26.8104 78.2796C27.516 78.82 28.2104 79.3548 28.8964 79.9008C29.1344 80.094 29.3612 80.29 29.5908 80.4888C29.42 80.3908 29.2744 80.3096 29.2492 80.2984C28.5296 79.9904 26.956 79.814 26.3792 80.4776C26.286 80.5899 26.2175 80.7206 26.1783 80.8612C26.139 81.0018 26.13 81.1491 26.1516 81.2934C26.1733 81.4378 26.2253 81.5759 26.304 81.6988C26.3828 81.8216 26.4867 81.9265 26.6088 82.0064C27.1156 82.3648 27.8744 82.2864 28.4344 82.1156C28.9944 81.9448 29.8344 81.214 30.1144 80.962C30.3412 81.1692 30.5708 81.3792 30.7836 81.592C30.9236 81.7404 31.0636 81.872 31.2036 82.0316L31.604 82.488C31.8504 82.7848 32.1024 83.09 32.3348 83.3868C32.4972 83.594 32.6484 83.7928 32.8024 83.9916C32.5672 83.7984 32.0996 83.4316 32.0548 83.4008C31.3912 82.9836 29.8624 82.5748 29.1904 83.1404C29.082 83.2378 28.9952 83.357 28.9359 83.4901C28.8765 83.6233 28.8458 83.7674 28.8458 83.9132C28.8458 84.059 28.8765 84.2031 28.9359 84.3363C28.9952 84.4694 29.082 84.5886 29.1904 84.686C29.6356 85.1172 30.3972 85.162 30.9768 85.0724C31.6124 84.9744 32.766 84.2324 32.9088 84.1288C33.1608 84.4592 33.4016 84.784 33.6256 85.092C34.4012 86.1644 35.006 87.0884 35.4204 87.738L35.4624 87.8052L36 87.5448L35.916 87.416C35.482 86.7692 34.852 85.8508 34.0428 84.784C33.7908 84.4452 33.5108 84.0924 33.2224 83.7284C33.522 83.4014 33.8024 83.0573 34.0624 82.698C34.6784 82.9388 35.9636 82.9472 36.1288 82.9472C36.1568 83.3644 36.1792 83.7676 36.1932 84.1484C36.2492 85.4728 36.2436 86.576 36.2324 87.346C36.2324 87.3768 36.2324 87.4048 36.2324 87.4356L36.8232 87.1556C36.8232 86.3884 36.7924 85.3524 36.7168 84.126C36.6888 83.706 36.6524 83.2552 36.6132 82.7932C36.7756 82.754 38.1112 82.4096 38.6152 82.0064C39.0744 81.6424 39.556 81.0488 39.5392 80.43C39.5403 80.2842 39.5107 80.1398 39.4524 80.0061C39.394 79.8725 39.3081 79.7527 39.2003 79.6544C39.0926 79.5561 38.9653 79.4817 38.8269 79.4359C38.6885 79.39 38.5419 79.3739 38.3968 79.3884C37.5232 79.5004 36.7952 80.9032 36.6524 81.676C36.6524 81.7208 36.6048 82.236 36.588 82.5412C36.5712 82.3536 36.5544 82.1716 36.5348 81.9812C36.4956 81.5976 36.4452 81.2168 36.3948 80.8052C36.3612 80.6092 36.3276 80.4076 36.2968 80.206C36.266 80.0044 36.2128 79.7972 36.1708 79.5928C36.0644 79.114 35.9356 78.6352 35.7928 78.1564C36.1288 78.1228 37.3216 77.9828 37.8312 77.6888C38.3408 77.3948 38.9036 76.8852 38.982 76.2692C39.005 76.1253 38.9974 75.9782 38.9599 75.8375C38.9223 75.6967 38.8555 75.5654 38.7639 75.4521C38.6723 75.3388 38.5578 75.2461 38.428 75.1799C38.2982 75.1137 38.1559 75.0756 38.0104 75.068C37.1312 75.0456 36.196 76.3224 35.9384 77.0644C35.9216 77.1092 35.7956 77.6608 35.734 77.966C35.6444 77.686 35.5604 77.392 35.454 77.1036C35.174 76.2636 34.8576 75.4432 34.5496 74.6116L34.2696 73.8472C34.39 73.8472 35.8096 73.7016 36.3808 73.3712C36.8876 73.0912 37.4532 72.5676 37.5316 71.9516C37.555 71.8077 37.5478 71.6604 37.5104 71.5194C37.473 71.3785 37.4063 71.247 37.3146 71.1336C37.2229 71.0202 37.1082 70.9275 36.9782 70.8615C36.8482 70.7954 36.7057 70.7576 36.56 70.7504C35.6808 70.728 34.7456 72.0076 34.488 72.7468C34.4684 72.8028 34.2892 73.5868 34.2528 73.8024C34.0512 73.2424 33.8552 72.6824 33.6928 72.1224C33.459 71.3656 33.2719 70.595 33.1328 69.8152C33.1888 69.8152 34.6728 69.6752 35.258 69.3392C35.7648 69.0452 36.3304 68.5328 36.4088 67.9168C36.4318 67.7727 36.4242 67.6254 36.3864 67.4844C36.3487 67.3435 36.2817 67.212 36.1897 67.0987C36.0978 66.9854 35.983 66.8927 35.8529 66.8267C35.7228 66.7607 35.5802 66.7228 35.4344 66.7156C34.558 66.6932 33.6228 67.9728 33.3652 68.712C33.3484 68.7596 33.2112 69.3672 33.1524 69.6556H33.102C32.9864 68.8669 32.9414 68.0695 32.9676 67.2728C32.9676 66.836 33.0096 66.416 33.0516 66.01C33.3316 66.01 34.6056 66.01 35.1656 65.7692C35.7256 65.5284 36.3192 65.086 36.4648 64.484C36.5037 64.343 36.5123 64.1954 36.4901 64.0508C36.468 63.9062 36.4155 63.7679 36.3362 63.645C36.2569 63.5221 36.1526 63.4173 36.03 63.3375C35.9074 63.2577 35.7693 63.2047 35.6248 63.182C34.754 63.0644 33.6844 64.232 33.3484 64.9376C33.3288 64.9768 33.186 65.3884 33.0852 65.6908C33.1048 65.506 33.1244 65.3184 33.1496 65.1308C33.2392 64.4728 33.3596 63.8764 33.4716 63.3472C33.5388 63.0476 33.6032 62.7872 33.6676 62.5268C33.9476 62.3868 35.0452 61.8128 35.4232 61.3452C35.8012 60.8776 36.1316 60.2084 35.9832 59.6064C35.9524 59.4615 35.8909 59.3249 35.8029 59.2057C35.7148 59.0865 35.6024 58.9875 35.4729 58.9154C35.3435 58.8432 35.2002 58.7996 35.0525 58.7874C34.9049 58.7753 34.7563 58.7948 34.6168 58.8448Z" fill="white"/>
<path d="M18.7464 72.3799C19.4324 72.3519 20.8044 71.6463 20.8072 71.6463C20.81 71.6463 20.068 70.8847 20.0148 70.8399C19.4016 70.3527 17.9288 69.7675 17.198 70.2547C17.0789 70.3387 16.9788 70.4468 16.9042 70.572C16.8296 70.6972 16.7822 70.8366 16.765 70.9813C16.7479 71.1261 16.7614 71.2728 16.8046 71.4119C16.8478 71.5511 16.9199 71.6796 17.016 71.7891C17.4108 72.2679 18.1696 72.4023 18.7464 72.3799Z" fill="white"/>
</g>
<path d="M26.7574 89.5581C26.7574 89.5581 30.921 79.5229 33.2506 79.9597C35.5802 80.3965 29.255 95.9589 29.255 95.9589C29.255 95.9589 36.5798 82.1409 41.575 82.1409C46.5702 82.1409 39.7438 97.4121 33.4186 102.502C33.4186 102.502 43.4062 91.7393 49.2358 94.0689C55.0654 96.3985 37.5794 107.304 37.5794 107.304C37.5794 107.304 47.735 104.104 46.5702 106.576C45.4054 109.049 42.2498 109.486 42.2498 109.486L53.7298 110.068H13.771L22.7618 109.194C22.7618 109.194 13.4378 104.541 15.9298 102.648C18.4218 100.755 23.921 104.829 23.921 104.829C23.921 104.829 14.4318 94.3573 16.263 90.4317C18.0942 86.5061 26.2534 97.5577 26.2534 97.5577C26.2534 97.5577 19.5922 83.4513 20.9334 80.9761C22.2746 78.5009 26.7574 89.5581 26.7574 89.5581Z" fill="#2176FF"/>
<path opacity="0.4" d="M26.7574 89.5581C26.7574 89.5581 30.921 79.5229 33.2506 79.9597C35.5802 80.3965 29.255 95.9589 29.255 95.9589C29.255 95.9589 36.5798 82.1409 41.575 82.1409C46.5702 82.1409 39.7438 97.4121 33.4186 102.502C33.4186 102.502 43.4062 91.7393 49.2358 94.0689C55.0654 96.3985 37.5794 107.304 37.5794 107.304C37.5794 107.304 47.735 104.104 46.5702 106.576C45.4054 109.049 42.2498 109.486 42.2498 109.486L53.7298 110.068H13.771L22.7618 109.194C22.7618 109.194 13.4378 104.541 15.9298 102.648C18.4218 100.755 23.921 104.829 23.921 104.829C23.921 104.829 14.4318 94.3573 16.263 90.4317C18.0942 86.5061 26.2534 97.5577 26.2534 97.5577C26.2534 97.5577 19.5922 83.4513 20.9334 80.9761C22.2746 78.5009 26.7574 89.5581 26.7574 89.5581Z" fill="white"/>
<path d="M25.4274 90.0872C29.0898 100.909 29.0898 108.567 29.0898 108.567C29.0898 108.567 24.761 108.735 20.2642 105.406" stroke="#39364F" stroke-width="0.28" stroke-linecap="round" stroke-linejoin="round"/>
<path d="M27.2588 95.914C28.0126 92.6788 29.0142 89.5063 30.2548 86.4248" stroke="#39364F" stroke-width="0.28" stroke-linecap="round" stroke-linejoin="round"/>
<path d="M38.0806 89.5889L28.7566 103.407C28.7566 103.407 22.4286 98.0869 20.2642 95.0825" stroke="#39364F" stroke-width="0.28" stroke-linecap="round" stroke-linejoin="round"/>
<path d="M28.9219 106.736C28.9219 106.736 38.7443 102.074 42.7427 99.4111" stroke="#39364F" stroke-width="0.28" stroke-linecap="round" stroke-linejoin="round"/>
<path d="M110.744 65.8784C110.727 65.8784 110.94 64.834 110.959 64.7584C111.2 64.0136 112.107 62.7144 112.984 62.7144C113.129 62.7189 113.273 62.754 113.404 62.8175C113.536 62.881 113.652 62.9713 113.746 63.0827C113.841 63.1941 113.91 63.3241 113.951 63.4642C113.992 63.6043 114.003 63.7514 113.983 63.896C113.919 64.512 113.364 65.0384 112.863 65.3408C112.275 65.7076 110.744 65.8784 110.744 65.8784Z" fill="#2176FF"/>
<path d="M109.044 58.8449C109.87 59.1417 110.281 60.6705 110.253 61.4545C110.253 61.5217 110.096 62.5745 110.082 62.5745H110.066C110.13 62.8153 110.2 63.0729 110.27 63.3585C110.393 63.8849 110.528 64.4785 110.631 65.1393C110.751 65.8472 110.83 66.5615 110.866 67.2785C110.911 68.082 110.884 68.8879 110.785 69.6865C110.784 69.6958 110.784 69.7052 110.785 69.7145C110.894 69.4821 111.219 68.8409 111.247 68.7933C111.678 68.1381 112.894 67.1133 113.742 67.3569C113.881 67.3994 114.01 67.4708 114.12 67.5664C114.23 67.662 114.318 67.7797 114.38 67.9118C114.441 68.0439 114.474 68.1875 114.476 68.3331C114.478 68.4787 114.449 68.6231 114.392 68.7569C114.168 69.3365 113.496 69.6949 112.933 69.8573C112.297 70.0365 110.88 69.8237 110.768 69.8069C110.648 70.6166 110.474 71.4173 110.248 72.2037C110.117 72.6629 109.975 73.1212 109.822 73.5785C109.92 73.3797 110.012 73.2033 110.026 73.1809C110.458 72.5257 111.676 71.5009 112.521 71.7445C112.661 71.787 112.789 71.8584 112.899 71.954C113.009 72.0496 113.097 72.1673 113.159 72.2994C113.22 72.4315 113.253 72.5751 113.255 72.7207C113.257 72.8663 113.228 73.0107 113.171 73.1445C112.947 73.7213 112.275 74.0825 111.712 74.2421C111.149 74.4017 109.928 74.2421 109.609 74.2029L109.433 74.7265C109.153 75.5665 108.848 76.4065 108.593 77.2297C108.5 77.5097 108.419 77.8121 108.338 78.1033C108.428 77.9269 108.503 77.7785 108.517 77.7589C108.948 77.1009 110.164 76.0789 111.009 76.3225C111.149 76.3651 111.277 76.4365 111.387 76.532C111.497 76.6276 111.586 76.7452 111.647 76.8772C111.709 77.0092 111.742 77.1527 111.744 77.2983C111.747 77.444 111.719 77.5885 111.662 77.7225C111.438 78.2993 110.763 78.6605 110.2 78.8201C109.637 78.9797 108.537 78.8397 108.156 78.7865C108.08 79.0861 108.008 79.3885 107.949 79.6825C107.912 79.8841 107.865 80.0745 107.84 80.2817L107.756 80.8809C107.716 81.2645 107.672 81.6593 107.644 82.0345C107.621 82.2977 107.604 82.5469 107.588 82.7961C107.677 82.5161 107.868 81.9365 107.882 81.8917C108.193 81.2763 108.655 80.7501 109.226 80.3629C109.257 80.2922 109.296 80.2247 109.34 80.1613C109.42 80.039 109.524 79.9348 109.646 79.8554C109.769 79.7761 109.906 79.7235 110.05 79.7011C110.194 79.6786 110.341 79.6868 110.482 79.7251C110.623 79.7634 110.754 79.8309 110.866 79.9233C111.533 80.4973 111.365 82.0709 111.06 82.7933C111.043 82.8353 110.794 83.2777 110.634 83.5521C110.754 83.4037 110.866 83.2721 110.992 83.1097C111.236 82.8101 111.488 82.5189 111.757 82.2053L112.168 81.7601C112.303 81.6089 112.465 81.4661 112.614 81.3149C112.964 80.9761 113.336 80.6485 113.72 80.3293C113.459 80.1137 112.541 79.3409 112.278 78.8145C112.014 78.2881 111.827 77.5517 112.101 76.9945C112.161 76.8616 112.249 76.7428 112.358 76.646C112.468 76.5492 112.596 76.4765 112.735 76.4326C112.874 76.3888 113.021 76.3748 113.166 76.3915C113.311 76.4082 113.451 76.4553 113.577 76.5297C114.319 76.9945 114.394 78.5765 114.201 79.3297C114.201 79.3773 113.988 79.9093 113.874 80.1977C114.106 80.0045 114.336 79.8141 114.576 79.6377C115.271 79.1029 115.99 78.5821 116.704 78.0585L117.357 77.5741C117.264 77.4985 116.156 76.6025 115.859 76.0117C115.598 75.4881 115.408 74.7489 115.682 74.1945C115.742 74.0613 115.83 73.9423 115.939 73.8452C116.048 73.7481 116.176 73.6751 116.316 73.631C116.455 73.5868 116.602 73.5726 116.747 73.5891C116.892 73.6056 117.032 73.6526 117.158 73.7269C117.903 74.1945 117.976 75.7737 117.782 76.5269C117.768 76.5829 117.48 77.3445 117.399 77.5349C117.875 77.1793 118.348 76.8209 118.799 76.4485C119.412 75.9468 119.991 75.4062 120.535 74.8301C120.493 74.7965 119.331 73.8641 119.028 73.2621C118.765 72.7385 118.578 71.9993 118.852 71.4421C118.912 71.3093 118.999 71.1907 119.108 71.0938C119.217 70.997 119.345 70.9241 119.484 70.88C119.623 70.8359 119.77 70.8216 119.915 70.8378C120.059 70.8541 120.199 70.9007 120.325 70.9745C121.07 71.4421 121.145 73.0241 120.952 73.7745C120.938 73.8249 120.72 74.4073 120.61 74.6789C120.623 74.6898 120.637 74.6992 120.652 74.7069C121.184 74.1122 121.66 73.4712 122.078 72.7917C122.313 72.4221 122.514 72.0525 122.705 71.6913C122.47 71.5401 121.408 70.8513 121.075 70.3249C120.742 69.7985 120.49 69.1181 120.7 68.5357C120.745 68.3971 120.819 68.2696 120.917 68.1615C121.015 68.0534 121.134 67.9671 121.268 67.9082C121.401 67.8493 121.545 67.8191 121.691 67.8197C121.837 67.8202 121.981 67.8514 122.114 67.9113C122.906 68.2921 123.153 69.8713 123.044 70.6329C123.044 70.6749 122.932 71.0977 122.85 71.4029C122.932 71.2405 123.021 71.0697 123.097 70.9101C123.377 70.3137 123.615 69.7481 123.811 69.2469C123.923 68.9669 124.015 68.6869 124.091 68.4517C123.937 68.1857 123.338 67.0965 123.279 66.4917C123.22 65.8869 123.315 65.1505 123.772 64.7305C123.876 64.6283 124 64.549 124.136 64.4979C124.273 64.4469 124.419 64.4251 124.564 64.4341C124.71 64.4431 124.852 64.4826 124.981 64.5501C125.11 64.6175 125.224 64.7115 125.314 64.8257C125.841 65.5285 125.34 67.0321 124.886 67.6705C124.847 67.7265 124.133 68.5105 124.124 68.5105V68.4937C124.046 68.7317 123.962 68.9837 123.861 69.2609C123.676 69.7677 123.461 70.3389 123.184 70.9409C122.891 71.5975 122.561 72.2369 122.195 72.8561C121.787 73.5496 121.319 74.2055 120.795 74.8161L120.776 74.8357C120.994 74.7013 121.616 74.3457 121.669 74.3233C122.391 74.0125 123.965 73.8389 124.542 74.4997C124.634 74.6122 124.703 74.7429 124.742 74.8834C124.781 75.024 124.789 75.1711 124.768 75.3153C124.746 75.4595 124.694 75.5976 124.616 75.7205C124.537 75.8433 124.434 75.9483 124.312 76.0285C123.805 76.3869 123.046 76.3085 122.486 76.1405C121.856 75.9417 120.806 74.9813 120.711 74.9057C120.164 75.5142 119.576 76.0857 118.953 76.6165C118.592 76.9273 118.216 77.2297 117.833 77.5293C118.026 77.4201 118.2 77.3221 118.225 77.3109C118.944 77.0001 120.518 76.8265 121.095 77.4873C121.188 77.5996 121.257 77.7303 121.296 77.8709C121.335 78.0115 121.344 78.1588 121.322 78.3031C121.301 78.4475 121.249 78.5856 121.17 78.7085C121.091 78.8314 120.987 78.9362 120.865 79.0161C120.361 79.3745 119.6 79.2961 119.042 79.1281C118.485 78.9601 117.553 78.1481 117.312 77.9325C117.164 78.0473 117.032 78.1621 116.872 78.2741C116.17 78.8145 115.472 79.3493 114.786 79.8953C114.548 80.0885 114.322 80.2845 114.092 80.4833L114.434 80.2929C115.153 79.9849 116.727 79.8085 117.304 80.4721C117.397 80.5844 117.465 80.7151 117.505 80.8557C117.544 80.9963 117.553 81.1436 117.531 81.2879C117.51 81.4323 117.458 81.5704 117.379 81.6933C117.3 81.8162 117.196 81.921 117.074 82.0009C116.567 82.3593 115.808 82.2809 115.251 82.1101C114.694 81.9393 113.851 81.2085 113.571 80.9565C113.344 81.1637 113.115 81.3737 112.905 81.5865C112.762 81.7349 112.625 81.8665 112.485 82.0261L112.082 82.4825C111.838 82.7793 111.583 83.0845 111.351 83.3813C111.188 83.5885 111.037 83.7873 110.886 83.9861C111.118 83.7929 111.589 83.4261 111.631 83.3953C112.294 82.9781 113.826 82.5693 114.495 83.1349C114.604 83.2323 114.69 83.3515 114.75 83.4846C114.809 83.6178 114.84 83.7619 114.84 83.9077C114.84 84.0535 114.809 84.1977 114.75 84.3308C114.69 84.4639 114.604 84.5831 114.495 84.6805C114.047 85.1117 113.286 85.1565 112.709 85.0669C112.07 84.9689 110.917 84.2269 110.774 84.1233C110.522 84.4537 110.281 84.7785 110.057 85.0865C109.282 86.1589 108.677 87.0829 108.262 87.7325C108.262 87.7577 108.234 87.7773 108.22 87.7997L107.683 87.5393L107.767 87.4105C108.201 86.7637 108.834 85.8453 109.64 84.7785C109.895 84.4397 110.172 84.0869 110.46 83.7229C110.16 83.3964 109.88 83.0523 109.62 82.6925C109.002 82.9333 107.719 82.9417 107.551 82.9417C107.526 83.3589 107.504 83.7621 107.487 84.1429C107.431 85.4673 107.436 86.5705 107.45 87.3405V87.4301L106.86 87.1501C106.86 86.3829 106.89 85.3469 106.969 84.1205C106.994 83.7005 107.03 83.2497 107.072 82.7877C106.907 82.7485 105.572 82.4041 105.068 82.0009C104.611 81.6369 104.13 81.0433 104.146 80.4245C104.145 80.2786 104.174 80.1339 104.232 80.0001C104.291 79.8662 104.376 79.7462 104.484 79.6479C104.592 79.5495 104.72 79.4751 104.858 79.4294C104.997 79.3838 105.144 79.3679 105.289 79.3829C106.16 79.4949 106.89 80.8977 107.033 81.6705C107.033 81.7153 107.078 82.2305 107.095 82.5357C107.114 82.3481 107.128 82.1661 107.151 81.9757C107.187 81.5921 107.238 81.2113 107.291 80.7997C107.322 80.6037 107.355 80.4021 107.386 80.2005C107.417 79.9989 107.47 79.7917 107.512 79.5873C107.618 79.1085 107.747 78.6297 107.89 78.1509C107.554 78.1173 106.364 77.9773 105.852 77.6833C105.339 77.3893 104.779 76.8797 104.704 76.2637C104.68 76.1198 104.687 75.9725 104.725 75.8316C104.762 75.6906 104.829 75.5591 104.921 75.4457C105.012 75.3324 105.127 75.2396 105.257 75.1736C105.387 75.1075 105.53 75.0697 105.675 75.0625C106.552 75.0401 107.487 76.3169 107.744 77.0589C107.761 77.1037 107.887 77.6553 107.949 77.9605C108.038 77.6805 108.122 77.3865 108.229 77.0981C108.509 76.2581 108.825 75.4377 109.133 74.6061C109.228 74.3513 109.318 74.0965 109.413 73.8417C109.293 73.8417 107.873 73.6961 107.302 73.3657C106.795 73.0857 106.23 72.5621 106.151 71.9461C106.128 71.8022 106.136 71.6551 106.173 71.5144C106.211 71.3736 106.278 71.2423 106.369 71.129C106.461 71.0157 106.575 70.923 106.705 70.8568C106.835 70.7906 106.977 70.7525 107.123 70.7449C108.002 70.7225 108.937 72.0021 109.195 72.7413C109.214 72.7973 109.394 73.5813 109.43 73.7969C109.632 73.2369 109.83 72.6769 109.99 72.1169C110.227 71.3608 110.414 70.5901 110.55 69.8097C110.494 69.8097 109.013 69.6697 108.428 69.3337C107.918 69.0397 107.352 68.5273 107.277 67.9113C107.253 67.7674 107.261 67.6201 107.298 67.4792C107.335 67.3382 107.402 67.2067 107.494 67.0933C107.586 66.98 107.7 66.8872 107.83 66.8212C107.96 66.7551 108.103 66.7173 108.248 66.7101C109.125 66.6877 110.06 67.9673 110.318 68.7065C110.334 68.7541 110.474 69.3617 110.533 69.6501H110.581C110.696 68.8614 110.741 68.064 110.715 67.2673C110.715 66.8305 110.673 66.4105 110.631 66.0045C110.351 66.0045 109.08 66.0045 108.52 65.7637C107.96 65.5229 107.364 65.0805 107.218 64.4785C107.179 64.3375 107.171 64.1899 107.193 64.0453C107.215 63.9007 107.267 63.7624 107.347 63.6395C107.426 63.5166 107.53 63.4118 107.653 63.332C107.775 63.2523 107.914 63.1993 108.058 63.1765C108.929 63.0589 109.998 64.2265 110.337 64.9321C110.354 64.9713 110.5 65.3829 110.598 65.6853C110.578 65.5005 110.558 65.3129 110.533 65.1253C110.446 64.4673 110.323 63.8709 110.211 63.3417C110.144 63.0421 110.08 62.7817 110.015 62.5213C109.735 62.3813 108.638 61.8073 108.262 61.3397C107.887 60.8721 107.551 60.2029 107.702 59.6009C107.734 59.4595 107.796 59.3263 107.882 59.21C107.969 59.0937 108.079 58.9968 108.205 58.9256C108.332 58.8544 108.472 58.8104 108.616 58.7965C108.76 58.7826 108.906 58.7991 109.044 58.8449Z" fill="#2176FF"/>
<path d="M124.914 72.3799C124.228 72.3519 122.856 71.6463 122.856 71.6463C122.856 71.6463 123.592 70.8847 123.646 70.8399C124.259 70.3527 125.732 69.7675 126.462 70.2547C126.582 70.3384 126.682 70.4464 126.757 70.5716C126.832 70.6968 126.88 70.8363 126.897 70.9812C126.914 71.126 126.9 71.2729 126.857 71.4121C126.813 71.5513 126.741 71.6798 126.644 71.7891C126.25 72.2679 125.499 72.4023 124.914 72.3799Z" fill="#2176FF"/>
<g opacity="0.5">
<path d="M110.743 65.8786C110.726 65.8786 110.939 64.8342 110.959 64.7586C111.2 64.0138 112.107 62.7146 112.983 62.7146C113.129 62.7191 113.272 62.7543 113.404 62.8177C113.535 62.8812 113.652 62.9716 113.746 63.083C113.84 63.1944 113.91 63.3243 113.951 63.4644C113.992 63.6045 114.002 63.7516 113.983 63.8962C113.918 64.5122 113.364 65.0386 112.863 65.341C112.275 65.7078 110.743 65.8786 110.743 65.8786Z" fill="white"/>
<path d="M109.044 58.8449C109.87 59.1417 110.281 60.6705 110.253 61.4545C110.253 61.5217 110.096 62.5745 110.082 62.5745H110.066C110.13 62.8153 110.2 63.0729 110.27 63.3585C110.393 63.8849 110.528 64.4785 110.631 65.1393C110.751 65.8472 110.83 66.5615 110.866 67.2785C110.911 68.082 110.884 68.8879 110.785 69.6865C110.784 69.6958 110.784 69.7052 110.785 69.7145C110.894 69.4821 111.219 68.8409 111.247 68.7933C111.678 68.1381 112.894 67.1133 113.742 67.3569C113.881 67.3994 114.01 67.4708 114.12 67.5664C114.23 67.662 114.318 67.7797 114.38 67.9118C114.441 68.0439 114.474 68.1875 114.476 68.3331C114.478 68.4787 114.449 68.6231 114.392 68.7569C114.168 69.3365 113.496 69.6949 112.933 69.8573C112.297 70.0365 110.88 69.8237 110.768 69.8069C110.648 70.6166 110.474 71.4173 110.248 72.2037C110.117 72.6629 109.975 73.1212 109.822 73.5785C109.92 73.3797 110.012 73.2033 110.026 73.1809C110.458 72.5257 111.676 71.5009 112.521 71.7445C112.661 71.787 112.789 71.8584 112.899 71.954C113.009 72.0496 113.097 72.1673 113.159 72.2994C113.22 72.4315 113.253 72.5751 113.255 72.7207C113.257 72.8663 113.228 73.0107 113.171 73.1445C112.947 73.7213 112.275 74.0825 111.712 74.2421C111.149 74.4017 109.928 74.2421 109.609 74.2029L109.433 74.7265C109.153 75.5665 108.848 76.4065 108.593 77.2297C108.5 77.5097 108.419 77.8121 108.338 78.1033C108.428 77.9269 108.503 77.7785 108.517 77.7589C108.948 77.1009 110.164 76.0789 111.009 76.3225C111.149 76.3651 111.277 76.4365 111.387 76.532C111.497 76.6276 111.586 76.7452 111.647 76.8772C111.709 77.0092 111.742 77.1527 111.744 77.2983C111.747 77.444 111.719 77.5885 111.662 77.7225C111.438 78.2993 110.763 78.6605 110.2 78.8201C109.637 78.9797 108.537 78.8397 108.156 78.7865C108.08 79.0861 108.008 79.3885 107.949 79.6825C107.912 79.8841 107.865 80.0745 107.84 80.2817L107.756 80.8809C107.716 81.2645 107.672 81.6593 107.644 82.0345C107.621 82.2977 107.604 82.5469 107.588 82.7961C107.677 82.5161 107.868 81.9365 107.882 81.8917C108.193 81.2763 108.655 80.7501 109.226 80.3629C109.257 80.2922 109.296 80.2247 109.34 80.1613C109.42 80.039 109.524 79.9348 109.646 79.8554C109.769 79.7761 109.906 79.7235 110.05 79.7011C110.194 79.6786 110.341 79.6868 110.482 79.7251C110.623 79.7634 110.754 79.8309 110.866 79.9233C111.533 80.4973 111.365 82.0709 111.06 82.7933C111.043 82.8353 110.794 83.2777 110.634 83.5521C110.754 83.4037 110.866 83.2721 110.992 83.1097C111.236 82.8101 111.488 82.5189 111.757 82.2053L112.168 81.7601C112.303 81.6089 112.465 81.4661 112.614 81.3149C112.964 80.9761 113.336 80.6485 113.72 80.3293C113.459 80.1137 112.541 79.3409 112.278 78.8145C112.014 78.2881 111.827 77.5517 112.101 76.9945C112.161 76.8616 112.249 76.7428 112.358 76.646C112.468 76.5492 112.596 76.4765 112.735 76.4326C112.874 76.3888 113.021 76.3748 113.166 76.3915C113.311 76.4082 113.451 76.4553 113.577 76.5297C114.319 76.9945 114.394 78.5765 114.201 79.3297C114.201 79.3773 113.988 79.9093 113.874 80.1977C114.106 80.0045 114.336 79.8141 114.576 79.6377C115.271 79.1029 115.99 78.5821 116.704 78.0585L117.357 77.5741C117.264 77.4985 116.156 76.6025 115.859 76.0117C115.598 75.4881 115.408 74.7489 115.682 74.1945C115.742 74.0613 115.83 73.9423 115.939 73.8452C116.048 73.7481 116.176 73.6751 116.316 73.631C116.455 73.5868 116.602 73.5726 116.747 73.5891C116.892 73.6056 117.032 73.6526 117.158 73.7269C117.903 74.1945 117.976 75.7737 117.782 76.5269C117.768 76.5829 117.48 77.3445 117.399 77.5349C117.875 77.1793 118.348 76.8209 118.799 76.4485C119.412 75.9468 119.991 75.4062 120.535 74.8301C120.493 74.7965 119.331 73.8641 119.028 73.2621C118.765 72.7385 118.578 71.9993 118.852 71.4421C118.912 71.3093 118.999 71.1907 119.108 71.0938C119.217 70.997 119.345 70.9241 119.484 70.88C119.623 70.8359 119.77 70.8216 119.915 70.8378C120.059 70.8541 120.199 70.9007 120.325 70.9745C121.07 71.4421 121.145 73.0241 120.952 73.7745C120.938 73.8249 120.72 74.4073 120.61 74.6789C120.623 74.6898 120.637 74.6992 120.652 74.7069C121.184 74.1122 121.66 73.4712 122.078 72.7917C122.313 72.4221 122.514 72.0525 122.705 71.6913C122.47 71.5401 121.408 70.8513 121.075 70.3249C120.742 69.7985 120.49 69.1181 120.7 68.5357C120.745 68.3971 120.819 68.2696 120.917 68.1615C121.015 68.0534 121.134 67.9671 121.268 67.9082C121.401 67.8493 121.545 67.8191 121.691 67.8197C121.837 67.8202 121.981 67.8514 122.114 67.9113C122.906 68.2921 123.153 69.8713 123.044 70.6329C123.044 70.6749 122.932 71.0977 122.85 71.4029C122.932 71.2405 123.021 71.0697 123.097 70.9101C123.377 70.3137 123.615 69.7481 123.811 69.2469C123.923 68.9669 124.015 68.6869 124.091 68.4517C123.937 68.1857 123.338 67.0965 123.279 66.4917C123.22 65.8869 123.315 65.1505 123.772 64.7305C123.876 64.6283 124 64.549 124.136 64.4979C124.273 64.4469 124.419 64.4251 124.564 64.4341C124.71 64.4431 124.852 64.4826 124.981 64.5501C125.11 64.6175 125.224 64.7115 125.314 64.8257C125.841 65.5285 125.34 67.0321 124.886 67.6705C124.847 67.7265 124.133 68.5105 124.124 68.5105V68.4937C124.046 68.7317 123.962 68.9837 123.861 69.2609C123.676 69.7677 123.461 70.3389 123.184 70.9409C122.891 71.5975 122.561 72.2369 122.195 72.8561C121.787 73.5496 121.319 74.2055 120.795 74.8161L120.776 74.8357C120.994 74.7013 121.616 74.3457 121.669 74.3233C122.391 74.0125 123.965 73.8389 124.542 74.4997C124.634 74.6122 124.703 74.7429 124.742 74.8834C124.781 75.024 124.789 75.1711 124.768 75.3153C124.746 75.4595 124.694 75.5976 124.616 75.7205C124.537 75.8433 124.434 75.9483 124.312 76.0285C123.805 76.3869 123.046 76.3085 122.486 76.1405C121.856 75.9417 120.806 74.9813 120.711 74.9057C120.164 75.5142 119.576 76.0857 118.953 76.6165C118.592 76.9273 118.216 77.2297 117.833 77.5293C118.026 77.4201 118.2 77.3221 118.225 77.3109C118.944 77.0001 120.518 76.8265 121.095 77.4873C121.188 77.5996 121.257 77.7303 121.296 77.8709C121.335 78.0115 121.344 78.1588 121.322 78.3031C121.301 78.4475 121.249 78.5856 121.17 78.7085C121.091 78.8314 120.987 78.9362 120.865 79.0161C120.361 79.3745 119.6 79.2961 119.042 79.1281C118.485 78.9601 117.553 78.1481 117.312 77.9325C117.164 78.0473 117.032 78.1621 116.872 78.2741C116.17 78.8145 115.472 79.3493 114.786 79.8953C114.548 80.0885 114.322 80.2845 114.092 80.4833L114.434 80.2929C115.153 79.9849 116.727 79.8085 117.304 80.4721C117.397 80.5844 117.465 80.7151 117.505 80.8557C117.544 80.9963 117.553 81.1436 117.531 81.2879C117.51 81.4323 117.458 81.5704 117.379 81.6933C117.3 81.8162 117.196 81.921 117.074 82.0009C116.567 82.3593 115.808 82.2809 115.251 82.1101C114.694 81.9393 113.851 81.2085 113.571 80.9565C113.344 81.1637 113.115 81.3737 112.905 81.5865C112.762 81.7349 112.625 81.8665 112.485 82.0261L112.082 82.4825C111.838 82.7793 111.583 83.0845 111.351 83.3813C111.188 83.5885 111.037 83.7873 110.886 83.9861C111.118 83.7929 111.589 83.4261 111.631 83.3953C112.294 82.9781 113.826 82.5693 114.495 83.1349C114.604 83.2323 114.69 83.3515 114.75 83.4846C114.809 83.6178 114.84 83.7619 114.84 83.9077C114.84 84.0535 114.809 84.1977 114.75 84.3308C114.69 84.4639 114.604 84.5831 114.495 84.6805C114.047 85.1117 113.286 85.1565 112.709 85.0669C112.07 84.9689 110.917 84.2269 110.774 84.1233C110.522 84.4537 110.281 84.7785 110.057 85.0865C109.282 86.1589 108.677 87.0829 108.262 87.7325C108.262 87.7577 108.234 87.7773 108.22 87.7997L107.683 87.5393L107.767 87.4105C108.201 86.7637 108.834 85.8453 109.64 84.7785C109.895 84.4397 110.172 84.0869 110.46 83.7229C110.16 83.3964 109.88 83.0523 109.62 82.6925C109.002 82.9333 107.719 82.9417 107.551 82.9417C107.526 83.3589 107.504 83.7621 107.487 84.1429C107.431 85.4673 107.436 86.5705 107.45 87.3405V87.4301L106.86 87.1501C106.86 86.3829 106.89 85.3469 106.969 84.1205C106.994 83.7005 107.03 83.2497 107.072 82.7877C106.907 82.7485 105.572 82.4041 105.068 82.0009C104.611 81.6369 104.13 81.0433 104.146 80.4245C104.145 80.2786 104.174 80.1339 104.232 80.0001C104.291 79.8662 104.376 79.7462 104.484 79.6479C104.592 79.5495 104.72 79.4751 104.858 79.4294C104.997 79.3838 105.144 79.3679 105.289 79.3829C106.16 79.4949 106.89 80.8977 107.033 81.6705C107.033 81.7153 107.078 82.2305 107.095 82.5357C107.114 82.3481 107.128 82.1661 107.151 81.9757C107.187 81.5921 107.238 81.2113 107.291 80.7997C107.322 80.6037 107.355 80.4021 107.386 80.2005C107.417 79.9989 107.47 79.7917 107.512 79.5873C107.618 79.1085 107.747 78.6297 107.89 78.1509C107.554 78.1173 106.364 77.9773 105.852 77.6833C105.339 77.3893 104.779 76.8797 104.704 76.2637C104.68 76.1198 104.687 75.9725 104.725 75.8316C104.762 75.6906 104.829 75.5591 104.921 75.4457C105.012 75.3324 105.127 75.2396 105.257 75.1736C105.387 75.1075 105.53 75.0697 105.675 75.0625C106.552 75.0401 107.487 76.3169 107.744 77.0589C107.761 77.1037 107.887 77.6553 107.949 77.9605C108.038 77.6805 108.122 77.3865 108.229 77.0981C108.509 76.2581 108.825 75.4377 109.133 74.6061C109.228 74.3513 109.318 74.0965 109.413 73.8417C109.293 73.8417 107.873 73.6961 107.302 73.3657C106.795 73.0857 106.23 72.5621 106.151 71.9461C106.128 71.8022 106.136 71.6551 106.173 71.5144C106.211 71.3736 106.278 71.2423 106.369 71.129C106.461 71.0157 106.575 70.923 106.705 70.8568C106.835 70.7906 106.977 70.7525 107.123 70.7449C108.002 70.7225 108.937 72.0021 109.195 72.7413C109.214 72.7973 109.394 73.5813 109.43 73.7969C109.632 73.2369 109.83 72.6769 109.99 72.1169C110.227 71.3608 110.414 70.5901 110.55 69.8097C110.494 69.8097 109.013 69.6697 108.428 69.3337C107.918 69.0397 107.352 68.5273 107.277 67.9113C107.253 67.7674 107.261 67.6201 107.298 67.4792C107.335 67.3382 107.402 67.2067 107.494 67.0933C107.586 66.98 107.7 66.8872 107.83 66.8212C107.96 66.7551 108.103 66.7173 108.248 66.7101C109.125 66.6877 110.06 67.9673 110.318 68.7065C110.334 68.7541 110.474 69.3617 110.533 69.6501H110.581C110.696 68.8614 110.741 68.064 110.715 67.2673C110.715 66.8305 110.673 66.4105 110.631 66.0045C110.351 66.0045 109.08 66.0045 108.52 65.7637C107.96 65.5229 107.364 65.0805 107.218 64.4785C107.179 64.3375 107.171 64.1899 107.193 64.0453C107.215 63.9007 107.267 63.7624 107.347 63.6395C107.426 63.5166 107.53 63.4118 107.653 63.332C107.775 63.2523 107.914 63.1993 108.058 63.1765C108.929 63.0589 109.998 64.2265 110.337 64.9321C110.354 64.9713 110.5 65.3829 110.598 65.6853C110.578 65.5005 110.558 65.3129 110.533 65.1253C110.446 64.4673 110.323 63.8709 110.211 63.3417C110.144 63.0421 110.08 62.7817 110.015 62.5213C109.735 62.3813 108.638 61.8073 108.262 61.3397C107.887 60.8721 107.551 60.2029 107.702 59.6009C107.734 59.4595 107.796 59.3263 107.882 59.21C107.969 59.0937 108.079 58.9968 108.205 58.9256C108.332 58.8544 108.472 58.8104 108.616 58.7965C108.76 58.7826 108.906 58.7991 109.044 58.8449Z" fill="white"/>
<path d="M124.914 72.3802C124.228 72.3522 122.856 71.6466 122.856 71.6466C122.856 71.6466 123.592 70.885 123.646 70.8402C124.259 70.353 125.732 69.7678 126.462 70.255C126.582 70.3386 126.682 70.4466 126.757 70.5718C126.832 70.697 126.88 70.8366 126.897 70.9814C126.914 71.1263 126.9 71.2731 126.857 71.4123C126.813 71.5516 126.741 71.68 126.644 71.7894C126.25 72.2682 125.499 72.4026 124.914 72.3802Z" fill="white"/>
</g>
<path d="M116.903 89.5581C116.903 89.5581 112.74 79.5229 110.41 79.9597C108.081 80.3965 114.406 95.9589 114.406 95.9589C114.406 95.9589 107.081 82.1409 102.086 82.1409C97.0906 82.1409 103.917 97.4121 110.245 102.502C110.245 102.502 100.255 91.7393 94.4278 94.0689C88.601 96.3985 106.09 107.304 106.09 107.304C106.09 107.304 95.9342 104.104 97.099 106.576C98.2638 109.049 101.428 109.486 101.428 109.486L89.9478 110.068H129.89L120.899 109.194C120.899 109.194 130.223 104.541 127.725 102.648C125.228 100.755 119.734 104.829 119.734 104.829C119.734 104.829 129.223 94.3573 127.392 90.4317C125.561 86.5061 117.402 97.5577 117.402 97.5577C117.402 97.5577 124.063 83.4513 122.722 80.9761C121.381 78.5009 116.903 89.5581 116.903 89.5581Z" fill="#2176FF"/>
<path opacity="0.4" d="M116.903 89.5581C116.903 89.5581 112.74 79.5229 110.41 79.9597C108.081 80.3965 114.406 95.9589 114.406 95.9589C114.406 95.9589 107.081 82.1409 102.086 82.1409C97.0906 82.1409 103.917 97.4121 110.245 102.502C110.245 102.502 100.255 91.7393 94.4278 94.0689C88.601 96.3985 106.09 107.304 106.09 107.304C106.09 107.304 95.9342 104.104 97.099 106.576C98.2638 109.049 101.428 109.486 101.428 109.486L89.9478 110.068H129.89L120.899 109.194C120.899 109.194 130.223 104.541 127.725 102.648C125.228 100.755 119.734 104.829 119.734 104.829C119.734 104.829 129.223 94.3573 127.392 90.4317C125.561 86.5061 117.402 97.5577 117.402 97.5577C117.402 97.5577 124.063 83.4513 122.722 80.9761C121.381 78.5009 116.903 89.5581 116.903 89.5581Z" fill="white"/>
<path d="M118.236 90.0872C114.574 100.909 114.574 108.567 114.574 108.567C114.574 108.567 118.903 108.735 123.397 105.406" stroke="#39364F" stroke-width="0.28" stroke-linecap="round" stroke-linejoin="round"/>
<path d="M116.405 95.914C115.649 92.679 114.647 89.5066 113.406 86.4248" stroke="#39364F" stroke-width="0.28" stroke-linecap="round" stroke-linejoin="round"/>
<path d="M105.583 89.5889L114.904 103.407C114.904 103.407 121.232 98.0869 123.397 95.0825" stroke="#39364F" stroke-width="0.28" stroke-linecap="round" stroke-linejoin="round"/>
<path d="M114.739 106.736C114.739 106.736 104.916 102.074 100.921 99.4111" stroke="#39364F" stroke-width="0.28" stroke-linecap="round" stroke-linejoin="round"/>
<path d="M52.5262 39.3511L50.2386 35.7H30.0898V39.3511V40.6644V101.408H113.026V39.3511H52.5262Z" fill="#39364F"/>
<path d="M112.48 41.0256H30.7061V100.083H112.48V41.0256Z" fill="white"/>
<mask id="mask0_309_561" style="mask-type:luminance" maskUnits="userSpaceOnUse" x="30" y="41" width="83" height="60">
<path d="M112.48 41.0256H30.7061V100.083H112.48V41.0256Z" fill="white"/>
</mask>
<g mask="url(#mask0_309_561)">
<path opacity="0.17" d="M112.88 40.5188H110.982V100.531H112.88V40.5188Z" fill="#39364F"/>
<path opacity="0.17" d="M112.88 76.804H110.982V100.044H112.88V76.804Z" fill="#39364F"/>
<path d="M112.587 40.2275H30.3813V43.4391H112.587V40.2275Z" fill="#2176FF" stroke="#39364F" stroke-width="0.28" stroke-miterlimit="10"/>
</g>
<path d="M112.48 41.0256H30.7061V100.083H112.48V41.0256Z" stroke="#39364F" stroke-width="0.28" stroke-linecap="round" stroke-linejoin="round"/>
<g opacity="0.17">
<path d="M73.3108 46.5359H67.5904C67.5242 46.5359 67.4587 46.5229 67.3976 46.4976C67.3364 46.4723 67.2809 46.4351 67.2341 46.3883C67.1873 46.3415 67.1501 46.286 67.1248 46.2248C67.0995 46.1637 67.0864 46.0981 67.0864 46.0319C67.0861 45.9655 67.0988 45.8997 67.124 45.8382C67.1492 45.7767 67.1862 45.7209 67.2331 45.6738C67.2799 45.6267 67.3356 45.5893 67.3969 45.5638C67.4582 45.5383 67.524 45.5251 67.5904 45.5251H73.3108C73.3773 45.5251 73.443 45.5383 73.5044 45.5638C73.5657 45.5893 73.6214 45.6267 73.6682 45.6738C73.715 45.7209 73.7521 45.7767 73.7773 45.8382C73.8024 45.8997 73.8152 45.9655 73.8148 46.0319C73.8148 46.0981 73.8018 46.1637 73.7765 46.2248C73.7511 46.286 73.714 46.3415 73.6672 46.3883C73.6204 46.4351 73.5649 46.4723 73.5037 46.4976C73.4426 46.5229 73.377 46.5359 73.3108 46.5359Z" fill="#39364F"/>
<path d="M84.7517 46.5359H79.0313C78.8979 46.5352 78.7701 46.4819 78.6758 46.3875C78.5814 46.2932 78.5281 46.1654 78.5273 46.0319C78.5273 45.898 78.5804 45.7695 78.6748 45.6746C78.7692 45.5796 78.8974 45.5259 79.0313 45.5251H84.7517C84.8862 45.5251 85.0151 45.5785 85.1101 45.6736C85.2051 45.7686 85.2585 45.8975 85.2585 46.0319C85.2578 46.1659 85.2041 46.2941 85.1091 46.3885C85.0142 46.4829 84.8857 46.5359 84.7517 46.5359Z" fill="#39364F"/>
<path d="M96.1955 46.5359H90.4751C90.3411 46.5359 90.2127 46.4829 90.1177 46.3885C90.0227 46.2941 89.969 46.1659 89.9683 46.0319C89.9683 45.8975 90.0217 45.7686 90.1167 45.6736C90.2117 45.5785 90.3406 45.5251 90.4751 45.5251H96.1955C96.3294 45.5259 96.4576 45.5796 96.552 45.6746C96.6465 45.7695 96.6995 45.898 96.6995 46.0319C96.6987 46.1654 96.6454 46.2932 96.551 46.3875C96.4567 46.4819 96.3289 46.5352 96.1955 46.5359Z" fill="#39364F"/>
<path d="M107.636 46.5359H101.916C101.849 46.5359 101.784 46.5229 101.723 46.4976C101.662 46.4723 101.606 46.4351 101.559 46.3883C101.512 46.3415 101.475 46.286 101.45 46.2248C101.425 46.1637 101.412 46.0981 101.412 46.0319C101.411 45.9655 101.424 45.8997 101.449 45.8382C101.474 45.7767 101.511 45.7209 101.558 45.6738C101.605 45.6267 101.661 45.5893 101.722 45.5638C101.783 45.5383 101.849 45.5251 101.916 45.5251H107.636C107.77 45.5259 107.898 45.5796 107.993 45.6746C108.087 45.7695 108.14 45.898 108.14 46.0319C108.139 46.1654 108.086 46.2932 107.992 46.3875C107.897 46.4819 107.769 46.5352 107.636 46.5359Z" fill="#39364F"/>
</g>
<path d="M38.4341 70.6411H47.0777" stroke="#39364F" stroke-width="0.84" stroke-linecap="round" stroke-linejoin="round"/>
<path d="M46.9233 71.988H47.8669" stroke="#39364F" stroke-width="0.28" stroke-linecap="round" stroke-linejoin="round"/>
<path d="M41.5112 71.988H46.3524" stroke="#39364F" stroke-width="0.28" stroke-linecap="round" stroke-linejoin="round"/>
<path d="M37.7729 71.988H40.9986" stroke="#39364F" stroke-width="0.28" stroke-linecap="round" stroke-linejoin="round"/>
<path d="M43.9023 73.3347H47.8671" stroke="#39364F" stroke-width="0.28" stroke-linecap="round" stroke-linejoin="round"/>
<path d="M41.7378 73.3347H43.2778" stroke="#39364F" stroke-width="0.28" stroke-linecap="round" stroke-linejoin="round"/>
<path d="M37.7729 73.3347H41.0545" stroke="#39364F" stroke-width="0.28" stroke-linecap="round" stroke-linejoin="round"/>
<path d="M39.915 74.6787H47.867" stroke="#39364F" stroke-width="0.28" stroke-linecap="round" stroke-linejoin="round"/>
<path d="M37.7729 74.6787H39.1758" stroke="#39364F" stroke-width="0.28" stroke-linecap="round" stroke-linejoin="round"/>
<path d="M45.8984 76.0256H47.8668" stroke="#39364F" stroke-width="0.28" stroke-linecap="round" stroke-linejoin="round"/>
<path d="M42.1382 76.0256H45.2126" stroke="#39364F" stroke-width="0.28" stroke-linecap="round" stroke-linejoin="round"/>
<path d="M37.7729 76.0256H41.511" stroke="#39364F" stroke-width="0.28" stroke-linecap="round" stroke-linejoin="round"/>
<path d="M41.0547 77.3723H47.8671" stroke="#39364F" stroke-width="0.28" stroke-linecap="round" stroke-linejoin="round"/>
<path d="M37.7729 77.3723H40.4274" stroke="#39364F" stroke-width="0.28" stroke-linecap="round" stroke-linejoin="round"/>
<path d="M58.146 70.6411H66.7896" stroke="#39364F" stroke-width="0.84" stroke-linecap="round" stroke-linejoin="round"/>
<path d="M66.6353 71.988H67.5789" stroke="#39364F" stroke-width="0.28" stroke-linecap="round" stroke-linejoin="round"/>
<path d="M61.2231 71.988H66.0643" stroke="#39364F" stroke-width="0.28" stroke-linecap="round" stroke-linejoin="round"/>
<path d="M57.4849 71.988H60.7105" stroke="#39364F" stroke-width="0.28" stroke-linecap="round" stroke-linejoin="round"/>
<path d="M63.6143 73.3347H67.5791" stroke="#39364F" stroke-width="0.28" stroke-linecap="round" stroke-linejoin="round"/>
<path d="M61.4497 73.3347H62.9897" stroke="#39364F" stroke-width="0.28" stroke-linecap="round" stroke-linejoin="round"/>
<path d="M57.4849 73.3347H60.7665" stroke="#39364F" stroke-width="0.28" stroke-linecap="round" stroke-linejoin="round"/>
<path d="M59.627 74.6787H67.579" stroke="#39364F" stroke-width="0.28" stroke-linecap="round" stroke-linejoin="round"/>
<path d="M57.4849 74.6787H58.8877" stroke="#39364F" stroke-width="0.28" stroke-linecap="round" stroke-linejoin="round"/>
<path d="M65.6108 76.0256H67.5792" stroke="#39364F" stroke-width="0.28" stroke-linecap="round" stroke-linejoin="round"/>
<path d="M61.8501 76.0256H64.9245" stroke="#39364F" stroke-width="0.28" stroke-linecap="round" stroke-linejoin="round"/>
<path d="M57.4849 76.0256H61.2229" stroke="#39364F" stroke-width="0.28" stroke-linecap="round" stroke-linejoin="round"/>
<path d="M60.7666 77.3723H67.579" stroke="#39364F" stroke-width="0.28" stroke-linecap="round" stroke-linejoin="round"/>
<path d="M57.4849 77.3723H60.1393" stroke="#39364F" stroke-width="0.28" stroke-linecap="round" stroke-linejoin="round"/>
<path d="M77.8579 70.6411H86.5015" stroke="#39364F" stroke-width="0.84" stroke-linecap="round" stroke-linejoin="round"/>
<path d="M86.3477 71.988H87.2913" stroke="#39364F" stroke-width="0.28" stroke-linecap="round" stroke-linejoin="round"/>
<path d="M80.9351 71.988H85.7763" stroke="#39364F" stroke-width="0.28" stroke-linecap="round" stroke-linejoin="round"/>
<path d="M77.1973 71.988H80.4229" stroke="#39364F" stroke-width="0.28" stroke-linecap="round" stroke-linejoin="round"/>
<path d="M83.3262 73.3347H87.291" stroke="#39364F" stroke-width="0.28" stroke-linecap="round" stroke-linejoin="round"/>
<path d="M81.1616 73.3347H82.7016" stroke="#39364F" stroke-width="0.28" stroke-linecap="round" stroke-linejoin="round"/>
<path d="M77.1973 73.3347H80.4789" stroke="#39364F" stroke-width="0.28" stroke-linecap="round" stroke-linejoin="round"/>
<path d="M79.3389 74.6787H87.2909" stroke="#39364F" stroke-width="0.28" stroke-linecap="round" stroke-linejoin="round"/>
<path d="M77.1973 74.6787H78.6001" stroke="#39364F" stroke-width="0.28" stroke-linecap="round" stroke-linejoin="round"/>
<path d="M85.3228 76.0256H87.2912" stroke="#39364F" stroke-width="0.28" stroke-linecap="round" stroke-linejoin="round"/>
<path d="M81.562 76.0256H84.6364" stroke="#39364F" stroke-width="0.28" stroke-linecap="round" stroke-linejoin="round"/>
<path d="M77.1973 76.0256H80.9353" stroke="#39364F" stroke-width="0.28" stroke-linecap="round" stroke-linejoin="round"/>
<path d="M80.4785 77.3723H87.2909" stroke="#39364F" stroke-width="0.28" stroke-linecap="round" stroke-linejoin="round"/>
<path d="M77.1973 77.3723H79.8517" stroke="#39364F" stroke-width="0.28" stroke-linecap="round" stroke-linejoin="round"/>
<path d="M97.5698 70.6411H106.213" stroke="#39364F" stroke-width="0.84" stroke-linecap="round" stroke-linejoin="round"/>
<path d="M106.06 71.988H107.003" stroke="#39364F" stroke-width="0.28" stroke-linecap="round" stroke-linejoin="round"/>
<path d="M100.647 71.988H105.488" stroke="#39364F" stroke-width="0.28" stroke-linecap="round" stroke-linejoin="round"/>
<path d="M96.9092 71.988H100.135" stroke="#39364F" stroke-width="0.28" stroke-linecap="round" stroke-linejoin="round"/>
<path d="M103.038 73.3347H107.003" stroke="#39364F" stroke-width="0.28" stroke-linecap="round" stroke-linejoin="round"/>
<path d="M100.874 73.3347H102.414" stroke="#39364F" stroke-width="0.28" stroke-linecap="round" stroke-linejoin="round"/>
<path d="M96.9092 73.3347H100.191" stroke="#39364F" stroke-width="0.28" stroke-linecap="round" stroke-linejoin="round"/>
<path d="M99.0513 74.6787H107.003" stroke="#39364F" stroke-width="0.28" stroke-linecap="round" stroke-linejoin="round"/>
<path d="M96.9092 74.6787H98.312" stroke="#39364F" stroke-width="0.28" stroke-linecap="round" stroke-linejoin="round"/>
<path d="M105.035 76.0256H107.003" stroke="#39364F" stroke-width="0.28" stroke-linecap="round" stroke-linejoin="round"/>
<path d="M101.274 76.0256H104.349" stroke="#39364F" stroke-width="0.28" stroke-linecap="round" stroke-linejoin="round"/>
<path d="M96.9092 76.0256H100.647" stroke="#39364F" stroke-width="0.28" stroke-linecap="round" stroke-linejoin="round"/>
<path d="M100.19 77.3723H107.003" stroke="#39364F" stroke-width="0.28" stroke-linecap="round" stroke-linejoin="round"/>
<path d="M96.9092 77.3723H99.5636" stroke="#39364F" stroke-width="0.28" stroke-linecap="round" stroke-linejoin="round"/>
<path d="M109.666 66.3041H33.5059V50.5933H109.666V66.3041Z" fill="#2176FF"/>
<path opacity="0.7" d="M109.666 66.3041H33.5059V50.5933H109.666V66.3041Z" fill="white"/>
<path d="M90.3937 66.3041H52.7925V50.5933H90.3937V66.3041Z" fill="#2176FF"/>
<path opacity="0.92" d="M90.3937 66.3041H52.7925V50.5933H90.3937V66.3041Z" fill="white"/>
<path d="M82.7104 55.146H85.2724" stroke="#39364F" stroke-width="0.28" stroke-linecap="round" stroke-linejoin="round"/>
<path d="M68.0439 55.146H81.1675" stroke="#39364F" stroke-width="0.28" stroke-linecap="round" stroke-linejoin="round"/>
<path d="M57.9136 55.146H66.6524" stroke="#39364F" stroke-width="0.28" stroke-linecap="round" stroke-linejoin="round"/>
<path d="M74.5288 56.4927H85.2724" stroke="#39364F" stroke-width="0.28" stroke-linecap="round" stroke-linejoin="round"/>
<path d="M68.6597 56.4927H72.8289" stroke="#39364F" stroke-width="0.28" stroke-linecap="round" stroke-linejoin="round"/>
<path d="M57.9136 56.4927H66.8092" stroke="#39364F" stroke-width="0.28" stroke-linecap="round" stroke-linejoin="round"/>
<path d="M63.7207 57.8396H85.2723" stroke="#39364F" stroke-width="0.28" stroke-linecap="round" stroke-linejoin="round"/>
<path d="M57.9136 57.8396H61.7132" stroke="#39364F" stroke-width="0.28" stroke-linecap="round" stroke-linejoin="round"/>
<path d="M79.9326 59.1863H85.2722" stroke="#39364F" stroke-width="0.28" stroke-linecap="round" stroke-linejoin="round"/>
<path d="M69.7407 59.1863H78.0791" stroke="#39364F" stroke-width="0.28" stroke-linecap="round" stroke-linejoin="round"/>
<path d="M57.9136 59.1863H68.044" stroke="#39364F" stroke-width="0.28" stroke-linecap="round" stroke-linejoin="round"/>
<path d="M66.8091 60.5303H85.2723" stroke="#39364F" stroke-width="0.28" stroke-linecap="round" stroke-linejoin="round"/>
<path d="M57.9136 60.5303H65.1096" stroke="#39364F" stroke-width="0.28" stroke-linecap="round" stroke-linejoin="round"/>
<path d="M109.666 99.8871H33.5059V84.1763H109.666V99.8871Z" fill="#2176FF"/>
<path opacity="0.7" d="M109.666 99.8871H33.5059V84.1763H109.666V99.8871Z" fill="white"/>
<mask id="mask1_309_561" style="mask-type:luminance" maskUnits="userSpaceOnUse" x="93" y="77" width="18" height="23">
<path d="M110.253 77.7979H93.3442V99.985H110.253V77.7979Z" fill="white"/>
</mask>
<g mask="url(#mask1_309_561)">
<path d="M100.652 90.1543C100.652 90.1543 96.192 91.9463 95.492 92.1675C94.792 92.3887 94.75 92.691 94.75 93.6514C94.75 94.6118 94.8816 98.9434 94.8816 99.2934C94.8816 99.6434 94.8368 100.299 94.8368 100.299H109.45C109.45 100.299 108.487 96.3786 107.918 94.5278C107.35 92.677 107.613 92.5147 106.608 91.9043C105.603 91.2939 102.968 90.4175 102.408 90.2859C101.827 90.1947 101.24 90.1507 100.652 90.1543Z" fill="#39364F" stroke="#39364F" stroke-width="0.28" stroke-linecap="round" stroke-linejoin="round"/>
<path d="M100.871 89.6728C100.871 89.6728 99.8207 89.5859 99.3839 90.4623C98.9471 91.3387 97.8971 93.3799 97.8971 93.3799L99.1655 94.1667L97.6899 94.9199C97.9364 96.0002 98.243 97.0659 98.6083 98.1119C98.8625 98.7985 99.1541 99.4706 99.4819 100.125C99.4819 100.125 101.61 97.7199 102.45 96.9751C103.004 96.4452 103.462 95.8239 103.805 95.1383L102.713 94.1331L104.595 93.9147C104.595 93.9147 104.113 91.4675 103.5 90.4623C102.887 89.4571 100.871 89.6728 100.871 89.6728Z" fill="#39364F" stroke="#39364F" stroke-width="0.28" stroke-linecap="round" stroke-linejoin="round"/>
<path d="M98.7231 98.1399C98.8015 98.3583 98.8855 98.5655 98.9667 98.7475" stroke="white" stroke-width="0.14" stroke-linecap="round" stroke-linejoin="round"/>
<path d="M98.8828 91.5515L97.8972 93.3799L99.1656 94.1667L97.8076 94.9367C97.8076 94.9367 98.124 96.3171 98.5216 97.5547" stroke="white" stroke-width="0.14" stroke-linecap="round" stroke-linejoin="round"/>
<path d="M103.85 90.7227L104.587 93.9147L102.705 94.1331L103.797 95.1383C103.797 95.1383 101.697 97.5995 100.826 98.5935" stroke="white" stroke-width="0.14" stroke-linecap="round" stroke-linejoin="round"/>
<path d="M106.6 95.6199L105.813 100.475" stroke="white" stroke-width="0.14" stroke-linecap="round" stroke-linejoin="round"/>
<path d="M95.7999 94.7463C95.7999 94.7463 95.7131 97.6751 95.7551 98.5935C95.7898 99.1757 95.9077 99.7499 96.1051 100.299" stroke="white" stroke-width="0.14" stroke-linecap="round" stroke-linejoin="round"/>
<path d="M103.889 96.8016L104.631 95.7964L105.244 96.8016H103.889Z" fill="white" stroke="#39364F" stroke-width="0.28" stroke-miterlimit="10"/>
<path d="M104.763 87.1808C104.763 87.1808 105.505 87.094 105.681 88.1888C105.858 89.2836 105.331 90.6808 103.581 90.6808C101.831 90.6808 101.966 89.3676 102.008 88.4072C102.05 87.4468 104.763 87.1808 104.763 87.1808Z" fill="#39364F" stroke="#39364F" stroke-width="0.28" stroke-miterlimit="10"/>
<path d="M100.434 88.9755C100.434 88.9755 100.389 90.2411 100.302 91.6859C100.216 93.1307 99.5157 95.0963 99.5157 96.7567C99.5097 97.6768 99.5537 98.5965 99.6473 99.5119C99.6473 99.5119 101.089 96.7119 101.744 95.0963C102.4 93.4807 103.144 88.7991 103.144 88.7991L100.434 88.9755Z" fill="white" stroke="#39364F" stroke-width="0.28" stroke-miterlimit="10"/>
<path d="M104.718 86.0999C105.044 85.4623 105.223 84.7603 105.244 84.0447C105.244 82.9527 105.026 81.4659 103.758 80.8079C102.489 80.1499 100.039 80.5895 99.4287 81.8579C99.0167 82.6687 98.8236 83.5731 98.8687 84.4815C98.9129 84.9726 99.0153 85.4567 99.1739 85.9235C99.1739 85.9235 99.3503 85.0835 100.529 84.6579C101.708 84.2323 102.979 83.7815 103.59 84.0979C104.2 84.4143 104.718 86.0999 104.718 86.0999Z" fill="#39364F" stroke="#39364F" stroke-width="0.28" stroke-linecap="round" stroke-linejoin="round"/>
<path d="M99.2105 85.6519C99.2105 85.6519 98.6841 84.8651 98.4657 85.4335C98.2473 86.0019 98.5553 86.8335 98.9025 87.0071C99.2497 87.1807 99.4289 87.0939 99.4289 87.0939L99.2105 85.6519Z" fill="white" stroke="#39364F" stroke-width="0.28" stroke-linecap="round" stroke-linejoin="round"/>
<path d="M104.718 85.7836C104.718 85.7836 105.331 85.1704 105.331 85.7388C105.3 86.2663 105.104 86.7708 104.771 87.1808C104.508 87.5308 104.376 87.3572 104.376 87.3572L104.718 85.7836Z" fill="white" stroke="#39364F" stroke-width="0.28" stroke-linecap="round" stroke-linejoin="round"/>
<path d="M103.679 83.2664L104.113 82.0428C104.13 81.9949 104.127 81.9421 104.106 81.8962C104.084 81.8502 104.045 81.8148 103.997 81.7978C103.949 81.7807 103.896 81.7833 103.85 81.8051C103.804 81.8269 103.769 81.8661 103.752 81.914L103.388 82.936C103.005 82.8454 102.607 82.834 102.22 82.9023C101.832 82.9707 101.463 83.1174 101.134 83.3336C99.997 84.0784 99.0786 84.7336 99.0786 84.7336C99.0786 84.7336 99.1234 87.2256 99.6022 88.144C100.081 89.0624 100.915 90.1544 101.615 90.1544C102.315 90.1544 103.539 88.6256 104.021 88.144C104.502 87.6624 104.807 85.7836 104.807 85.1704C104.807 84.7308 104.085 83.7732 103.679 83.2664Z" fill="white" stroke="#39364F" stroke-width="0.28" stroke-miterlimit="10"/>
<path d="M101.957 94.5C101.247 94.5642 100.531 94.4686 99.8629 94.22C99.6626 95.0585 99.5463 95.9148 99.5157 96.7764C99.5097 97.6965 99.5537 98.6162 99.6473 99.5316C99.6473 99.5316 101.089 96.7316 101.744 95.116C101.814 94.9256 101.89 94.7156 101.957 94.5Z" fill="#2176FF" stroke="#39364F" stroke-width="0.28" stroke-miterlimit="10"/>
</g>
<mask id="mask2_309_561" style="mask-type:luminance" maskUnits="userSpaceOnUse" x="73" y="77" width="18" height="23">
<path d="M90.4351 77.7979H73.5259V99.985H90.4351V77.7979Z" fill="white"/>
</mask>
<g mask="url(#mask2_309_561)">
<path d="M81.2904 87.8329C80.1751 87.9595 79.0675 88.1464 77.9724 88.3929C76.6928 88.7233 76.0768 88.8661 76.0768 89.4821C76.0768 90.0981 75.934 92.7525 75.5168 93.9397C75.0996 95.1269 74.6152 96.8321 74.6152 97.4481C74.6152 98.0641 75.5168 100.671 75.5168 100.671H77.1744C77.1744 100.671 76.5584 97.6357 76.5584 97.3529C76.5584 97.0701 77.4124 94.5529 77.4124 94.5529L77.46 100.763H86.14L86.0476 94.8357C86.0476 94.8357 86.8036 97.2549 86.8036 97.6805C86.8036 98.1061 86.5236 100.906 86.5236 100.906H88.17C88.17 100.906 88.9764 97.8261 88.9288 96.7341C88.8812 95.6421 88.0888 92.1813 87.9824 91.1341C87.876 90.0869 88.5032 89.5213 87.3664 88.8101C86.2296 88.0989 83.62 87.6733 83.0516 87.6257C82.4592 87.6374 81.8694 87.7068 81.2904 87.8329Z" fill="#2176FF" stroke="#39364F" stroke-width="0.28" stroke-miterlimit="10"/>
<path d="M77.4042 94.567L77.547 92.1954L77.0234 90.395" stroke="#39364F" stroke-width="0.28" stroke-linecap="round" stroke-linejoin="round"/>
<path d="M86.0337 91.8174V94.8498" stroke="#39364F" stroke-width="0.28" stroke-linecap="round" stroke-linejoin="round"/>
<path d="M86.0786 92.6713L86.8374 91.5317" stroke="#39364F" stroke-width="0.28" stroke-linecap="round" stroke-linejoin="round"/>
<path d="M82.0968 91.0586L81.814 100.682" stroke="#39364F" stroke-width="0.28" stroke-linecap="round" stroke-linejoin="round"/>
<path d="M81.954 86.6961C81.5321 86.7192 81.1308 86.8862 80.8172 87.1693C80.2964 87.6453 80.106 89.4933 80.106 89.4933C80.106 89.4933 81.7664 89.0201 82.0492 88.9333C82.332 88.8465 84.8492 89.4065 84.8492 89.4065C84.8492 89.4065 84.614 87.7489 83.9504 87.0377C83.2868 86.3265 81.954 86.6961 81.954 86.6961Z" fill="#39364F" stroke="#39364F" stroke-width="0.28" stroke-linecap="round" stroke-linejoin="round"/>
<path d="M81.2905 85.1785C81.2905 85.1785 81.6713 85.7385 81.6713 87.4185C81.6713 89.0985 81.8589 90.8317 82.0969 91.0585C82.3349 91.2853 83.3289 88.8185 83.3289 87.6985C83.3479 86.9579 83.5265 86.2301 83.8525 85.5649C83.8525 85.5649 82.6653 84.7585 82.0493 84.6633C81.8811 84.6371 81.7092 84.6757 81.5684 84.7713C81.4275 84.8669 81.3282 85.0125 81.2905 85.1785Z" fill="white" stroke="#39364F" stroke-width="0.28" stroke-linecap="round" stroke-linejoin="round"/>
<path d="M81.7471 89.2666C81.8227 90.1878 81.9515 90.913 82.0971 91.0586C82.2427 91.2042 82.6991 90.2802 83.0127 89.289C82.5923 89.3485 82.1651 89.3409 81.7471 89.2666Z" fill="#39364F" stroke="#39364F" stroke-width="0.28" stroke-linecap="round" stroke-linejoin="round"/>
<path d="M84.1829 80.6285C84.1829 80.6285 84.4629 80.7238 84.9893 80.2478C85.5157 79.7718 85.2693 78.8729 85.0369 79.0633C84.8886 79.1845 84.7601 79.3281 84.6561 79.489C84.5642 79.2115 84.3949 78.966 84.1683 78.7815C83.9416 78.597 83.6669 78.4811 83.3765 78.4474C82.3825 78.3522 81.1953 79.7269 81.1953 79.7269C81.1953 79.7269 79.0169 81.3398 79.2521 82.6194C79.4873 83.899 80.7221 85.0357 81.2905 85.1785C81.8589 85.3213 82.9033 84.2797 82.7129 83.3781C82.5225 82.4765 82.3825 81.1381 82.7129 81.0065C83.1954 80.853 83.6862 80.7268 84.1829 80.6285Z" fill="#39364F" stroke="#39364F" stroke-width="0.28" stroke-linecap="round" stroke-linejoin="round"/>
<path d="M81.1953 84.4198C81.1953 84.4198 80.3917 83.8598 80.2013 84.2798C80.0109 84.6998 80.4393 85.4642 80.9601 85.6994C81.4809 85.9346 81.9541 85.1786 81.9541 85.1786C81.9541 85.1786 83.6145 86.5058 84.7541 86.5534C85.8937 86.601 85.9413 85.6994 85.7509 83.9942C85.5605 82.289 84.9921 80.959 84.5665 80.4858C84.1409 80.0126 82.4805 80.4382 81.9569 80.8638C81.4333 81.2894 81.1169 81.6702 81.6265 81.7654C82.1361 81.8606 82.6205 82.0454 82.1473 82.5718C81.6741 83.0982 81.4361 82.9022 81.5873 83.283C81.7385 83.6638 82.3461 84.0418 81.7777 84.2322L81.1953 84.4198Z" fill="white" stroke="#39364F" stroke-width="0.28" stroke-linecap="round" stroke-linejoin="round"/>
</g>
<mask id="mask3_309_561" style="mask-type:luminance" maskUnits="userSpaceOnUse" x="51" y="77" width="18" height="23">
<path d="M68.2481 77.6914H51.3389V99.9878H68.2481V77.6914Z" fill="white"/>
</mask>
<g mask="url(#mask3_309_561)">
<path d="M60.3608 86.9397C60.3608 86.9397 54.3856 87.6509 54.2008 88.1717C54.016 88.6925 51.832 93.7717 52.1624 94.2393C52.4928 94.7069 53.1592 94.7993 53.68 94.7993C54.0489 94.7663 54.3978 94.6173 54.6768 94.3737L53.1592 100.814H64.1576L64.4908 96.3085C64.4908 96.3085 65.7704 96.8685 66.6244 96.7845C67.4784 96.7005 67.288 96.0257 67.0976 94.7461C66.9072 93.4665 66.8176 90.1933 66.4816 89.5773C66.1456 88.9613 62.1192 87.2533 62.1192 87.2533L60.3608 86.9397Z" fill="#39364F" stroke="#39364F" stroke-width="0.28" stroke-linecap="round" stroke-linejoin="round"/>
<path d="M64.5801 94.6622V91.7222L64.8153 91.1538" stroke="white" stroke-width="0.28" stroke-linecap="round" stroke-linejoin="round"/>
<path d="M55.0015 92.1952L55.4775 90.2044L55.3823 89.7788" stroke="white" stroke-width="0.28" stroke-linecap="round" stroke-linejoin="round"/>
<path d="M56.2505 101.015C56.2505 101.015 57.1493 97.1261 57.5777 94.7097C58.0061 92.2933 59.7897 86.9397 59.7897 86.9397L62.5421 87.6985C62.5421 87.6985 60.6913 93.1025 60.2181 95.4265C59.7449 97.7505 59.3473 101.043 59.3473 101.043L56.2505 101.015Z" fill="#2176FF" stroke="#39364F" stroke-width="0.28" stroke-miterlimit="10"/>
<path d="M60.1702 86.3797C60.1702 86.3797 59.3638 86.3797 59.0782 86.9397C58.7926 87.4997 58.4146 89.6893 58.4146 89.6893C58.4146 89.6893 60.1226 88.9305 60.2654 88.9305C60.4082 88.9305 61.0718 88.9781 61.4022 89.3561C61.7326 89.7341 62.4466 90.6357 62.4466 90.6357C62.4466 90.6357 63.5358 88.8829 63.253 87.7461C63.156 87.3714 62.9433 87.0369 62.6452 86.79C62.3471 86.5432 61.9788 86.3967 61.5926 86.3713L60.1702 86.3797Z" fill="#2176FF" stroke="#39364F" stroke-width="0.28" stroke-miterlimit="10"/>
<path d="M59.8905 85.1309C59.8905 85.1309 59.7953 88.4517 59.8905 89.3981C59.9857 90.3445 60.1285 90.5825 60.1285 90.5825C60.1285 90.5825 60.9349 89.2553 61.1701 88.7821C61.4053 88.3089 62.1193 87.7853 62.4525 87.3597C62.7857 86.9341 63.0125 85.3213 63.0125 85.3213C63.0125 85.3213 61.7805 86.2705 61.1169 86.0325C60.6473 85.8247 60.2288 85.5171 59.8905 85.1309Z" fill="white" stroke="#39364F" stroke-width="0.28" stroke-linecap="round" stroke-linejoin="round"/>
<path d="M61.8503 79.1305C61.0439 79.2481 60.2571 79.6513 60.0303 80.4381C59.8399 81.1017 59.7503 83.2829 59.6999 84.3721C59.6495 85.4613 60.2207 86.8389 60.6939 86.9817C61.0889 87.1219 61.514 87.1547 61.9259 87.0769C62.1639 86.9817 63.2559 85.5117 63.5387 85.2261C63.8215 84.9405 64.6755 82.2861 64.6755 81.3397C64.6964 80.8729 64.5644 80.4119 64.2996 80.0269C64.0348 79.6419 63.6517 79.3537 63.2083 79.2061C62.7659 79.0859 62.3032 79.0602 61.8503 79.1305Z" fill="white" stroke="#39364F" stroke-width="0.28" stroke-linecap="round" stroke-linejoin="round"/>
<path d="M64.1994 83.5798C64.1994 83.5798 64.9582 82.9134 64.7594 83.7674C64.6983 84.0226 64.5819 84.2612 64.4184 84.4664C64.2548 84.6715 64.0481 84.8382 63.813 84.9546L64.1994 83.5798Z" fill="white" stroke="#39364F" stroke-width="0.28" stroke-linecap="round" stroke-linejoin="round"/>
<path d="M59.7895 82.6668C59.7895 82.6668 59.2295 82.146 59.2295 82.8572C59.2511 83.3229 59.4175 83.7702 59.7055 84.1368L59.7895 82.6668Z" fill="white" stroke="#39364F" stroke-width="0.28" stroke-linecap="round" stroke-linejoin="round"/>
<path d="M64.1993 83.5797C64.4453 82.8544 64.6041 82.1025 64.6725 81.3397C64.6933 80.8729 64.5614 80.4119 64.2966 80.0269C64.0318 79.6419 63.6486 79.3537 63.2053 79.2061C62.7629 79.0859 62.3002 79.0602 61.8473 79.1305C61.0409 79.2481 60.2541 79.6513 60.0273 80.4381C59.8813 81.2228 59.7962 82.0175 59.7725 82.8153C60.0133 82.6277 60.5145 82.1685 60.4081 81.6225C60.2653 80.9113 59.9797 80.5809 60.5005 80.2477C61.0213 79.9145 61.6401 80.3905 62.4941 80.6761C63.3481 80.9617 64.1993 80.5809 64.4373 80.8161C64.6753 81.0513 63.6785 82.0509 63.8213 82.4289C63.9641 82.8069 64.2945 83.2353 64.1993 83.5685V83.5797Z" fill="#39364F" stroke="#39364F" stroke-width="0.28" stroke-linecap="round" stroke-linejoin="round"/>
<path d="M57.3704 92.6714C57.3704 92.6714 56.6592 91.6746 56.186 91.627C55.7128 91.5794 54.5732 92.6714 54.5732 92.6714H57.3704Z" fill="white" stroke="#39364F" stroke-width="0.28" stroke-linecap="round" stroke-linejoin="round"/>
<path d="M61.8755 92.7637H62.5419L62.6819 94.0937L61.9707 93.9033L61.8755 92.7637Z" fill="white" stroke="#39364F" stroke-width="0.28" stroke-linecap="round" stroke-linejoin="round"/>
<path d="M62.542 92.7637L63.7264 93.2873L64.0092 94.7573L62.682 94.0937L62.542 92.7637Z" fill="white" stroke="#39364F" stroke-width="0.28" stroke-linecap="round" stroke-linejoin="round"/>
<path d="M66.3301 95.3397L59.5513 92.6853C59.1605 92.8774 58.794 93.1152 58.4593 93.3937C58.2615 93.5925 58.1154 93.8367 58.0337 94.1049C58.0337 94.1049 61.2565 96.4289 62.8217 97.1401C64.3869 97.8513 66.6633 98.0893 67.0413 97.7001C67.4193 97.3109 67.3213 95.8521 67.0889 95.6141C66.9633 95.4845 66.82 95.3733 66.6633 95.2837" fill="#39364F"/>
<path d="M66.3301 95.3397L59.5513 92.6853C59.1605 92.8774 58.794 93.1152 58.4593 93.3937C58.2615 93.5925 58.1154 93.8367 58.0337 94.1049C58.0337 94.1049 61.2565 96.4289 62.8217 97.1401C64.3869 97.8513 66.6633 98.0893 67.0413 97.7001C67.4193 97.3109 67.3213 95.8521 67.0889 95.6141C66.9633 95.4845 66.82 95.3733 66.6633 95.2837" stroke="#39364F" stroke-width="0.28" stroke-linecap="round" stroke-linejoin="round"/>
<path d="M61.8755 92.5398L61.9707 93.9146C61.9707 93.9146 56.9923 95.0514 55.1443 95.3846C53.2963 95.7178 52.2995 95.477 52.0167 94.6258C51.7339 93.7746 52.6803 92.7274 53.1059 92.4922C53.5315 92.257 61.8755 92.5398 61.8755 92.5398Z" fill="#39364F" stroke="#39364F" stroke-width="0.28" stroke-linecap="round" stroke-linejoin="round"/>
</g>
<mask id="mask4_309_561" style="mask-type:luminance" maskUnits="userSpaceOnUse" x="34" y="77" width="16" height="23">
<path d="M49.2919 77.7979H34.3203V99.985H49.2919V77.7979Z" fill="white"/>
</mask>
<g mask="url(#mask4_309_561)">
<path d="M43.5632 89.2891C43.5632 89.2891 45.4616 89.7623 46.2204 90.0003C46.9792 90.2383 47.2144 90.5211 47.2144 91.0895C47.2144 91.6579 46.7888 94.1695 46.7888 94.5503V97.1123C46.7888 97.8235 47.5 100.43 47.5 100.43H38.26C38.26 100.43 37.2184 96.4487 36.5072 94.2703C35.796 92.0919 35.7008 91.3303 36.412 90.9971C38.1026 90.3776 39.8275 89.8559 41.578 89.4347C42.2355 89.3398 42.8989 89.2912 43.5632 89.2891Z" fill="#2176FF" stroke="#39364F" stroke-width="0.28" stroke-miterlimit="10"/>
<path d="M46.3156 92.4167C46.3156 92.4167 46.8756 95.0264 46.6936 95.9728C46.5116 96.9192 45.2236 100.526 45.2236 100.526" stroke="#39364F" stroke-width="0.28" stroke-linecap="round" stroke-linejoin="round"/>
<path d="M36.4065 90.9944C36.4065 90.9944 35.5665 91.1372 35.7905 92.2292C36.0145 93.3212 34.9365 100.38 34.9365 100.38H37.0225C37.0225 100.38 38.4449 96.6336 38.6801 95.7348C38.9153 94.836 39.1085 94.122 38.6801 93.3632" fill="#2176FF"/>
<path d="M36.4065 90.9944C36.4065 90.9944 35.5665 91.1372 35.7905 92.2292C36.0145 93.3212 34.9365 100.38 34.9365 100.38H37.0225C37.0225 100.38 38.4449 96.6336 38.6801 95.7348C38.9153 94.836 39.1085 94.122 38.6801 93.3632" stroke="#39364F" stroke-width="0.28" stroke-miterlimit="10"/>
<path d="M45.2405 84.6719L45.5513 94.3291H42.7485V85.5035L45.2405 84.6719Z" fill="#39364F" stroke="#39364F" stroke-width="0.28" stroke-linecap="round" stroke-linejoin="round"/>
<path d="M41.62 91.6132C41.62 91.6132 42.4264 95.2532 42.7596 96.3536C43.0928 97.454 43.1376 99.9936 43.0396 100.335C42.9416 100.677 44.224 100.335 44.224 100.335C44.224 100.335 44.5572 97.8152 44.7476 96.3536C44.938 94.892 44.3668 92.134 44.3668 92.134L43.7508 89.7148L41.4268 90.1432L41.62 91.6132Z" fill="white" stroke="#39364F" stroke-width="0.28" stroke-linecap="round" stroke-linejoin="round"/>
<path d="M43.6503 87.6288C43.5181 88.3835 43.5343 89.1567 43.6979 89.9052C43.9779 90.9496 44.7423 92.8452 44.0787 93.366C43.4151 93.8868 42.5135 93.604 42.0403 92.6548C41.5671 91.7056 41.1387 89.3368 41.1387 87.3936C41.1387 85.4504 41.3291 85.1172 41.9927 85.1172C42.6563 85.1172 43.6503 87.6288 43.6503 87.6288Z" fill="white" stroke="#39364F" stroke-width="0.28" stroke-linecap="round" stroke-linejoin="round"/>
<path d="M42.2835 86.7299C41.8572 87.1006 41.3557 87.3747 40.8135 87.5335C40.1023 87.6763 39.7243 85.7807 39.6291 83.8935C39.5339 82.0063 40.0099 80.9535 41.0039 80.4803C41.9979 80.0071 44.4171 80.2423 45.3663 80.6203C46.3155 80.9983 47.4523 81.6171 47.4523 82.6111C47.4523 83.6051 46.1699 84.4199 45.7919 84.6439C45.4139 84.8679 44.5123 85.2039 43.9439 85.7807C43.4528 86.1955 42.8901 86.5172 42.2835 86.7299Z" fill="#39364F" stroke="#39364F" stroke-width="0.28" stroke-linecap="round" stroke-linejoin="round"/>
<path d="M42.2837 86.73C42.2837 86.73 42.8437 88.1524 43.8965 88.1972C44.9493 88.242 46.1365 85.8284 46.1729 84.784C46.2093 83.7396 45.1285 81.9392 45.1285 81.9392C45.1285 81.9392 43.2805 86.1588 42.2837 86.73Z" fill="white" stroke="#39364F" stroke-width="0.28" stroke-linecap="round" stroke-linejoin="round"/>
<path d="M42.0008 84.5964L42.0932 94.836H38.918L39.6292 82.936" fill="#39364F"/>
<path d="M42.0008 84.5964L42.0932 94.836H38.918L39.6292 82.936" stroke="#39364F" stroke-width="0.28" stroke-linecap="round" stroke-linejoin="round"/>
</g>
</svg>
