<svg width="116" height="41" viewBox="0 0 116 41" fill="none" xmlns="http://www.w3.org/2000/svg">
<path fill-rule="evenodd" clip-rule="evenodd" d="M102.067 21.3927C102.067 15.0719 99.0097 10.0845 93.1668 10.0845C87.2992 10.0845 83.749 15.0719 83.749 21.3433C83.749 28.7751 87.9402 32.528 93.9557 32.528C96.8895 32.528 99.1084 31.8614 100.785 30.9231V25.9851C99.1084 26.8245 97.1854 27.343 94.7446 27.343C92.3532 27.343 90.233 26.5036 89.9618 23.5901H102.018C102.018 23.2691 102.067 21.9852 102.067 21.3927ZM89.8878 19.0471C89.8878 16.2571 91.5889 15.0966 93.1421 15.0966C94.646 15.0966 96.2485 16.2571 96.2485 19.0471H89.8878Z" fill="#2176FF"/>
<path fill-rule="evenodd" clip-rule="evenodd" d="M74.2327 10.0845C71.8167 10.0845 70.2635 11.2202 69.4006 12.0103L69.0801 10.4795H63.6562V39.2685L69.8197 37.9599L69.8444 30.9725C70.7319 31.6145 72.0386 32.528 74.2081 32.528C78.6211 32.528 82.6397 28.9726 82.6397 21.1458C82.6151 13.9856 78.5472 10.0845 74.2327 10.0845ZM72.7535 27.0961C71.2989 27.0961 70.4361 26.5776 69.8444 25.9357L69.8197 16.7756C70.4607 16.0595 71.3482 15.5657 72.7535 15.5657C74.997 15.5657 76.5502 18.0842 76.5502 21.3186C76.5502 24.6271 75.0217 27.0961 72.7535 27.0961Z" fill="#2176FF"/>
<path fill-rule="evenodd" clip-rule="evenodd" d="M55.1753 8.62777L61.3634 7.29449V2.28235L55.1753 3.59094V8.62777Z" fill="#2176FF"/>
<path d="M61.3634 10.5043H55.1753V32.1083H61.3634V10.5043Z" fill="#2176FF"/>
<path fill-rule="evenodd" clip-rule="evenodd" d="M48.5434 12.3313L48.149 10.5042H42.8237V32.1083H48.9872V17.4669C50.4418 15.5658 52.9072 15.9114 53.6714 16.183V10.5042C52.8825 10.208 49.998 9.66476 48.5434 12.3313Z" fill="#2176FF"/>
<path fill-rule="evenodd" clip-rule="evenodd" d="M36.2165 5.14648L30.2009 6.43038L30.1763 26.2074C30.1763 29.8615 32.9128 32.5528 36.5616 32.5528C38.5832 32.5528 40.0625 32.1824 40.876 31.738V26.7259C40.0871 27.0468 36.1918 28.1826 36.1918 24.5284V15.7633H40.876V10.5043H36.1918L36.2165 5.14648Z" fill="#2176FF"/>
<path fill-rule="evenodd" clip-rule="evenodd" d="M19.5504 16.7756C19.5504 15.8126 20.3393 15.4423 21.646 15.4423C23.5197 15.4423 25.8864 16.0102 27.7601 17.0225V11.2202C25.7139 10.4054 23.6923 10.0845 21.646 10.0845C16.6413 10.0845 13.313 12.7017 13.313 17.0718C13.313 23.8864 22.6814 22.8 22.6814 25.7382C22.6814 26.8739 21.6953 27.2443 20.3147 27.2443C18.2684 27.2443 15.6551 26.4048 13.5842 25.2691V31.1454C15.877 32.133 18.1944 32.5527 20.3147 32.5527C25.4427 32.5527 28.9682 30.0096 28.9682 25.59C28.9435 18.2323 19.5504 19.5409 19.5504 16.7756Z" fill="#2176FF"/>
</svg>
