<svg width="64" height="64" viewBox="0 0 64 64" fill="none" xmlns="http://www.w3.org/2000/svg">
<g clip-path="url(#clip0_309_2877)">
<path d="M32 64C49.6731 64 64 49.6731 64 32C64 14.3269 49.6731 0 32 0C14.3269 0 0 14.3269 0 32C0 49.6731 14.3269 64 32 64Z" fill="#CCE0FF"/>
<path d="M37.9566 30.2416C37.9198 30.1624 37.861 30.0953 37.7873 30.0482C37.7136 30.0012 37.628 29.9761 37.5406 29.976H32.1038L37.4702 21.504C37.5139 21.4347 37.5383 21.3549 37.5407 21.2729C37.5431 21.1909 37.5236 21.1098 37.4841 21.038C37.4446 20.9661 37.3865 20.9061 37.316 20.8643C37.2455 20.8225 37.165 20.8003 37.083 20.8H29.7406C29.6555 20.8003 29.5721 20.8242 29.4997 20.8692C29.4274 20.9141 29.369 20.9782 29.331 21.0544L22.4478 34.8192C22.4128 34.8892 22.3963 34.9669 22.3999 35.045C22.4035 35.1231 22.427 35.199 22.4682 35.2654C22.5095 35.3318 22.5671 35.3866 22.6355 35.4244C22.7039 35.4623 22.7808 35.482 22.859 35.4816H27.5774L22.435 47.6928C22.3927 47.794 22.3879 47.9071 22.4217 48.0114C22.4554 48.1158 22.5254 48.2046 22.619 48.2619C22.7126 48.3191 22.8236 48.341 22.9319 48.3234C23.0402 48.3059 23.1386 48.2502 23.2094 48.1664L37.8926 30.7312C37.9488 30.6642 37.9847 30.5825 37.996 30.4958C38.0074 30.409 37.9937 30.3209 37.9566 30.2416Z" fill="#2176FF"/>
<path d="M43.1568 30.2416C43.12 30.1624 43.0612 30.0953 42.9875 30.0482C42.9138 30.0012 42.8282 29.9761 42.7408 29.976H37.304L42.6704 21.504C42.7141 21.4347 42.7385 21.3549 42.7409 21.2729C42.7433 21.1909 42.7238 21.1098 42.6843 21.038C42.6447 20.9661 42.5867 20.9061 42.5162 20.8643C42.4457 20.8225 42.3652 20.8003 42.2832 20.8H34.9408C34.8557 20.8003 34.7723 20.8242 34.6999 20.8692C34.6276 20.9141 34.5692 20.9782 34.5312 21.0544L27.648 34.8192C27.613 34.8892 27.5965 34.9669 27.6001 35.045C27.6037 35.1231 27.6272 35.199 27.6684 35.2654C27.7097 35.3318 27.7672 35.3866 27.8357 35.4244C27.9041 35.4623 27.981 35.482 28.0592 35.4816H32.7776L27.6352 47.6928C27.5929 47.794 27.5881 47.9071 27.6219 48.0114C27.6556 48.1158 27.7256 48.2046 27.8192 48.2619C27.9128 48.3191 28.0238 48.341 28.1321 48.3234C28.2404 48.3059 28.3388 48.2502 28.4096 48.1664L43.0928 30.7312C43.149 30.6642 43.1849 30.5825 43.1962 30.4958C43.2076 30.409 43.1939 30.3209 43.1568 30.2416Z" fill="#39364F" stroke="#CCE0FF"/>
</g>
<defs>
<clipPath id="clip0_309_2877">
<rect width="64" height="64" fill="white"/>
</clipPath>
</defs>
</svg>
